<svg height="480pt" viewBox="-4 0 480 480" width="480pt" xmlns="http://www.w3.org/2000/svg"><path d="m400 168h-8v-80c-.050781-37.171875-28.359375-68.207031-65.367188-71.664062-3.277343-9.722657-12.371093-16.289063-22.632812-16.335938h-128c-10.261719.046875-19.355469 6.613281-22.632812 16.335938-37.007813 3.457031-65.316407 34.492187-65.367188 71.664062v80h-8c-13.253906 0-24 10.746094-24 24v16c0 13.253906 10.746094 24 24 24h8v240c0 4.417969 3.582031 8 8 8h288c4.417969 0 8-3.582031 8-8v-240h8c13.253906 0 24-10.746094 24-24v-16c0-13.253906-10.746094-24-24-24zm-224-152h128c4.417969 0 8 3.582031 8 8s-3.582031 8-8 8h-128c-4.417969 0-8-3.582031-8-8s3.582031-8 8-8zm-72 72c.042969-28.429688 21.359375-52.328125 49.601562-55.609375 3.492188 9.359375 12.410157 15.574219 22.398438 15.609375h128c9.988281-.035156 18.90625-6.25 22.398438-15.609375 28.242187 3.28125 49.558593 27.179687 49.601562 55.609375v80h-8.6875c.421875-2.648438.652344-5.320312.6875-8-.035156-28.050781-20.785156-51.757812-48.585938-55.511719-3.253906-20.6875-19.546874-36.875-40.253906-40-20.707031-3.125-41.050781 7.539063-50.265625 26.34375-26-8.957031-54.480469 3.902344-64.949219 29.335938-24.835937 2.136719-43.917968 22.90625-43.945312 47.832031h-16zm232 224.160156c.105469 2.667969-1.199219 5.195313-3.433594 6.65625-2.675781 1.589844-6.007812 1.589844-8.6875 0-2.394531-1.4375-3.863281-4.023437-3.878906-6.816406v-64c.042969-6.308594-2.46875-12.367188-6.960938-16.800781-1.011718-1.035157-2.117187-1.972657-3.304687-2.808594-.351563-.246094-.710937-.460937-1.0625-.6875-.878906-.5625-1.796875-1.0625-2.742187-1.496094-.378907-.175781-.746094-.359375-1.128907-.511719-1.292969-.527343-2.632812-.941406-4-1.230468-1.398437-.28125-2.816406-.433594-4.242187-.464844-.160156 0-.3125 0-.46875 0-.160156 0-.53125.0625-.800782.070312-1.074218.035157-2.140624.140626-3.199218.3125-.433594.066407-.859375.128907-1.289063.21875-1.476562.300782-2.921875.726563-4.328125 1.269532-8.847656 3.738281-14.5625 12.445312-14.472656 22.050781v16.316406c.183594 5.890625-3.042969 11.359375-8.289062 14.050781-5.246094 2.628907-11.488282 2.308594-16.4375-.839843-4.546876-2.960938-7.285157-8.023438-7.273438-13.449219v-80h96zm-200-144.160156c.042969-8.574219 3.503906-16.773438 9.621094-22.78125 6.113281-6.007812 14.375-9.328125 22.945312-9.21875 3.96875.546875 7.730469-1.925781 8.800782-5.785156 4.378906-15.5 18.523437-26.210938 34.632812-26.214844 6.097656-.015625 12.09375 1.554688 17.398438 4.550781 2.15625 1.230469 4.757812 1.386719 7.042968.433594 2.289063-.957031 4.003906-2.917969 4.648438-5.3125 3.796875-14.128906 16.703125-23.875 31.332031-23.660156 14.628906.214843 27.246094 10.335937 30.625 24.574219-9.53125 1.179687-18.726563 4.261718-27.046875 9.0625-3.675781 2.273437-4.882812 7.058593-2.71875 10.804687s6.910156 5.09375 10.71875 3.042969c8.511719-4.917969 18.171875-7.5 28-7.496094 22.082031.027344 39.972656 17.917969 40 40 .007812 2.6875-.257812 5.367188-.800781 8zm-64 40v-16c0-4.417969 3.582031-8 8-8h144v32h-144c-4.417969 0-8-3.582031-8-8zm304 216h-272v-8h272zm-272 40v-24h272v24zm272-64h-272v-168h120v32c-.027344 10.84375 5.453125 20.957031 14.550781 26.855469 9.5 6.101562 21.46875 6.875 31.671875 2.046875 11.050782-5.222656 18.011719-16.441406 17.777344-28.664063v-16.316406c-.097656-3.058594 1.621094-5.886719 4.382812-7.203125 3.160157-1.445312 6.882813-.753906 9.3125 1.730469 1.492188 1.457031 2.324219 3.464843 2.304688 5.550781v64c.039062 8.371094 4.410156 16.125 11.550781 20.496094 1.839844 1.117187 3.820313 1.972656 5.890625 2.550781.71875.210937 1.46875.199219 2.207032.335937 1.347656.304688 2.714843.488282 4.09375.554688.089843 0 .167968.039062.25.039062 1.3125-.0625 2.617187-.222656 3.902343-.480468.679688-.113282 1.363281-.089844 2.035157-.257813 2.105468-.503906 4.144531-1.261719 6.070312-2.253906 7.535156-4.183594 12.152344-12.183594 12-20.800781v-80.183594h24zm32-192c0 4.417969-3.582031 8-8 8h-48v-32h48c4.417969 0 8 3.582031 8 8zm0 0"/><path d="m56 64c17.671875 0 32-14.328125 32-32s-14.328125-32-32-32-32 14.328125-32 32 14.328125 32 32 32zm0-48c8.835938 0 16 7.164062 16 16s-7.164062 16-16 16-16-7.164062-16-16 7.164062-16 16-16zm0 0"/><path d="m48 120c0-13.253906-10.746094-24-24-24s-24 10.746094-24 24 10.746094 24 24 24 24-10.746094 24-24zm-32 0c0-4.417969 3.582031-8 8-8s8 3.582031 8 8-3.582031 8-8 8-8-3.582031-8-8zm0 0"/><path d="m48 256c-13.253906 0-24 10.746094-24 24s10.746094 24 24 24 24-10.746094 24-24-10.746094-24-24-24zm0 32c-4.417969 0-8-3.582031-8-8s3.582031-8 8-8 8 3.582031 8 8-3.582031 8-8 8zm0 0"/><path d="m424 48c13.253906 0 24-10.746094 24-24s-10.746094-24-24-24-24 10.746094-24 24 10.746094 24 24 24zm0-32c4.417969 0 8 3.582031 8 8s-3.582031 8-8 8-8-3.582031-8-8 3.582031-8 8-8zm0 0"/><path d="m440 80c-17.671875 0-32 14.328125-32 32s14.328125 32 32 32 32-14.328125 32-32-14.328125-32-32-32zm0 48c-8.835938 0-16-7.164062-16-16s7.164062-16 16-16 16 7.164062 16 16-7.164062 16-16 16zm0 0"/></svg>