<svg height="480pt" viewBox="0 0 480 480" width="480pt" xmlns="http://www.w3.org/2000/svg"><path d="m64 32c-17.671875 0-32 14.328125-32 32s14.328125 32 32 32 32-14.328125 32-32-14.328125-32-32-32zm0 48c-8.835938 0-16-7.164062-16-16s7.164062-16 16-16 16 7.164062 16 16-7.164062 16-16 16zm0 0"/><path d="m64 24c4.417969 0 8-3.582031 8-8v-8c0-4.417969-3.582031-8-8-8s-8 3.582031-8 8v8c0 4.417969 3.582031 8 8 8zm0 0"/><path d="m24.40625 35.71875c3.128906 3.125 8.195312 3.125 11.316406-.003906 3.125-3.125 3.125-8.191406-.003906-11.316406l-5.664062-5.65625c-3.125-3.121094-8.191407-3.121094-11.316407.003906-3.121093 3.128906-3.121093 8.195312.003907 11.316406zm0 0"/><path d="m24 64c0-4.417969-3.582031-8-8-8h-8c-4.417969 0-8 3.582031-8 8s3.582031 8 8 8h8c4.417969 0 8-3.582031 8-8zm0 0"/><path d="m24.40625 92.28125-5.664062 5.65625c-3.125 3.121094-3.125 8.1875-.003907 11.316406 3.125 3.125 8.191407 3.125 11.316407.003906l5.664062-5.65625c3.128906-3.125 3.128906-8.191406.003906-11.316406-3.121094-3.128906-8.1875-3.128906-11.316406-.003906zm0 0"/><path d="m64 104c-4.417969 0-8 3.582031-8 8v8c0 4.417969 3.582031 8 8 8s8-3.582031 8-8v-8c0-4.417969-3.582031-8-8-8zm0 0"/><path d="m103.59375 92.28125c-3.128906-3.125-8.195312-3.125-11.316406.003906-3.125 3.125-3.125 8.191406.003906 11.316406l5.664062 5.65625c3.125 3.121094 8.191407 3.121094 11.316407-.003906 3.121093-3.128906 3.121093-8.195312-.003907-11.316406zm0 0"/><path d="m128 64c0-4.417969-3.582031-8-8-8h-8c-4.417969 0-8 3.582031-8 8s3.582031 8 8 8h8c4.417969 0 8-3.582031 8-8zm0 0"/><path d="m97.9375 38.054688c2.117188.003906 4.152344-.835938 5.65625-2.335938l5.664062-5.65625c3.125-3.121094 3.125-8.1875.003907-11.316406-3.125-3.125-8.191407-3.125-11.316407-.003906l-5.664062 5.65625c-2.289062 2.289062-2.972656 5.730468-1.734375 8.71875 1.238281 2.988281 4.152344 4.9375 7.390625 4.9375zm0 0"/><path d="m472 136h-24c-4.417969 0-8 3.582031-8 8v40h-118.238281c-4.503907-5.085938-10.96875-8-17.761719-8s-13.257812 2.914062-17.761719 8h-126.238281v-40c0-4.417969-3.582031-8-8-8h-24c-4.417969 0-8 3.582031-8 8v328c0 4.417969 3.582031 8 8 8h24c4.417969 0 8-3.582031 8-8v-272h120c0 4.417969 3.582031 8 8 8s8-3.582031 8-8h16c0 4.417969-3.582031 8-8 8s-8 3.582031-8 8v16h-64c-.175781 0-.320312.089844-.496094.097656-.71875.046875-1.429687.191406-2.113281.429688-.253906.074218-.503906.164062-.75.265625-.839844.375-1.609375.890625-2.273437 1.527343l-40 40c-3.121094 3.125-3.121094 8.1875 0 11.3125l37.632812 37.679688v92.6875c0 4.417969 3.582031 8 8 8h144c4.417969 0 8-3.582031 8-8v-92.6875l37.65625-37.65625c3.121094-3.125 3.121094-8.1875 0-11.3125l-40-40c-.664062-.632812-1.429688-1.144531-2.265625-1.519531-.257813-.109375-.527344-.199219-.796875-.273438-.675781-.234375-1.378906-.378906-2.089844-.421875-.175781 0-.328125-.105468-.511718-.105468h-63.992188v-9.390626c9.582031-3.402343 15.988281-12.464843 16-22.632812h112v272c0 4.417969 3.582031 8 8 8h24c4.417969 0 8-3.582031 8-8v-328c0-4.417969-3.582031-8-8-8zm-328 328h-8v-312h8zm59.3125-184 20.6875-20.6875v41.375zm180.6875 20.6875v-41.375l20.6875 20.6875zm-16 107.3125h-128v-160h16.71875c3.882812 23.085938 23.871094 39.992188 47.28125 39.992188s43.398438-16.90625 47.28125-39.992188h16.71875zm-64-136c-14.585938-.015625-27.320312-9.882812-30.984375-24h61.96875c-3.664063 14.117188-16.398437 23.984375-30.984375 24zm160 192h-8v-312h8zm0 0"/></svg>