<svg height="480pt" viewBox="-31 0 479 480" width="480pt" xmlns="http://www.w3.org/2000/svg"><path d="m317.042969 32.800781-29.207031-13.039062c-4.035157-1.804688-8.769532.007812-10.566407 4.046875l-38.007812 85.359375 14.878906-84.230469c.765625-4.347656-2.136719-8.492188-6.480469-9.265625l-31.519531-5.601563c-2.089844-.382812-4.25.09375-5.984375 1.320313-1.738281 1.214844-2.925781 3.074219-3.296875 5.160156l-9.648437 54.738281-11.070313-62.761718c-.773437-4.351563-4.929687-7.253906-9.28125-6.480469l-31.519531 5.601563c-2.128906.386718-4.011719 1.617187-5.21875 3.414062-1.203125 1.796875-1.632813 4.003906-1.179688 6.121094l19.910156 93.488281-35.152343-78.878906c-.863281-1.941407-2.460938-3.457031-4.441407-4.21875-1.984374-.761719-4.1875-.703125-6.125.160156l-29.175781 13.066406c-4.035156 1.796875-5.84375 6.523438-4.050781 10.558594l40.800781 91.609375c-.09375.335938-.164062.683594-.207031 1.03125v32c0 4.417969 3.582031 8 8 8h32v24c0 4.417969 3.582031 8 8 8h8v240c0 13.253906 10.746094 24 24 24s24-10.746094 24-24v-240h8c4.417969 0 8-3.582031 8-8v-24h32c4.417969 0 8-3.582031 8-8v-32c-.023438-1.871094-.71875-3.667969-1.953125-5.070312l42.546875-95.601563c1.773438-4.027344-.035156-8.730469-4.050781-10.527344zm-95.816407-5.601562 15.761719 2.800781-18.71875 106h-16.226562zm-49.453124-8 17.3125 98.113281-3.265626 18.503906-5.242187.183594-24.285156-114.046875zm-59.410157 26.402343 40.214844 90.398438h-17.4375l-37.359375-83.871094zm96.136719 410.398438c0 4.417969-3.582031 8-8 8s-8-3.582031-8-8v-240h16zm16-256h-48v-16h48zm40-32h-128v-16h128zm-2.160156-32h-17.519532l43.808594-98.398438 14.589844 6.519532zm0 0"/><path d="m32.5 96c4.417969 0 8-3.582031 8-8v-8c0-4.417969-3.582031-8-8-8s-8 3.582031-8 8v8c0 4.417969 3.582031 8 8 8zm0 0"/><path d="m16.5 96h-8c-4.417969 0-8 3.582031-8 8s3.582031 8 8 8h8c4.417969 0 8-3.582031 8-8s-3.582031-8-8-8zm0 0"/><path d="m32.5 112c-4.417969 0-8 3.582031-8 8v8c0 4.417969 3.582031 8 8 8s8-3.582031 8-8v-8c0-4.417969-3.582031-8-8-8zm0 0"/><path d="m56.5 96h-8c-4.417969 0-8 3.582031-8 8s3.582031 8 8 8h8c4.417969 0 8-3.582031 8-8s-3.582031-8-8-8zm0 0"/><path d="m384.5 24c4.417969 0 8-3.582031 8-8v-8c0-4.417969-3.582031-8-8-8s-8 3.582031-8 8v8c0 4.417969 3.582031 8 8 8zm0 0"/><path d="m368.5 40c4.417969 0 8-3.582031 8-8s-3.582031-8-8-8h-8c-4.417969 0-8 3.582031-8 8s3.582031 8 8 8zm0 0"/><path d="m384.5 40c-4.417969 0-8 3.582031-8 8v8c0 4.417969 3.582031 8 8 8s8-3.582031 8-8v-8c0-4.417969-3.582031-8-8-8zm0 0"/><path d="m408.5 24h-8c-4.417969 0-8 3.582031-8 8s3.582031 8 8 8h8c4.417969 0 8-3.582031 8-8s-3.582031-8-8-8zm0 0"/><path d="m350.179688 98.320312c-2.300782-2.269531-5.742188-2.933593-8.71875-1.679687-.96875.40625-1.863282.972656-2.640626 1.679687-.722656.765626-1.292968 1.660157-1.679687 2.640626-.410156.960937-.628906 1.992187-.640625 3.039062-.027344 1.050781.191406 2.089844.640625 3.039062.40625.96875.976563 1.863282 1.679687 2.640626.777344.707031 1.671876 1.273437 2.640626 1.679687 1.9375.855469 4.140624.855469 6.078124 0 .96875-.40625 1.863282-.972656 2.640626-1.679687.703124-.777344 1.273437-1.671876 1.679687-2.640626.851563-1.9375.851563-4.140624 0-6.078124-.386719-.980469-.957031-1.875-1.679687-2.640626zm0 0"/><path d="m78.179688 162.320312c-.765626-.722656-1.660157-1.292968-2.640626-1.679687-2.976562-1.253906-6.417968-.589844-8.71875 1.679687-.707031.777344-1.273437 1.671876-1.679687 2.640626-.855469 1.9375-.855469 4.140624 0 6.078124.40625.96875.976563 1.863282 1.679687 2.640626 2.289063 2.289062 5.742188 2.957031 8.71875 1.679687.96875-.40625 1.863282-.972656 2.640626-1.679687 2.289062-2.289063 2.957031-5.742188 1.679687-8.71875-.386719-.980469-.957031-1.875-1.679687-2.640626zm0 0"/><path d="m42.820312 29.679688c.777344.707031 1.671876 1.273437 2.640626 1.679687 2.976562 1.277344 6.429687.609375 8.71875-1.679687.703124-.777344 1.273437-1.671876 1.679687-2.640626.851563-1.9375.851563-4.140624 0-6.078124-.386719-.980469-.957031-1.875-1.679687-2.640626-.777344-.707031-1.671876-1.273437-2.640626-1.679687-1.457031-.644531-3.082031-.8125-4.640624-.480469-.5.085938-.984376.25-1.4375.480469-.511719.175781-.996094.417969-1.441407.71875-.417969.296875-.820312.617187-1.199219.960937-.722656.765626-1.292968 1.660157-1.679687 2.640626-.410156.960937-.628906 1.992187-.640625 3.039062-.027344 1.050781.191406 2.089844.640625 3.039062.40625.96875.976563 1.863282 1.679687 2.640626zm0 0"/><path d="m371.539062 136.640625c-1.929687-.882813-4.148437-.882813-6.078124 0-.96875.40625-1.863282.972656-2.640626 1.679687-.722656.765626-1.292968 1.660157-1.679687 2.640626-1.277344 2.976562-.613281 6.429687 1.679687 8.71875 2.289063 2.292968 5.742188 2.957031 8.71875 1.679687.96875-.40625 1.863282-.972656 2.640626-1.679687 1.503906-1.503907 2.339843-3.550782 2.320312-5.679688-.03125-2.117188-.859375-4.148438-2.320312-5.679688-.765626-.722656-1.660157-1.292968-2.640626-1.679687zm0 0"/><path d="m318.179688 154.320312c-3.207032-2.960937-8.152344-2.960937-11.359376 0-.722656.765626-1.292968 1.660157-1.679687 2.640626-1.277344 2.976562-.609375 6.429687 1.679687 8.71875.777344.707031 1.671876 1.273437 2.640626 1.679687 2.976562 1.277344 6.429687.613281 8.71875-1.679687 2.292968-2.289063 2.957031-5.742188 1.679687-8.71875-.386719-.980469-.957031-1.875-1.679687-2.640626zm0 0"/></svg>