<svg height="480pt" viewBox="-8 0 480 480" width="480pt" xmlns="http://www.w3.org/2000/svg"><path d="m160 329.472656v-47.519531l55.246094-55.25c4.464844-4.511719 6.976562-10.597656 6.992187-16.941406.015625-6.367188-2.519531-12.476563-7.039062-16.960938-9.398438-9.316406-24.550781-9.316406-33.953125 0l-21.246094 21.246094v-78.046875c0-7.792969-3.78125-15.101562-10.140625-19.597656-6.363281-4.5-14.511719-5.632813-21.859375-3.035156v-9.367188c0-13.253906-10.746094-24-24-24s-24 10.746094-24 24v17.367188c-7.347656-2.597657-15.496094-1.464844-21.859375 3.035156-6.359375 4.496094-10.140625 11.804687-10.140625 19.597656v1.367188c-7.347656-2.597657-15.496094-1.464844-21.859375 3.035156-6.359375 4.496094-10.140625 11.804687-10.140625 19.597656v161.472656c-11.011719 3.878906-17.621094 15.132813-15.644531 26.640625 1.980469 11.507813 11.96875 19.910157 23.644531 19.886719h16v96c0 4.417969 3.582031 8 8 8h80c4.417969 0 8-3.582031 8-8v-96h16c11.675781.023438 21.664062-8.378906 23.644531-19.886719 1.976563-11.507812-4.632812-22.761719-15.644531-26.640625zm-128-161.472656c0-4.417969 3.582031-8 8-8s8 3.582031 8 8v56c0 4.417969 3.582031 8 8 8s8-3.582031 8-8v-80c0-4.417969 3.582031-8 8-8s8 3.582031 8 8v72c0 4.417969 3.582031 8 8 8s8-3.582031 8-8v-112c0-4.417969 3.582031-8 8-8s8 3.582031 8 8v112c0 4.417969 3.582031 8 8 8s8-3.582031 8-8v-80c0-4.417969 3.582031-8 8-8s8 3.582031 8 8v97.359375c0 3.234375 1.949219 6.152344 4.9375 7.390625s6.429688.554688 8.71875-1.734375l34.847656-34.847656c1.5-1.511719 3.546875-2.363281 5.675782-2.363281 2.132812 0 4.175781.851562 5.675781 2.363281 1.519531 1.46875 2.382812 3.488281 2.402343 5.601562-.027343 2.140625-.886718 4.1875-2.402343 5.703125l-57.519531 57.519532c-1.496094 1.5-2.335938 3.53125-2.335938 5.648437v49.359375h-112zm88 296h-64v-88h64zm32-104h-128c-4.417969 0-8-3.582031-8-8s3.582031-8 8-8h128c4.417969 0 8 3.582031 8 8s-3.582031 8-8 8zm0 0"/><path d="m448 329.472656v-161.472656c0-7.792969-3.78125-15.101562-10.140625-19.597656-6.363281-4.5-14.511719-5.632813-21.859375-3.035156v-1.367188c0-7.792969-3.78125-15.101562-10.140625-19.597656-6.363281-4.5-14.511719-5.632813-21.859375-3.035156v-17.367188c0-13.253906-10.746094-24-24-24s-24 10.746094-24 24v9.367188c-7.347656-2.597657-15.496094-1.464844-21.859375 3.035156-6.359375 4.496094-10.140625 11.804687-10.140625 19.597656v78.046875l-21.257812-21.246094c-9.394532-9.300781-24.527344-9.300781-33.925782 0-4.519531 4.472657-7.058594 10.570313-7.054687 16.925781.023437 6.382813 2.5625 12.496094 7.0625 17.015626l55.199219 55.203124v47.519532c-11.019532 3.867187-17.640626 15.125-15.667969 26.636718 1.972656 11.511719 11.964843 19.921876 23.644531 19.898438h16v96c0 4.417969 3.582031 8 8 8h80c4.417969 0 8-3.582031 8-8v-96h16c11.675781.023438 21.664062-8.378906 23.644531-19.886719 1.976563-11.507812-4.632812-22.761719-15.644531-26.640625zm-187.792969-113.929687c-1.542969-1.53125-2.421875-3.609375-2.445312-5.78125.019531-2.113281.882812-4.128907 2.398437-5.601563 1.5-1.503906 3.539063-2.351562 5.664063-2.351562s4.164062.847656 5.664062 2.351562l34.878907 34.878906c2.292968 2.273438 5.730468 2.945313 8.710937 1.703126 2.980469-1.242188 4.921875-4.152344 4.921875-7.382813v-97.359375c0-4.417969 3.582031-8 8-8s8 3.582031 8 8v80c0 4.417969 3.582031 8 8 8s8-3.582031 8-8v-112c0-4.417969 3.582031-8 8-8s8 3.582031 8 8v112c0 4.417969 3.582031 8 8 8s8-3.582031 8-8v-72c0-4.417969 3.582031-8 8-8s8 3.582031 8 8v80c0 4.417969 3.582031 8 8 8s8-3.582031 8-8v-56c0-4.417969 3.582031-8 8-8s8 3.582031 8 8v160h-112v-49.359375c0-2.121094-.84375-4.15625-2.34375-5.65625zm147.792969 248.457031h-64v-88h64zm32-104h-128c-4.417969 0-8-3.582031-8-8s3.582031-8 8-8h128c4.417969 0 8 3.582031 8 8s-3.582031 8-8 8zm0 0"/><path d="m272 72c4.417969 0 8-3.582031 8-8v-8c0-4.417969-3.582031-8-8-8s-8 3.582031-8 8v8c0 4.417969 3.582031 8 8 8zm0 0"/><path d="m248 88h8c4.417969 0 8-3.582031 8-8s-3.582031-8-8-8h-8c-4.417969 0-8 3.582031-8 8s3.582031 8 8 8zm0 0"/><path d="m272 88c-4.417969 0-8 3.582031-8 8v8c0 4.417969 3.582031 8 8 8s8-3.582031 8-8v-8c0-4.417969-3.582031-8-8-8zm0 0"/><path d="m288 88h8c4.417969 0 8-3.582031 8-8s-3.582031-8-8-8h-8c-4.417969 0-8 3.582031-8 8s3.582031 8 8 8zm0 0"/><path d="m32 32c4.417969 0 8-3.582031 8-8v-8c0-4.417969-3.582031-8-8-8s-8 3.582031-8 8v8c0 4.417969 3.582031 8 8 8zm0 0"/><path d="m8 48h8c4.417969 0 8-3.582031 8-8s-3.582031-8-8-8h-8c-4.417969 0-8 3.582031-8 8s3.582031 8 8 8zm0 0"/><path d="m32 48c-4.417969 0-8 3.582031-8 8v8c0 4.417969 3.582031 8 8 8s8-3.582031 8-8v-8c0-4.417969-3.582031-8-8-8zm0 0"/><path d="m48 48h8c4.417969 0 8-3.582031 8-8s-3.582031-8-8-8h-8c-4.417969 0-8 3.582031-8 8s3.582031 8 8 8zm0 0"/><path d="m216 288c-4.417969 0-8 3.582031-8 8v8c0 4.417969 3.582031 8 8 8s8-3.582031 8-8v-8c0-4.417969-3.582031-8-8-8zm0 0"/><path d="m200 312h-8c-4.417969 0-8 3.582031-8 8s3.582031 8 8 8h8c4.417969 0 8-3.582031 8-8s-3.582031-8-8-8zm0 0"/><path d="m216 328c-4.417969 0-8 3.582031-8 8v8c0 4.417969 3.582031 8 8 8s8-3.582031 8-8v-8c0-4.417969-3.582031-8-8-8zm0 0"/><path d="m240 312h-8c-4.417969 0-8 3.582031-8 8s3.582031 8 8 8h8c4.417969 0 8-3.582031 8-8s-3.582031-8-8-8zm0 0"/><path d="m168 48c13.253906 0 24-10.746094 24-24s-10.746094-24-24-24-24 10.746094-24 24 10.746094 24 24 24zm0-32c4.417969 0 8 3.582031 8 8s-3.582031 8-8 8-8-3.582031-8-8 3.582031-8 8-8zm0 0"/><path d="m432 88c17.671875 0 32-14.328125 32-32s-14.328125-32-32-32-32 14.328125-32 32 14.328125 32 32 32zm0-48c8.835938 0 16 7.164062 16 16s-7.164062 16-16 16-16-7.164062-16-16 7.164062-16 16-16zm0 0"/></svg>