<svg height="483pt" viewBox="0 -1 483.9503 483" width="483pt" xmlns="http://www.w3.org/2000/svg"><path d="m211.949219 384.476562c26.511719 0 48-21.492187 48-48 0-26.511718-21.488281-48-48-48-26.507813 0-48 21.488282-48 48 .027343 26.496094 21.503906 47.972657 48 48zm0-80c17.675781 0 32 14.324219 32 32 0 17.671876-14.324219 32-32 32-17.671875 0-32-14.328124-32-32 0-17.675781 14.328125-32 32-32zm0 0"/><path d="m211.949219 416.476562c44.183593 0 80-35.820312 80-80 0-44.183593-35.816407-80-80-80-44.183594 0-80 35.816407-80 80 .050781 44.160157 35.839843 79.949219 80 80zm0-144c35.347656 0 64 28.652344 64 64 0 35.34375-28.652344 64-64 64-35.34375 0-64-28.65625-64-64 .039062-35.332031 28.671875-63.960937 64-64zm0 0"/><path d="m235.949219 24.476562h16c4.417969 0 8-3.582031 8-8 0-4.417968-3.582031-8-8-8h-16c-4.417969 0-8 3.582032-8 8 0 4.417969 3.582031 8 8 8zm0 0"/><path d="m283.949219 24.476562h16c4.417969 0 8-3.582031 8-8 0-4.417968-3.582031-8-8-8h-16c-4.417969 0-8 3.582032-8 8 0 4.417969 3.582031 8 8 8zm0 0"/><path d="m331.949219 24.476562h16c4.417969 0 8-3.582031 8-8 0-4.417968-3.582031-8-8-8h-16c-4.417969 0-8 3.582032-8 8 0 4.417969 3.582031 8 8 8zm0 0"/><path d="m379.949219 24.476562h16c4.417969 0 8-3.582031 8-8 0-4.417968-3.582031-8-8-8h-16c-4.417969 0-8 3.582032-8 8 0 4.417969 3.582031 8 8 8zm0 0"/><path d="m235.949219 56.476562h16c4.417969 0 8-3.582031 8-8 0-4.417968-3.582031-8-8-8h-16c-4.417969 0-8 3.582032-8 8 0 4.417969 3.582031 8 8 8zm0 0"/><path d="m283.949219 56.476562h16c4.417969 0 8-3.582031 8-8 0-4.417968-3.582031-8-8-8h-16c-4.417969 0-8 3.582032-8 8 0 4.417969 3.582031 8 8 8zm0 0"/><path d="m331.949219 56.476562h16c4.417969 0 8-3.582031 8-8 0-4.417968-3.582031-8-8-8h-16c-4.417969 0-8 3.582032-8 8 0 4.417969 3.582031 8 8 8zm0 0"/><path d="m379.949219 56.476562h16c4.417969 0 8-3.582031 8-8 0-4.417968-3.582031-8-8-8h-16c-4.417969 0-8 3.582032-8 8 0 4.417969 3.582031 8 8 8zm0 0"/><path d="m235.949219 88.476562h16c4.417969 0 8-3.582031 8-8 0-4.417968-3.582031-8-8-8h-16c-4.417969 0-8 3.582032-8 8 0 4.417969 3.582031 8 8 8zm0 0"/><path d="m283.949219 88.476562h16c4.417969 0 8-3.582031 8-8 0-4.417968-3.582031-8-8-8h-16c-4.417969 0-8 3.582032-8 8 0 4.417969 3.582031 8 8 8zm0 0"/><path d="m331.949219 88.476562h16c4.417969 0 8-3.582031 8-8 0-4.417968-3.582031-8-8-8h-16c-4.417969 0-8 3.582032-8 8 0 4.417969 3.582031 8 8 8zm0 0"/><path d="m379.949219 88.476562h16c4.417969 0 8-3.582031 8-8 0-4.417968-3.582031-8-8-8h-16c-4.417969 0-8 3.582032-8 8 0 4.417969 3.582031 8 8 8zm0 0"/><path d="m475.949219 432.476562h-156.800781c1.664062-1.855468 3.304687-3.738281 4.800781-5.601562 1.160156-1.34375 2.242187-2.769531 3.3125-4.199219 7.417969-9.90625 13.515625-20.738281 18.136719-32.214843.847656-2.089844 1.671874-4.1875 2.472656-6.402344.101562-.257813.1875-.527344.246094-.800782.800781-2.300781 1.554687-4.605468 2.167968-6.839843.800782-2.558594 1.371094-5.109375 1.960938-7.640625.519531-2.199219.960937-4.398438 1.289062-6.398438.277344-1.125.472656-2.269531.582032-3.421875.769531-4.683593 1.277343-9.402343 1.527343-14.136719.167969-2.730468.257813-5.457031.257813-8.273437 0-56.773437-33.359375-108.25-85.183594-131.441406-51.820312-23.191407-112.433594-13.765625-154.769531 24.066406v-28.695313h8c4.417969 0 8-3.582031 8-8v-32c0-4.417968-3.582031-8-8-8h-8v-72h37.601562l21.984375 14.65625c1.308594.867188 2.84375 1.335938 4.414063 1.34375h24c4.417969 0 8-3.582031 8-8v-80c0-4.417968-3.582031-8-8-8h-24c-1.578125 0-3.121094.46875-4.4375 1.34375l-21.960938 14.65625h-77.601562c-.167969 0-.3125.085938-.480469.09375-.730469.046876-1.449219.195313-2.140625.433594-.25.074219-.492187.164063-.730469.261719-.839844.375-1.613281.894531-2.28125 1.53125l-67.964844 67.941406c-1.507812 1.5-2.351562 3.539063-2.351562 5.664063s.84375 4.164062 2.351562 5.664062l22.640626 22.5625c3.121093 3.109375 8.171874 3.109375 11.292968 0l31.664063-31.585937v63.433593h-8c-4.417969 0-8 3.582032-8 8v32c0 4.417969 3.582031 8 8 8h8v136c.09375 79.488282 64.511719 143.90625 144 144h264c4.417969 0 8-3.582031 8-8v-32c0-4.417968-3.582031-8-8-8zm-293.597657-416h13.597657v64h-13.597657l-18.402343-12.28125v-39.441406zm-34.402343 48h-64v-32h64zm-117.285157 39.199219-11.3125-11.289062 48.597657-48.597657v22.652344zm53.285157-23.199219h16v72h-16zm-16 88h48v16h-48zm16 168v-136h16v136c-.207031 56.273438 41.234375 104.035157 96.976562 111.761719 55.742188 7.730469 108.613281-26.953125 123.726563-81.160156 15.113281-54.210937-12.1875-111.242187-63.890625-133.46875-51.703125-22.222656-111.875-2.792969-140.8125 45.472656v-27.054687c35.128906-40.042969 91.394531-54.117188 141.238281-35.328125 49.839844 18.792969 82.8125 66.511719 82.761719 119.777343 0 2.460938-.070313 4.855469-.230469 7.34375-.238281 4.425782-.714844 8.839844-1.433594 13.214844-.097656.867188-.261718 1.730469-.480468 2.574219-.285157 1.800781-.644532 3.609375-1.078126 5.441406-.527343 2.25-1.046874 4.488281-1.769531 6.894531-.582031 2.136719-1.246093 4.195313-1.984375 6.242188-.078125.230469-.148437.464844-.207031.703125-.671875 1.855469-1.414063 3.703125-2.152344 5.542969-4.109375 10.191406-9.523437 19.804687-16.101562 28.601562-.847657 1.128906-1.699219 2.265625-2.800781 3.558594-3.375 4.21875-7.019532 8.210938-10.914063 11.953125-.6875.695313-1.382813 1.398437-2.46875 2.328125-1.257813 1.175781-2.578125 2.351562-3.683594 3.28125l-.230469.191406c-2.582031 2.183594-5.273437 4.214844-8 6.175782-.609374.433593-1.222656.871093-1.847656 1.296874-2.753906 1.894532-5.550781 3.71875-8.433594 5.390626l-.183593.082031c-12.75 7.367187-26.683594 12.476562-41.175781 15.101562-.574219.105469-1.128907.167969-1.695313.265625-2.863281.480469-5.742187.863282-8.640625 1.152344-.695312.0625-1.390625.144531-2.101562.199219-3.457032.289062-6.929688.464843-10.402344.464843-70.652344-.09375-127.898438-57.351562-127.984375-128zm32 0c0-53.019531 42.980469-96 96-96s96 42.980469 96 96c0 53.019532-42.980469 96-96 96-52.996094-.058593-95.941407-43.003906-96-96zm352 128h-190.046875l.398437-.234374c.730469-.382813 1.523438-.726563 2.234375-1.117188 2.199219-1.1875 4.222656-2.402344 6.480469-3.722656 1.191406-.75 2.269531-1.464844 3.375-2.191406l.289063-.183594c.261718-.175782.542968-.34375.796874-.527344 2.304688-1.527344 4.523438-3.074219 6.503907-4.578125.992187-.71875 1.953125-1.472656 2.898437-2.214844l1.597656-1.230469h165.472657zm0 0"/></svg>