<svg height="480pt" viewBox="0 0 480.00439 480" width="480pt" xmlns="http://www.w3.org/2000/svg"><path d="m479.074219 140.257812-72-136c-.28125-.457031-.609375-.882812-.976563-1.273437-.175781-.25-.363281-.492187-.566406-.726563-.671875-.667968-1.460938-1.207031-2.320312-1.601562-.226563-.09375-.472657-.101562-.695313-.183594-.699219-.242187-1.429687-.3867185-2.167969-.4296872-.121094.0234374-.226562-.03906255-.34375-.03906255h-320c-.121094 0-.226562.06249995-.347656.07031255-.742188.0429692-1.472656.1914062-2.175781.4414062-.226563.042969-.457031.101563-.679688.175781-.867187.386719-1.660156.929688-2.335937 1.597656-.191406.226563-.375.460938-.542969.707032-.375.390625-.707031.824218-.992187 1.285156l-72 136c-1.039063 1.960938-1.214844 4.265625-.488282 6.359375.722656 2.097656 2.285156 3.796875 4.3125 4.699219l67.25 29.863281v290.800781c0 4.417969 3.578125 8 8 8h320c4.417969 0 8-3.582031 8-8v-290.800781l67.246094-29.890625c2.027344-.898438 3.589844-2.597656 4.316406-4.695312.722656-2.097657.546875-4.398438-.492187-6.359376zm-167.519531-124.253906c-4.082032 36.429688-34.890626 63.980469-71.550782 63.980469-36.664062 0-67.46875-27.550781-71.554687-63.980469zm-292.472657 124.167969 52.921875-99.960937v123.480468zm236.921875 323.832031v-80h16v80zm-80-128c-4.421875 0-8-3.582031-8-8v-24h192v24c0 4.417969-3.582031 8-8 8zm112 16v16h-48v-16zm104 112h-104v-80h8c4.417969 0 8-3.582031 8-8v-24h48c13.253906 0 24-10.746094 24-24v-32c0-4.421875-3.582031-8-8-8h-208c-4.421875 0-8 3.578125-8 8v32c0 13.253906 10.742188 24 24 24h48v24c0 4.417969 3.578125 8 8 8h8v80h-152v-448h64.40625c4.070313 45.34375 42.070313 80.089844 87.601563 80.089844 45.527343 0 83.527343-34.746094 87.597656-80.089844h64.394531zm16-300.3125v-123.480468l52.917969 100zm0 0"/><path d="m312.003906 184.003906c-2.902344 0-5.792968.328125-8.617187.972656-3.390625-19.09375-19.992188-33.003906-39.382813-33.003906-19.394531 0-35.996094 13.910156-39.386718 33.003906-2.824219-.644531-5.714844-.972656-8.613282-.972656-22.09375 0-40 17.90625-40 40 0 22.089844 17.90625 40 40 40 4.417969 0 8-3.582031 8-8 0-4.421875-3.582031-8-8-8-13.257812 0-24-10.746094-24-24 0-13.257812 10.742188-24 24-24 4.359375.011719 8.628906 1.234375 12.335938 3.535156 2.664062 1.585938 6.007812 1.480469 8.566406-.273437 2.585938-1.753906 3.933594-4.839844 3.457031-7.925781-.207031-1.101563-.328125-2.21875-.359375-3.335938 0-13.257812 10.742188-24 24-24 13.253906 0 24 10.742188 24 24-.042968 1.175782-.167968 2.34375-.386718 3.503906-.441407 3.058594.917968 6.101563 3.492187 7.8125 2.578125 1.710938 5.910156 1.78125 8.558594.1875 3.707031-2.289062 7.976562-3.503906 12.335937-3.503906 13.253906 0 24 10.742188 24 24 0 13.253906-10.746094 24-24 24-4.421875 0-8 3.578125-8 8 0 4.417969 3.578125 8 8 8 22.089844 0 40-17.910156 40-40 0-22.09375-17.910156-40-40-40zm0 0"/><path d="m240.003906 232.003906c-4.421875 0-8 3.578125-8 8v32c0 4.417969 3.578125 8 8 8 4.417969 0 8-3.582031 8-8v-32c0-4.421875-3.582031-8-8-8zm0 0"/><path d="m264.003906 232.003906c-4.421875 0-8 3.578125-8 8v32c0 4.417969 3.578125 8 8 8 4.417969 0 8-3.582031 8-8v-32c0-4.421875-3.582031-8-8-8zm0 0"/><path d="m288.003906 232.003906c-4.421875 0-8 3.578125-8 8v32c0 4.417969 3.578125 8 8 8 4.417969 0 8-3.582031 8-8v-32c0-4.421875-3.582031-8-8-8zm0 0"/></svg>