<svg height="480pt" viewBox="-4 0 480 480" width="480pt" xmlns="http://www.w3.org/2000/svg"><path d="m368 208c13.253906 0 24-10.746094 24-24v-72h24c4.417969 0 8-3.582031 8-8v-32c0-4.417969-3.582031-8-8-8h-24v-16h8c4.417969 0 8-3.582031 8-8v-32c0-4.417969-3.582031-8-8-8h-320c-4.417969 0-8 3.582031-8 8v32c0 4.417969 3.582031 8 8 8h8v136c0 13.253906 10.746094 24 24 24h24v16h-16c-4.417969 0-8 3.582031-8 8v32c0 4.417969 3.582031 8 8 8h16v24c-.023438 29.90625 12.898438 58.355469 35.433594 78.015625l-17.386719 57.984375h-26.046875c-4.417969 0-8 3.582031-8 8v32c0 4.417969 3.582031 8 8 8h224c4.417969 0 8-3.582031 8-8v-32c0-4.417969-3.582031-8-8-8h-26.046875l-17.386719-57.984375c22.535156-19.660156 35.457032-48.109375 35.433594-78.015625v-24h16c4.417969 0 8-3.582031 8-8v-32c0-4.417969-3.582031-8-8-8h-16v-16zm40-128v16h-16v-16zm-320-64h304v16h-304zm24 176c-4.417969 0-8-3.582031-8-8v-136h272v136c0 4.417969-3.582031 8-8 8h-24v-24c0-57.4375-46.5625-104-104-104s-104 46.5625-104 104v24zm232 272h-208v-16h208zm-173.246094-32 14.285156-47.640625c1.082032.671875 2.191407 1.273437 3.296876 1.90625.800781.453125 1.601562.933594 2.398437 1.367187 2.320313 1.253907 4.671875 2.398438 7.074219 3.503907.269531.121093.558594.214843.800781.335937 2.164063.941406 4.359375 1.808594 6.582031 2.589844.855469.304688 1.730469.5625 2.585938.800781 1.679687.542969 3.375 1.066407 5.078125 1.519531.976562.265626 1.960937.496094 2.945312.730469 1.664063.394531 3.335938.746094 5.015625 1.054688.984375.175781 1.96875.359375 2.960938.511719 1.808594.28125 3.628906.496093 5.460937.679687.867188.089844 1.730469.199219 2.601563.265625 2.695312.207031 5.417968.335938 8.152344.335938 2.734374 0 5.457031-.128907 8.152343-.335938.871094-.066406 1.734375-.175781 2.597657-.265625 1.832031-.183594 3.65625-.398437 5.457031-.679687 1-.152344 1.984375-.335938 2.96875-.511719 1.683593-.316407 3.359375-.667969 5.023437-1.054688.976563-.234375 1.953125-.464843 2.929688-.730469 1.71875-.453124 3.414062-.976562 5.109375-1.527343.847656-.269531 1.714843-.527344 2.554687-.800781 2.265625-.804688 4.503906-1.6875 6.710938-2.648438.230468-.101562.472656-.175781.703125-.277344 2.402343-1.074218 4.800781-2.257812 7.097656-3.519531.800781-.417969 1.542969-.890625 2.320313-1.335937 1.109374-.640626 2.238281-1.25 3.335937-1.929688l14.292969 47.65625zm157.246094-136c.03125 23.347656-9.230469 45.75-25.742188 62.257812-16.507812 16.511719-38.910156 25.773438-62.257812 25.742188-2.5 0-4.984375-.101562-7.449219-.304688-17.167969-1.378906-33.542969-7.832031-47.039062-18.535156-21.210938-16.671875-33.570313-42.179687-33.511719-69.160156v-24h176zm24-40h-224v-16h224zm-200-32v-56c0-48.601562 39.398438-88 88-88s88 39.398438 88 88v56zm0 0"/><path d="m32 80c4.417969 0 8-3.582031 8-8v-8c0-4.417969-3.582031-8-8-8s-8 3.582031-8 8v8c0 4.417969 3.582031 8 8 8zm0 0"/><path d="m16 80h-8c-4.417969 0-8 3.582031-8 8s3.582031 8 8 8h8c4.417969 0 8-3.582031 8-8s-3.582031-8-8-8zm0 0"/><path d="m32 96c-4.417969 0-8 3.582031-8 8v8c0 4.417969 3.582031 8 8 8s8-3.582031 8-8v-8c0-4.417969-3.582031-8-8-8zm0 0"/><path d="m48 96h8c4.417969 0 8-3.582031 8-8s-3.582031-8-8-8h-8c-4.417969 0-8 3.582031-8 8s3.582031 8 8 8zm0 0"/><path d="m80 320c4.417969 0 8-3.582031 8-8v-8c0-4.417969-3.582031-8-8-8s-8 3.582031-8 8v8c0 4.417969 3.582031 8 8 8zm0 0"/><path d="m64 320h-8c-4.417969 0-8 3.582031-8 8s3.582031 8 8 8h8c4.417969 0 8-3.582031 8-8s-3.582031-8-8-8zm0 0"/><path d="m80 336c-4.417969 0-8 3.582031-8 8v8c0 4.417969 3.582031 8 8 8s8-3.582031 8-8v-8c0-4.417969-3.582031-8-8-8zm0 0"/><path d="m104 320h-8c-4.417969 0-8 3.582031-8 8s3.582031 8 8 8h8c4.417969 0 8-3.582031 8-8s-3.582031-8-8-8zm0 0"/><path d="m416 376c-4.417969 0-8 3.582031-8 8v8c0 4.417969 3.582031 8 8 8s8-3.582031 8-8v-8c0-4.417969-3.582031-8-8-8zm0 0"/><path d="m400 400h-8c-4.417969 0-8 3.582031-8 8s3.582031 8 8 8h8c4.417969 0 8-3.582031 8-8s-3.582031-8-8-8zm0 0"/><path d="m416 416c-4.417969 0-8 3.582031-8 8v8c0 4.417969 3.582031 8 8 8s8-3.582031 8-8v-8c0-4.417969-3.582031-8-8-8zm0 0"/><path d="m440 400h-8c-4.417969 0-8 3.582031-8 8s3.582031 8 8 8h8c4.417969 0 8-3.582031 8-8s-3.582031-8-8-8zm0 0"/><path d="m448 256c-13.253906 0-24 10.746094-24 24s10.746094 24 24 24 24-10.746094 24-24-10.746094-24-24-24zm0 32c-4.417969 0-8-3.582031-8-8s3.582031-8 8-8 8 3.582031 8 8-3.582031 8-8 8zm0 0"/><path d="m72 216c0-13.253906-10.746094-24-24-24s-24 10.746094-24 24 10.746094 24 24 24 24-10.746094 24-24zm-32 0c0-4.417969 3.582031-8 8-8s8 3.582031 8 8-3.582031 8-8 8-8-3.582031-8-8zm0 0"/></svg>