<svg height="480pt" viewBox="-19 0 480 480.00065" width="480pt" xmlns="http://www.w3.org/2000/svg"><path d="m441.105469 401.992188-96.546875-371.359376-.742188-8.679687c-1.019531-12.460937-11.46875-22.0273438-23.96875-21.953125h-258.558594c-12.511718-.0898438-22.980468 9.480469-24 21.953125l-37.2031245 432c-.5703125 6.699219 1.6914065 13.328125 6.2382815 18.28125 4.546875 4.949219 10.960937 7.769531 17.683593 7.765625h333.121094c6.714844-.007812 13.121094-2.828125 17.660156-7.773438 4.539063-4.949218 6.796876-11.574218 6.226563-18.265624l-1.894531-21.960938h38.726562c7.429688.007812 14.441406-3.425781 18.992188-9.296875 4.546875-5.871094 6.125-13.519531 4.265625-20.710937zm-78.097657 59.433593c-1.503906 1.652344-3.644531 2.589844-5.878906 2.574219h-333.121094c-2.238281.003906-4.375-.933594-5.886718-2.582031-1.511719-1.652344-2.257813-3.859375-2.058594-6.089844l37.195312-432c.347657-4.152344 3.828126-7.34375 8-7.328125h258.589844c4.164063-.015625 7.644532 3.167969 8 7.320312l37.191406 432c.21875 2.230469-.519531 4.449219-2.03125 6.105469zm61.207032-48.5625c-1.523438 1.992188-3.890625 3.152344-6.398438 3.136719h-40.046875l-25.027343-290.269531 72.882812 280.292969c.625 2.375.101562 4.90625-1.410156 6.839843zm0 0"/><path d="m110.566406 88h160c13.257813 0 24-10.746094 24-24s-10.742187-24-24-24h-160c-13.253906 0-24 10.746094-24 24s10.746094 24 24 24zm0-32h160c4.417969 0 8 3.582031 8 8s-3.582031 8-8 8h-160c-4.417968 0-8-3.582031-8-8s3.582032-8 8-8zm0 0"/><path d="m212.039062 177.039062c-4.0625-8.136718-12.375-13.277343-21.472656-13.277343-9.09375 0-17.40625 5.140625-21.46875 13.277343l-94.105468 188.226563c-3.722657 7.4375-3.324219 16.273437 1.046874 23.351563 4.375 7.074218 12.097657 11.382812 20.417969 11.382812h188.222657c8.320312 0 16.042968-4.308594 20.417968-11.382812 4.371094-7.078126 4.765625-15.914063 1.046875-23.351563zm79.441407 203.203126c-1.441407 2.375-4.023438 3.8125-6.800781 3.789062h-188.222657c-2.773437 0-5.347656-1.4375-6.800781-3.792969-1.457031-2.359375-1.589844-5.300781-.351562-7.78125l94.101562-188.257812c1.46875-2.566407 4.203125-4.152344 7.160156-4.152344 2.960938 0 5.691406 1.585937 7.160156 4.152344l94.105469 188.226562c1.269531 2.472657 1.136719 5.433594-.351562 7.78125zm0 0"/><path d="m173.769531 297.863281c1.015625 8.066407 7.867188 14.121094 16 14.136719h1.597657c8.128906-.015625 14.984374-6.070312 16-14.136719l5.121093-41c.789063-6.292969-1.167969-12.621093-5.367187-17.375-4.3125-4.558593-10.3125-7.136719-16.585938-7.136719-6.273437 0-12.269531 2.578126-16.582031 7.136719-4.203125 4.753907-6.15625 11.082031-5.371094 17.375zm12.238281-47.789062c1.777344-2.011719 4.65625-2.628907 7.101563-1.527344 2.449219 1.097656 3.894531 3.664063 3.570313 6.324219l-5.128907 41c.007813.046875-.015625.09375-.054687.121094-.035156.027343-.085938.027343-.128906.007812l-1.773438-.121094-5.105469-41c-.222656-1.742187.320313-3.496094 1.488281-4.804687zm0 0"/><path d="m190.566406 320c-13.253906 0-24 10.746094-24 24s10.746094 24 24 24c13.257813 0 24-10.746094 24-24s-10.742187-24-24-24zm0 32c-4.417968 0-8-3.582031-8-8s3.582032-8 8-8c4.417969 0 8 3.582031 8 8s-3.582031 8-8 8zm0 0"/></svg>