<svg height="467pt" viewBox="0 0 467 467.57831" width="467pt" xmlns="http://www.w3.org/2000/svg"><path d="m143.078125 109.828125c-3.171875-3.003906-8.136719-3.003906-11.308594 0l-33.945312 33.933594c-15.59375 15.632812-15.59375 40.9375 0 56.570312l62.230469 62.230469-152.734376 152.734375c-9.375 9.375-9.375 24.574219 0 33.945313l11.3125 11.3125c1.148438 1.148437 2.40625 2.175781 3.757813 3.070312 3.921875 2.582031 8.515625 3.957031 13.210937 3.953125 4.695313.003906 9.289063-1.375 13.207032-3.960937 1.355468-.894532 2.617187-1.921876 3.765625-3.070313l79.203125-79.199219 73.535156-73.546875 62.230469 62.234375c15.632812 15.59375 40.9375 15.59375 56.570312 0l33.925781-33.9375c3.125-3.125 3.125-8.1875 0-11.3125zm-124.445313 328.09375c-1.503906-1.5-2.347656-3.535156-2.347656-5.660156 0-2.121094.84375-4.160157 2.347656-5.660157l5.65625-5.65625 22.632813 22.632813-5.65625 5.65625c-1.503906 1.503906-3.539063 2.347656-5.660156 2.347656-2.125 0-4.160157-.84375-5.660157-2.347656zm39.597657-5.65625-22.628907-22.632813 11.320313-11.308593 22.621094 22.621093zm22.625-22.632813-22.625-22.621093 11.3125-11.3125 22.625 22.625zm22.625-22.621093-22.625-22.625 11.3125-11.320313 22.632812 22.632813zm22.632812-22.625-22.632812-22.632813 67.886719-67.878906 22.625 22.625zm186.671875-5.65625c-9.375 9.367187-24.566406 9.367187-33.9375 0l-169.710937-169.710938c-9.371094-9.375-9.371094-24.566406 0-33.9375l5.664062-5.65625 203.640625 203.640625zm16.976563-16.976563-203.648438-203.648437 11.3125-11.3125 203.644531 203.648437zm0 0"/><path d="m163.769531 104.097656c2.121094 0 4.15625-.84375 5.65625-2.34375l56-56c2.078125-2.007812 2.910157-4.984375 2.179688-7.78125s-2.917969-4.980468-5.714844-5.710937c-2.796875-.734375-5.769531.101562-7.777344 2.179687l-56 56c-2.289062 2.289063-2.972656 5.730469-1.734375 8.71875 1.238282 2.988282 4.152344 4.9375 7.390625 4.9375zm0 0"/><path d="m243.769531 24.097656c2.121094 0 4.15625-.84375 5.65625-2.34375l8-8c2.078125-2.007812 2.910157-4.984375 2.179688-7.78125s-2.917969-4.980468-5.714844-5.710937c-2.796875-.734375-5.769531.101562-7.777344 2.179687l-8 8c-2.289062 2.289063-2.972656 5.730469-1.734375 8.71875 1.238282 2.988282 4.152344 4.9375 7.390625 4.9375zm0 0"/><path d="m262.113281 205.753906c3.121094 3.125 8.1875 3.125 11.3125 0l104-104c3.03125-3.136718 2.988281-8.128906-.097656-11.214844-3.085937-3.085937-8.078125-3.128906-11.214844-.097656l-104 104c-3.125 3.125-3.125 8.1875 0 11.3125zm0 0"/><path d="m395.769531 80.097656c2.121094 0 4.15625-.84375 5.65625-2.34375l24-24c2.078125-2.007812 2.910157-4.984375 2.179688-7.78125s-2.917969-4.980468-5.714844-5.710937c-2.796875-.734375-5.769531.101562-7.777344 2.179687l-24 24c-2.289062 2.289063-2.972656 5.730469-1.734375 8.71875 1.238282 2.988282 4.152344 4.9375 7.390625 4.9375zm0 0"/><path d="m406.113281 258.441406-40 40c-2.082031 2.007813-2.914062 4.984375-2.183593 7.78125.734374 2.796875 2.917968 4.980469 5.714843 5.714844 2.796875.730469 5.769531-.105469 7.78125-2.183594l40-40c3.03125-3.136718 2.988281-8.128906-.097656-11.214844-3.085937-3.085937-8.078125-3.128906-11.214844-.097656zm0 0"/><path d="m446.113281 218.441406-16 16c-2.082031 2.007813-2.914062 4.984375-2.183593 7.78125.734374 2.796875 2.917968 4.980469 5.714843 5.714844 2.796875.730469 5.769531-.105469 7.78125-2.183594l16-16c3.03125-3.136718 2.988281-8.128906-.097656-11.214844-3.085937-3.085937-8.078125-3.128906-11.214844-.097656zm0 0"/><path d="m246.113281 106.441406-32 32c-2.082031 2.007813-2.914062 4.984375-2.183593 7.78125.734374 2.796875 2.917968 4.980469 5.714843 5.714844 2.796875.730469 5.769531-.105469 7.78125-2.183594l32-32c3.03125-3.136718 2.988281-8.128906-.097656-11.214844-3.085937-3.085937-8.078125-3.128906-11.214844-.097656zm0 0"/><path d="m275.769531 96.097656c2.121094 0 4.15625-.84375 5.65625-2.34375l24-24c3.03125-3.136718 2.988281-8.128906-.097656-11.214844-3.085937-3.085937-8.078125-3.128906-11.214844-.097656l-24 24c-2.289062 2.289063-2.972656 5.730469-1.734375 8.71875 1.238282 2.988282 4.152344 4.9375 7.390625 4.9375zm0 0"/><path d="m323.769531 48.097656c2.121094 0 4.15625-.84375 5.65625-2.34375l24-24c2.078125-2.007812 2.910157-4.984375 2.179688-7.78125s-2.917969-4.980468-5.714844-5.710937c-2.796875-.734375-5.769531.101562-7.777344 2.179687l-24 24c-2.289062 2.289063-2.972656 5.730469-1.734375 8.71875 1.238282 2.988282 4.152344 4.9375 7.390625 4.9375zm0 0"/><path d="m425.425781 154.441406c-3.125-3.121094-8.191406-3.121094-11.3125 0l-96 96c-2.082031 2.007813-2.914062 4.984375-2.183593 7.78125.734374 2.796875 2.917968 4.980469 5.714843 5.714844 2.796875.730469 5.769531-.105469 7.78125-2.183594l96-96c3.121094-3.125 3.121094-8.1875 0-11.3125zm0 0"/><path d="m465.425781 114.441406c-3.125-3.121094-8.191406-3.121094-11.3125 0l-16 16c-2.082031 2.007813-2.914062 4.984375-2.183593 7.78125.734374 2.796875 2.917968 4.980469 5.714843 5.714844 2.796875.730469 5.769531-.105469 7.78125-2.183594l16-16c3.121094-3.125 3.121094-8.1875 0-11.3125zm0 0"/></svg>