<svg height="480pt" viewBox="0 -72 480 480" width="480pt" xmlns="http://www.w3.org/2000/svg"><path d="m440 112.050781h-99.039062l26.773437-101.96875c.632813-2.398437.113281-4.953125-1.402344-6.917969-1.511719-1.964843-3.851562-3.1132808-6.332031-3.1132808-12.347656-.04687495-24.515625 2.9765628-35.40625 8.7968748-8.761719 4.800782-18.605469 7.277344-28.59375 7.203125-8.476562.484375-16.871094-1.917969-23.808594-6.816406-9.457031-6.457031-20.75-9.675781-32.191406-9.1835938-11.441406-.4921872-22.734375 2.7265628-32.191406 9.1835938-6.9375 4.898437-15.332032 7.300781-23.808594 6.816406-9.988281.074219-19.832031-2.402343-28.59375-7.203125-10.890625-5.820312-23.058594-8.84374975-35.40625-8.7968748-2.476562-.0039062-4.816406 1.1445308-6.332031 3.1054688s-2.035157 4.511719-1.410157 6.910156l26.574219 101.984375h-98.832031c-22.082031.023438-39.9726562 17.917969-40 40v176c0 4.417969 3.582031 8 8 8h464c4.417969 0 8-3.582031 8-8v-176c-.027344-22.082031-17.917969-39.976562-40-40zm-291.40625-88.761719c10.894531 5.804688 23.058594 8.816407 35.40625 8.761719 11.441406.488281 22.734375-2.730469 32.191406-9.1875 6.9375-4.898437 15.332032-7.300781 23.808594-6.8125 8.476562-.488281 16.871094 1.914063 23.808594 6.8125 9.457031 6.457031 20.75 9.675781 32.191406 9.1875 12.347656.042969 24.515625-2.980469 35.40625-8.800781 5.664062-2.984375 11.722656-5.140625 17.992188-6.402344l-35.496094 135.203125h-39.65625l13.515625-54.058593c1.035156-4.269532-1.566407-8.578126-5.832031-9.648438-4.265626-1.066406-8.589844 1.503906-9.691407 5.761719l-14.484375 57.945312h-35.507812l-14.484375-57.945312c-1.101563-4.257813-5.425781-6.828125-9.691407-5.761719-4.265624 1.070312-6.867187 5.378906-5.832031 9.648438l13.515625 54.058593h-40l-35.203125-135.152343c6.289063 1.253906 12.363281 3.40625 18.042969 6.390624zm-108.59375 104.761719h103l6.246094 24h-29.246094c-4.417969 0-8 3.578125-8 8 0 4.417969 3.582031 8 8 8h240c4.417969 0 8-3.582031 8-8 0-4.421875-3.582031-8-8-8h-29.550781l6.304687-24h103.246094c13.253906 0 24 10.742188 24 24v120h-448v-120c0-13.257812 10.746094-24 24-24zm424 192h-448v-32h448zm0 0"/></svg>