<svg height="480pt" viewBox="0 -40 480 480" width="480pt" xmlns="http://www.w3.org/2000/svg"><path d="m456 216h-440c-4.417969 0-8 3.582031-8 8v16c0 4.417969 3.582031 8 8 8h440c8.835938 0 16-7.164062 16-16s-7.164062-16-16-16zm0 0" fill="#ff9811"/><path d="m296 248-3.519531 16-25.679688 115.441406c-1.632812 7.3125-8.105469 12.527344-15.601562 12.558594h-182.398438c-7.496093-.03125-13.96875-5.246094-15.601562-12.558594l-25.679688-115.441406-3.519531-16zm0 0" fill="#ffa733"/><path d="m160 104c-75.113281 0-136 50.144531-136 112h272c0-61.855469-60.886719-112-136-112zm0 0" fill="#e6e7e8"/><path d="m296 248-3.519531 16h-264.960938l-3.519531-16zm0 0" fill="#ff9811"/><path d="m456 208h-152.488281c-4.976563-62.398438-67.351563-112-143.511719-112s-138.535156 49.601562-143.511719 112h-.488281c-8.835938 0-16 7.164062-16 16v16c0 8.835938 7.164062 16 16 16h1.601562l27.804688 125.207031c2.390625 11 12.140625 18.832031 23.394531 18.792969h182.398438c11.265625.050781 21.035156-7.78125 23.425781-18.792969l27.773438-125.207031h153.601562c13.253906 0 24-10.746094 24-24s-10.746094-24-24-24zm-296-96c67.265625 0 122.585938 42.398438 127.625 96h-255.25c5.039062-53.601562 60.359375-96 127.625-96zm98.976562 265.734375c-.796874 3.660156-4.035156 6.269531-7.777343 6.265625h-182.398438c-3.757812.015625-7.011719-2.59375-7.808593-6.265625l-27.015626-121.734375h252.046876zm197.023438-137.734375h-440v-16h440c4.417969 0 8 3.582031 8 8s-3.582031 8-8 8zm0 0"/><path d="m98.320312 146.320312c-3.105468 3.128907-3.09375 8.183594.03125 11.296876 3.121094 3.113281 8.175782 3.113281 11.296876 0 3.125-3.113282 3.136718-8.167969.03125-11.296876-3.214844-2.941406-8.144532-2.941406-11.359376 0zm0 0"/><path d="m178.320312 130.320312c-3.105468 3.128907-3.09375 8.183594.03125 11.296876 3.121094 3.113281 8.175782 3.113281 11.296876 0 3.125-3.113282 3.136718-8.167969.03125-11.296876-3.214844-2.941406-8.144532-2.941406-11.359376 0zm0 0"/><path d="m154.320312 178.320312c-3.105468 3.128907-3.09375 8.183594.03125 11.296876 3.121094 3.113281 8.175782 3.113281 11.296876 0 3.125-3.113282 3.136718-8.167969.03125-11.296876-3.214844-2.941406-8.144532-2.941406-11.359376 0zm0 0"/><path d="m234.320312 178.320312c-3.105468 3.128907-3.09375 8.183594.03125 11.296876 3.121094 3.113281 8.175782 3.113281 11.296876 0 3.125-3.113282 3.136718-8.167969.03125-11.296876-3.214844-2.941406-8.144532-2.941406-11.359376 0zm0 0"/><path d="m360 120c4.417969 0 8-3.582031 8-8v-8c0-4.417969-3.582031-8-8-8s-8 3.582031-8 8v8c0 4.417969 3.582031 8 8 8zm0 0"/><path d="m337.375 124.6875c3.140625 3.03125 8.128906 2.988281 11.214844-.097656 3.085937-3.085938 3.128906-8.074219.097656-11.214844l-5.664062-5.664062c-3.136719-3.03125-8.128907-2.988282-11.214844.097656-3.085938 3.085937-3.128906 8.078125-.097656 11.214844zm0 0"/><path d="m328 144h8c4.417969 0 8-3.582031 8-8s-3.582031-8-8-8h-8c-4.417969 0-8 3.582031-8 8s3.582031 8 8 8zm0 0"/><path d="m337.375 147.3125-5.664062 5.664062c-2.078126 2.007813-2.914063 4.984376-2.179688 7.78125.730469 2.796876 2.914062 4.980469 5.710938 5.710938 2.796874.734375 5.773437-.101562 7.78125-2.179688l5.664062-5.664062c3.03125-3.140625 2.988281-8.128906-.097656-11.214844-3.085938-3.085937-8.074219-3.128906-11.214844-.097656zm0 0"/><path d="m360 176c4.417969 0 8-3.582031 8-8v-8c0-4.417969-3.582031-8-8-8s-8 3.582031-8 8v8c0 4.417969 3.582031 8 8 8zm0 0"/><path d="m376.976562 164.289062c3.136719 3.03125 8.128907 2.988282 11.214844-.097656 3.085938-3.085937 3.128906-8.078125.097656-11.214844l-5.664062-5.664062c-3.140625-3.03125-8.128906-2.988281-11.214844.097656-3.085937 3.085938-3.128906 8.074219-.097656 11.214844zm0 0"/><path d="m376 136c0 4.417969 3.582031 8 8 8h8c4.417969 0 8-3.582031 8-8s-3.582031-8-8-8h-8c-4.417969 0-8 3.582031-8 8zm0 0"/><path d="m376.96875 127.03125c2.121094 0 4.15625-.84375 5.65625-2.34375l5.664062-5.664062c3.03125-3.136719 2.988282-8.128907-.097656-11.214844-3.085937-3.085938-8.078125-3.128906-11.214844-.097656l-5.664062 5.664062c-2.289062 2.289062-2.972656 5.730469-1.734375 8.71875s4.15625 4.9375 7.390625 4.9375zm0 0"/><path d="m48 24c4.417969 0 8-3.582031 8-8v-8c0-4.417969-3.582031-8-8-8s-8 3.582031-8 8v8c0 4.417969 3.582031 8 8 8zm0 0"/><path d="m25.375 28.6875c2.007812 2.082031 4.984375 2.914062 7.78125 2.183594 2.796875-.734375 4.980469-2.917969 5.714844-5.714844.730468-2.796875-.101563-5.773438-2.183594-7.78125l-5.664062-5.664062c-2.007813-2.078126-4.984376-2.914063-7.78125-2.179688-2.796876.730469-4.980469 2.914062-5.710938 5.710938-.734375 2.796874.101562 5.773437 2.179688 7.78125zm0 0"/><path d="m16 48h8c4.417969 0 8-3.582031 8-8s-3.582031-8-8-8h-8c-4.417969 0-8 3.582031-8 8s3.582031 8 8 8zm0 0"/><path d="m25.375 51.3125-5.664062 5.664062c-2.078126 2.007813-2.914063 4.984376-2.179688 7.78125.730469 2.796876 2.914062 4.980469 5.710938 5.710938 2.796874.734375 5.773437-.101562 7.78125-2.179688l5.664062-5.664062c2.082031-2.007812 2.914062-4.984375 2.183594-7.78125-.734375-2.796875-2.917969-4.980469-5.714844-5.714844-2.796875-.730468-5.773438.101563-7.78125 2.183594zm0 0"/><path d="m48 80c4.417969 0 8-3.582031 8-8v-8c0-4.417969-3.582031-8-8-8s-8 3.582031-8 8v8c0 4.417969 3.582031 8 8 8zm0 0"/><path d="m64.976562 68.289062c2.007813 2.078126 4.984376 2.914063 7.78125 2.179688 2.796876-.730469 4.980469-2.914062 5.710938-5.710938.734375-2.796874-.101562-5.773437-2.179688-7.78125l-5.664062-5.664062c-2.007812-2.082031-4.984375-2.914062-7.78125-2.183594-2.796875.734375-4.980469 2.917969-5.714844 5.714844-.730468 2.796875.101563 5.773438 2.183594 7.78125zm0 0"/><path d="m64 40c0 4.417969 3.582031 8 8 8h8c4.417969 0 8-3.582031 8-8s-3.582031-8-8-8h-8c-4.417969 0-8 3.582031-8 8zm0 0"/><path d="m64.96875 31.03125c2.121094 0 4.15625-.84375 5.65625-2.34375l5.664062-5.664062c2.078126-2.007813 2.914063-4.984376 2.179688-7.78125-.730469-2.796876-2.914062-4.980469-5.710938-5.710938-2.796874-.734375-5.773437.101562-7.78125 2.179688l-5.664062 5.664062c-2.289062 2.289062-2.972656 5.730469-1.734375 8.71875s4.15625 4.9375 7.390625 4.9375zm0 0"/><path d="m216 40c4.417969 0 8-3.582031 8-8v-8c0-4.417969-3.582031-8-8-8s-8 3.582031-8 8v8c0 4.417969 3.582031 8 8 8zm0 0"/><path d="m192 56h8c4.417969 0 8-3.582031 8-8s-3.582031-8-8-8h-8c-4.417969 0-8 3.582031-8 8s3.582031 8 8 8zm0 0"/><path d="m216 56c-4.417969 0-8 3.582031-8 8v8c0 4.417969 3.582031 8 8 8s8-3.582031 8-8v-8c0-4.417969-3.582031-8-8-8zm0 0"/><path d="m232 56h8c4.417969 0 8-3.582031 8-8s-3.582031-8-8-8h-8c-4.417969 0-8 3.582031-8 8s3.582031 8 8 8zm0 0"/></svg>