<svg height="448pt" viewBox="0 0 448 448" width="448pt" xmlns="http://www.w3.org/2000/svg"><path d="m408 240c-.011719 100.136719-74.078125 184.832031-173.320312 198.191406-99.242188 13.359375-193.066407-48.738281-219.554688-145.308594-26.488281-96.570312 22.523438-197.84375 114.691406-236.988281 92.171875-39.144531 199.085938-4.09375 250.183594 82.027344 18.332031 30.894531 28.003906 66.15625 28 102.078125zm0 0" fill="#e6e7e8"/><path d="m408 240c.007812 77.578125-44.851562 148.164062-115.089844 181.101562-70.242187 32.933594-153.195312 22.277344-212.832031-27.339843 93.042969-42.242188 214.480469-119.683594 299.921875-255.839844 18.363281 30.878906 28.039062 66.148437 28 102.078125zm0 0" fill="#d1d3d4"/><path d="m320 240c0 61.855469-50.144531 112-112 112s-112-50.144531-112-112 50.144531-112 112-112 112 50.144531 112 112zm0 0" fill="#bcbec0"/><path d="m48 48c0 8.835938-7.164062 16-16 16s-16-7.164062-16-16 7.164062-16 16-16 16 7.164062 16 16zm0 0" fill="#78b9eb"/><path d="m208 32c-114.875 0-208 93.125-208 208s93.125 208 208 208 208-93.125 208-208c-.132812-114.820312-93.179688-207.867188-208-208zm0 400c-106.039062 0-192-85.960938-192-192s85.960938-192 192-192 192 85.960938 192 192c-.125 105.988281-86.011719 191.875-192 192zm0 0"/><path d="m208 120c-66.273438 0-120 53.726562-120 120s53.726562 120 120 120 120-53.726562 120-120c-.074219-66.242188-53.757812-119.925781-120-120zm0 224c-57.4375 0-104-46.5625-104-104s46.5625-104 104-104 104 46.5625 104 104c-.066406 57.410156-46.589844 103.933594-104 104zm0 0"/><path d="m376.910156 190.398438c-2.628906-8.980469-5.980468-17.738282-10.015625-26.183594-1.117187-2.757813-3.675781-4.664063-6.636719-4.953125-2.960937-.289063-5.839843 1.089843-7.46875 3.578125-1.628906 2.492187-1.742187 5.679687-.292968 8.28125 3.664062 7.671875 6.710937 15.625 9.105468 23.78125.992188 3.414062 4.117188 5.757812 7.671876 5.761718.761718-.003906 1.523437-.113281 2.253906-.328124 4.226562-1.261719 6.636718-5.707032 5.382812-9.9375zm0 0"/><path d="m352.472656 139.457031c-21.183594-30.261719-51.265625-53.167969-86.074218-65.535156-4.167969-1.464844-8.734376.726563-10.199219 4.894531-1.464844 4.167969.726562 8.734375 4.898437 10.199219 31.644532 11.242187 59 32.070313 78.253906 59.585937 2.550782 3.558594 7.484376 4.410157 11.078126 1.90625 3.59375-2.503906 4.503906-7.425781 2.050781-11.050781zm0 0"/><path d="m32 72c13.253906 0 24-10.746094 24-24s-10.746094-24-24-24-24 10.746094-24 24 10.746094 24 24 24zm0-32c4.417969 0 8 3.582031 8 8s-3.582031 8-8 8-8-3.582031-8-8 3.582031-8 8-8zm0 0"/><path d="m96 128c4.417969 0 8-3.582031 8-8v-8c0-4.417969-3.582031-8-8-8s-8 3.582031-8 8v8c0 4.417969 3.582031 8 8 8zm0 0"/><path d="m80 128h-8c-4.417969 0-8 3.582031-8 8s3.582031 8 8 8h8c4.417969 0 8-3.582031 8-8s-3.582031-8-8-8zm0 0"/><path d="m96 144c-4.417969 0-8 3.582031-8 8v8c0 4.417969 3.582031 8 8 8s8-3.582031 8-8v-8c0-4.417969-3.582031-8-8-8zm0 0"/><path d="m112 144h8c4.417969 0 8-3.582031 8-8s-3.582031-8-8-8h-8c-4.417969 0-8 3.582031-8 8s3.582031 8 8 8zm0 0"/><path d="m408 24c4.417969 0 8-3.582031 8-8v-8c0-4.417969-3.582031-8-8-8s-8 3.582031-8 8v8c0 4.417969 3.582031 8 8 8zm0 0"/><path d="m385.375 28.6875c3.140625 3.03125 8.128906 2.988281 11.214844-.097656 3.085937-3.085938 3.128906-8.074219.097656-11.214844l-5.664062-5.664062c-3.136719-3.03125-8.128907-2.988282-11.214844.097656-3.085938 3.085937-3.128906 8.078125-.097656 11.214844zm0 0"/><path d="m376 48h8c4.417969 0 8-3.582031 8-8s-3.582031-8-8-8h-8c-4.417969 0-8 3.582031-8 8s3.582031 8 8 8zm0 0"/><path d="m385.375 51.3125-5.664062 5.664062c-2.078126 2.007813-2.914063 4.984376-2.179688 7.78125.730469 2.796876 2.914062 4.980469 5.710938 5.710938 2.796874.734375 5.773437-.101562 7.78125-2.179688l5.664062-5.664062c2.082031-2.007812 2.914062-4.984375 2.183594-7.78125-.734375-2.796875-2.917969-4.980469-5.714844-5.714844-2.796875-.730468-5.773438.101563-7.78125 2.183594zm0 0"/><path d="m408 80c4.417969 0 8-3.582031 8-8v-8c0-4.417969-3.582031-8-8-8s-8 3.582031-8 8v8c0 4.417969 3.582031 8 8 8zm0 0"/><path d="m430.625 51.3125c-2.007812-2.082031-4.984375-2.914062-7.78125-2.183594-2.796875.734375-4.980469 2.917969-5.714844 5.714844-.730468 2.796875.101563 5.773438 2.183594 7.78125l5.664062 5.664062c2.007813 2.078126 4.984376 2.914063 7.78125 2.179688 2.796876-.730469 4.980469-2.914062 5.710938-5.710938.734375-2.796874-.101562-5.773437-2.179688-7.78125zm0 0"/><path d="m440 32h-8c-4.417969 0-8 3.582031-8 8s3.582031 8 8 8h8c4.417969 0 8-3.582031 8-8s-3.582031-8-8-8zm0 0"/><path d="m424.96875 31.03125c2.121094 0 4.15625-.84375 5.65625-2.34375l5.664062-5.664062c3.03125-3.136719 2.988282-8.128907-.097656-11.214844-3.085937-3.085938-8.078125-3.128906-11.214844-.097656l-5.664062 5.664062c-2.289062 2.289062-2.972656 5.730469-1.734375 8.71875s4.15625 4.9375 7.390625 4.9375zm0 0"/><path d="m392 384v8c0 4.417969 3.582031 8 8 8s8-3.582031 8-8v-8c0-4.417969-3.582031-8-8-8s-8 3.582031-8 8zm0 0"/><path d="m384 400h-8c-4.417969 0-8 3.582031-8 8s3.582031 8 8 8h8c4.417969 0 8-3.582031 8-8s-3.582031-8-8-8zm0 0"/><path d="m400 416c-4.417969 0-8 3.582031-8 8v8c0 4.417969 3.582031 8 8 8s8-3.582031 8-8v-8c0-4.417969-3.582031-8-8-8zm0 0"/><path d="m424 400h-8c-4.417969 0-8 3.582031-8 8s3.582031 8 8 8h8c4.417969 0 8-3.582031 8-8s-3.582031-8-8-8zm0 0"/></svg>