<svg height="485pt" viewBox="0 -36 485.26724 485" width="485pt" xmlns="http://www.w3.org/2000/svg"><path d="m369.367188 108.625-24-41.597656-27.761719 16-.984375.566406 26.570312 44.28125zm0 0" fill="#ff9811"/><path d="m241.207031 202.867188-26 19.121093c6.507813 5.527344 12.335938 11.8125 17.359375 18.71875 1.96875 2.695313 3.785156 5.5 5.4375 8.398438 23.816406 41.324219 16.476563 93.546875-17.8125 126.699219-34.285156 33.152343-86.730468 38.734374-127.226562 13.542968-.320313-.160156-.640625-.402344-.960938-.5625-30.605468-19.558594-48.800781-53.664062-48-89.980468.800782-36.316407 20.480469-69.585938 51.921875-87.777344l220.71875-127.441406 26.5625 44.320312-72.402343 53.199219zm0 0" fill="#ffb655"/><path d="m131.925781 273.394531c-15.304687 8.835938-20.550781 28.40625-11.714843 43.714844 8.839843 15.304687 28.410156 20.546875 43.714843 11.710937 15.304688-8.835937 20.550781-28.410156 11.710938-43.714843-8.835938-15.304688-28.40625-20.546875-43.710938-11.710938zm0 0" fill="#ff9811"/><path d="m238.003906 249.105469c23.816406 41.324219 16.476563 93.546875-17.8125 126.699219-34.285156 33.152343-86.730468 38.734374-127.226562 13.542968 67.121094-25.136718 118.71875-80.078125 139.601562-148.640625 1.96875 2.695313 3.785156 5.5 5.4375 8.398438zm0 0" fill="#ffa733"/><path d="m352.269531 63.035156c-2.207031-3.828125-7.101562-5.136718-10.929687-2.929687l-249.414063 144c-31.6875 18.273437-52.378906 50.945312-55.359375 87.402343l-24.570312 14.167969c-11.464844 6.640625-15.402344 21.308594-8.796875 32.796875l36 62.355469c3.179687 5.515625 8.421875 9.546875 14.574219 11.195313 6.152343 1.652343 12.707031.789062 18.222656-2.398438l20-11.550781c43.890625 25.390625 99.367187 18.105469 135.214844-17.75 35.847656-35.859375 43.117187-91.335938 17.714843-135.21875-4.738281-8.171875-10.507812-15.699219-17.167969-22.398438l146.328126-107.65625c3.257812-2.414062 4.195312-6.882812 2.183593-10.402343zm-288.265625 332.710938c-3.824218 2.210937-8.71875.898437-10.925781-2.929688l-36-62.351562c-1.070313-1.839844-1.363281-4.03125-.816406-6.085938.550781-2.058594 1.898437-3.8125 3.742187-4.871094l16.28125-9.402343c0 .21875.074219.433593.097656.65625.304688 3.585937.800782 7.136719 1.4375 10.671875.144532.800781.320313 1.542968.480469 2.320312.664063 3.199219 1.457031 6.402344 2.402344 9.542969.132813.457031.238281.914063.382813 1.363281 1.078124 3.4375 2.398437 6.804688 3.785156 10.140625.34375.800781.695312 1.601563 1.054687 2.402344 1.496094 3.304687 3.105469 6.566406 4.929688 9.742187l.070312.160157c2.042969 3.492187 4.277344 6.867187 6.6875 10.113281.726563 1 1.511719 1.953125 2.273438 2.925781 1.800781 2.289063 3.683593 4.503907 5.648437 6.648438.878906.953125 1.734375 1.90625 2.648438 2.824219 2.433594 2.46875 4.980468 4.832031 7.636718 7.082031.433594.367187.800782.800781 1.28125 1.136719l.230469.207031zm146.042969-167.664063c38.464844 32.652344 45.054687 89.523438 15.078125 130.109375-29.976562 40.589844-86.269531 51.011719-128.792969 23.851563-3.253906-2.066407-6.382812-4.328125-9.367187-6.769531-8.921875-7.300782-16.433594-16.167969-22.175782-26.167969-1.152343-1.992188-2.230468-4-3.199218-6.078125-5.996094-12.292969-9.269532-25.730469-9.601563-39.402344-.058593-2.269531-.03125-4.546875.082031-6.832031 1.394532-32.738281 19.453126-62.484375 47.855469-78.832031l214.777344-124 18.191406 31.519531-122.417969 90.027343c-1.96875 1.449219-3.167968 3.722657-3.25 6.164063-.085937 2.445313.953126 4.796875 2.820313 6.378906zm135.816406-112.136719-17.304687-29.984374 13.855468-8 16.414063 28.441406zm0 0"/><path d="m158.277344 262.472656c-18.433594-4.9375-37.789063 3.835938-46.226563 20.953125-8.4375 17.113281-3.609375 37.808594 11.53125 49.421875 15.140625 11.617188 36.378907 10.917969 50.722657-1.664062 14.347656-12.585938 17.804687-33.550782 8.261718-50.078125-5.28125-9.207031-14.027344-15.917969-24.289062-18.632813zm12.800781 44.839844c-2.960937 11.0625-13.324219 18.492188-24.75 17.746094-11.425781-.75-20.730469-9.460938-22.226563-20.8125-1.496093-11.355469 5.234376-22.183594 16.074219-25.863282 10.84375-3.683593 22.777344.808594 28.503907 10.722657 3.214843 5.5 4.09375 12.054687 2.445312 18.207031zm0 0"/><path d="m477.101562 9.714844c-5.621093-5.0625-13.34375-7.097656-20.726562-5.457032-11.203125 2.386719-19.183594 12.316407-19.105469 23.769532.078125 2.816406 1.632813 5.386718 4.09375 6.761718 2.460938 1.375 5.464844 1.351563 7.90625-.058593 2.445313-1.285157 3.980469-3.8125 4-6.574219-.160156-3.921875 2.546875-7.378906 6.390625-8.164062 3.839844-.785157 7.6875 1.328124 9.082032 4.996093 1.394531 3.664063-.078126 7.800781-3.472657 9.765625l-48.496093 28c-3.824219 2.210938-5.136719 7.101563-2.925782 10.929688 2.207032 3.824218 7.101563 5.136718 10.925782 2.925781l48.503906-28c6.699218-3.886719 11.117187-10.761719 11.875-18.46875.757812-7.707031-2.238282-15.308594-8.050782-20.425781zm0 0"/><path d="m407.695312 31.035156-34.640624 20c-3.828126 2.207032-5.136719 7.101563-2.929688 10.925782 2.210938 3.828124 7.101562 5.136718 10.929688 2.929687l33.597656-19.390625c4.894531-2.660156 8.792968-6.839844 11.105468-11.90625 3.847657-8.972656 1.878907-19.382812-4.984374-26.328125-6.863282-6.945313-17.25-9.042969-26.269532-5.300781-9.019531 3.742187-14.871094 12.578125-14.800781 22.339844.082031 2.816406 1.640625 5.378906 4.101563 6.75 2.457031 1.371093 5.457031 1.347656 7.898437-.058594 2.441406-1.289063 3.976563-3.816406 4-6.578125-.128906-3.144531 1.597656-6.074219 4.414063-7.484375 2.816406-1.40625 6.199218-1.03125 8.636718.957031 2.441406 1.992187 3.484375 5.230469 2.667969 8.273437-.539063 2.058594-1.882813 3.8125-3.726563 4.871094zm0 0"/></svg>