<svg height="480pt" viewBox="0 0 480 480" width="480pt" xmlns="http://www.w3.org/2000/svg"><path d="m40 344h144l32 128v-144c0-8.835938-7.164062-16-16-16h-176c-8.835938 0-16 7.164062-16 16v144zm0 0" fill="#ff9811"/><path d="m40 344-24 96h192l-24-96zm0 0" fill="#ffa733"/><path d="m128 232c0-8.835938-7.164062-16-16-16s-16 7.164062-16 16v80h32zm0 0" fill="#ee8700"/><path d="m208 440h-192l-8 32h208zm0 0" fill="#ffc477"/><path d="m248 424v48h224v-48zm0 0" fill="#e6e7e8"/><path d="m265.121094 344-17.121094 80h224l-17.121094-80zm0 0" fill="#d1d3d4"/><path d="m449.359375 318.320312c-.792969-3.6875-4.050781-6.320312-7.824219-6.320312h-163.070312c-3.773438 0-7.03125 2.632812-7.824219 6.320312l-5.519531 25.679688h189.757812zm0 0" fill="#ffa733"/><path d="m384 280h-48v32h48zm0 0" fill="#754c29"/><path d="m376 24c0-8.835938-7.164062-16-16-16s-16 7.164062-16 16v256h32zm0 0" fill="#8b5e3c"/><path d="m96 296h32v16h-32zm0 0" fill="#d47800"/><path d="m336 296h48v16h-48zm0 0" fill="#603913"/><path d="m344 256h32v24h-32zm0 0" fill="#80542d"/><path d="m200 304h-64v-72c0-13.253906-10.746094-24-24-24s-24 10.746094-24 24v72h-64c-13.253906 0-24 10.746094-24 24v144c.0429688.316406.109375.628906.191406.9375.046875.449219.132813.894531.265625 1.328125.207031.679687.511719 1.328125.894531 1.925781.152344.234375.175782.511719.34375.730469.167969.214844.242188.15625.335938.269531.539062.597656 1.164062 1.105469 1.855469 1.511719.257812.191406.523437.367187.800781.527344 1.035156.496093 2.164062.757812 3.3125.769531h208c1.152344-.019531 2.285156-.292969 3.320312-.800781.277344-.15625.542969-.335938.800782-.527344.695312-.402344 1.324218-.914063 1.863281-1.511719.09375-.113281.246094-.152344.335937-.273437.40625-.886719.820313-1.773438 1.238282-2.65625.132812-.429688.222656-.875.265625-1.328125.078125-.296875.136719-.597656.175781-.902344v-144c0-13.253906-10.746094-24-24-24zm-96-72c0-4.417969 3.582031-8 8-8s8 3.582031 8 8v72h-16zm-80 88h176c4.417969 0 8 3.582031 8 8v79.023438l-16.238281-64.96875c-.894531-3.558594-4.09375-6.054688-7.761719-6.054688h-144c-3.667969 0-6.867188 2.496094-7.761719 6.054688l-16.238281 64.96875v-79.023438c0-4.417969 3.582031-8 8-8zm173.753906 112h-171.507812l20-80h131.507812zm-179.507812 32 4-16h179.507812l4 16zm0 0"/><path d="m479.816406 423.070312c0-.253906.054688-.496093 0-.742187l-22.640625-105.695313c-1.617187-7.351562-8.113281-12.597656-15.640625-12.632812h-49.535156v-24c0-4.417969-3.582031-8-8-8v-248c0-13.253906-10.746094-24-24-24s-24 10.746094-24 24v248c-4.417969 0-8 3.582031-8 8v24h-49.535156c-7.53125.035156-14.027344 5.285156-15.640625 12.640625l-22.648438 105.6875c-.046875.246094.039063.488281 0 .742187-.074219.308594-.132812.617188-.175781.929688v48c0 4.417969 3.582031 8 8 8h224c4.417969 0 8-3.582031 8-8v-48c-.046875-.3125-.105469-.621094-.183594-.929688zm-17.703125-7.070312h-204.226562l13.722656-64h176.796875zm-110.113281-392c0-4.417969 3.582031-8 8-8s8 3.582031 8 8v248h-16zm-8 264h32v16h-32zm97.535156 32 3.433594 16h-169.9375l3.433594-16zm22.464844 144h-16v-16c0-4.417969-3.582031-8-8-8s-8 3.582031-8 8v16h-16v-16c0-4.417969-3.582031-8-8-8s-8 3.582031-8 8v16h-16v-16c0-4.417969-3.582031-8-8-8s-8 3.582031-8 8v16h-16v-16c0-4.417969-3.582031-8-8-8s-8 3.582031-8 8v16h-16v-16c0-4.417969-3.582031-8-8-8s-8 3.582031-8 8v16h-16v-16c0-4.417969-3.582031-8-8-8s-8 3.582031-8 8v16h-16v-32h208zm0 0"/></svg>