<svg height="480pt" viewBox="0 -32 480.00004 480" width="480pt" xmlns="http://www.w3.org/2000/svg"><path d="m391.761719 202.640625 24.238281-66.640625c-10.007812 0-18.007812 12.800781-28 12.800781s-9.992188-12.800781-20-12.800781-10.023438 12.800781-20 12.800781-18.007812-12.800781-28-12.800781l24.238281 66.640625c15.644531-3.519531 31.878907-3.519531 47.523438 0zm0 0" fill="#57565c"/><path d="m472 312c0 61.839844-42.160156 96-104 96-25.816406 1.0625-51.21875-6.726562-72-22.078125-3.726562-2.996094-7.179688-6.316406-10.320312-9.921875-.320313-.398438-.71875-.800781-1.039063-1.199219-6.804687-8.101562-11.96875-17.449219-15.199219-27.519531 17.316406-24.316406 26.601563-53.429688 26.558594-83.28125-.050781-10.476562-1.097656-20.921875-3.121094-31.199219 13.527344-15.203125 31.496094-25.753906 51.359375-30.160156 15.644531-3.519531 31.878907-3.519531 47.523438 0 11.417969 2.539063 22.285156 7.121094 32.078125 13.519531 31.207031 21.765625 49.320312 57.808594 48.160156 95.839844zm0 0" fill="#787680"/><path d="m295.878906 265.320312c-.726562 79.527344-65.789062 143.410157-145.320312 142.679688-79.527344-.730469-143.40625-65.789062-142.679688-145.320312.59375-64.320313 43.394532-134.085938 101.855469-158.03125 27.929687-11.800782 59.496094-11.511719 87.203125.800781 3.269531 1.382812 6.535156 3.015625 9.71875 4.726562 43.863281 23.441407 76.800781 73.023438 86.398438 123.921875 1.929687 10.292969 2.875 20.75 2.824218 31.222656zm0 0" fill="#898890"/><path d="m472 312c0 61.839844-42.160156 96-104 96-25.816406 1.0625-51.21875-6.726562-72-22.078125-3.726562-2.996094-7.179688-6.316406-10.320312-9.921875-.320313-.398438-.71875-.800781-1.039063-1.199219 69.378906-27.179687 121.265625-86.316406 139.199219-158.640625 31.207031 21.765625 49.320312 57.808594 48.160156 95.839844zm0 0" fill="#6c6a73"/><path d="m195.601562 105.039062 36.398438-97.039062c-18 0-26 27.519531-44 27.519531s-18-27.519531-36-27.519531-18 27.519531-36 27.519531-26-27.519531-44-27.519531l36.398438 97.039062c27.820312-12.050781 59.382812-12.050781 87.203124 0zm0 0" fill="#787680"/><path d="m295.878906 265.320312c-.503906 57.707032-35.425781 109.53125-88.71875 131.667969-53.292968 22.132813-114.65625 10.300781-155.894531-30.066406 41.679687-34.816406 134.269531-125.417969 155.398437-256.746094 43.863282 23.441407 76.800782 73.023438 86.398438 123.921875 1.925781 10.292969 2.867188 20.75 2.816406 31.222656zm0 0" fill="#6c6a73"/><path d="m402.238281 197.230469 21.28125-58.496094c.894531-2.453125.53125-5.1875-.964843-7.324219-1.496094-2.136718-3.945313-3.410156-6.554688-3.410156-6.894531.566406-13.425781 3.324219-18.640625 7.871094-2.671875 2.382812-5.882813 4.074218-9.359375 4.929687-.800781 0-1.222656-.167969-3.679688-3.320312-3.339843-5.855469-9.566406-9.472657-16.308593-9.472657-6.742188 0-12.964844 3.617188-16.308594 9.472657-2.480469 3.199219-2.886719 3.335937-3.703125 3.335937-3.476562-.851562-6.691406-2.542968-9.359375-4.929687-5.210937-4.550781-11.742187-7.316407-18.640625-7.886719-2.609375 0-5.058594 1.273438-6.554688 3.410156-1.496093 2.136719-1.859374 4.871094-.964843 7.324219l21.273437 58.488281c-13.363281 4.210938-25.742187 11.058594-36.410156 20.136719-14.144531-50.757813-49.34375-95.648437-91.648438-116.4375l33.800782-90.105469c.925781-2.457031.582031-5.214844-.914063-7.375-1.496093-2.15625-3.957031-3.44531225-6.582031-3.441406-12.449219 0-20.617188 8.640625-27.816406 16.265625-5.703125 6.039063-10.632813 11.253906-16.183594 11.253906-4.230469 0-6.695312-3.085937-11.304688-10.136719-4.800781-7.335937-11.367187-17.382812-24.695312-17.382812s-19.894531 10.046875-24.695312 17.382812c-4.609376 7.050782-7.074219 10.136719-11.304688 10.136719-5.550781 0-10.480469-5.214843-16.183594-11.253906-7.199218-7.625-15.367187-16.265625-27.816406-16.265625-2.625-.00390625-5.085938 1.285156-6.582031 3.441406-1.496094 2.160156-1.839844 4.917969-.914063 7.375l33.824219 90.160156c-56.503906 27.664063-98.328125 96.175782-98.328125 163.023438-.046875 63.617188 39.554688 120.523438 99.226562 142.582031 59.667969 22.058594 126.761719 4.597657 168.109376-43.75 3.300781 6.628907 7.433593 12.8125 12.296874 18.398438 3.457032 3.964843 7.253907 7.621093 11.351563 10.921875 22.199219 16.503906 49.375 24.917968 77.015625 23.847656 69.089844 0 112-39.847656 112-104 0-55.007812-30.910156-100-77.761719-114.769531zm-54.238281-40.429688c6.667969-.261719 12.769531-3.804687 16.304688-9.464843 2.488281-3.199219 2.894531-3.335938 3.710937-3.335938s1.222656.167969 3.679687 3.3125c3.519532 5.675781 9.632813 9.230469 16.304688 9.488281 4.84375-.15625 9.542969-1.691406 13.542969-4.425781l-15.015625 41.28125c-12.265625-1.945312-24.765625-1.945312-37.03125 0l-15.015625-41.257812c3.996093 2.726562 8.6875 4.253906 13.519531 4.402343zm-259.816406-129.542969c7.199218 7.621094 15.367187 16.261719 27.816406 16.261719 13.328125 0 19.894531-10.039062 24.695312-17.375 4.609376-7.046875 7.074219-10.144531 11.304688-10.144531s6.695312 3.097656 11.304688 10.144531c4.800781 7.335938 11.367187 17.375 24.695312 17.375 12.449219 0 20.617188-8.640625 27.816406-16.261719.230469-.25.464844-.488281.6875-.738281l-25.558594 68.152344c-.753906-.265625-1.511718-.441406-2.265624-.6875-1.136719-.367187-2.28125-.703125-3.414063-1.039063-2.667969-.785156-5.351563-1.476562-8.050781-2.074218-.910156-.199219-1.816406-.40625-2.734375-.582032-3.28125-.652343-6.574219-1.160156-9.878907-1.519531-.34375 0-.679687-.097656-1.015624-.128906-3.851563-.382813-7.714844-.640625-11.585938-.640625s-7.726562.257812-11.574219.640625l-1.082031.136719c-3.28125.355468-6.546875.855468-9.800781 1.503906-.933594.183594-1.871094.398438-2.800781.597656-2.664063.59375-5.332032 1.277344-8 2.058594-1.148438.34375-2.300782.679688-3.453126 1.046875-.753906.246094-1.511718.421875-2.257812.6875l-25.597656-68.152344c.285156.25.519531.488281.75.738281zm63.816406 372.742188c-75.074219-.082031-135.917969-60.925781-136-136 0-62.488281 41.953125-129.070312 95.519531-151.59375 25.832031-11.160156 55.128907-11.160156 80.960938 0 44.609375 18.761719 81.800781 67.761719 92.527343 121.890625 1.933594 9.785156 2.933594 19.730469 2.992188 29.703125.003906 7.035156-.53125 14.054688-1.601562 21.007812-3.222657 20.78125-11.261719 40.519532-23.46875 57.640626-25.535157 35.921874-66.855469 57.289062-110.929688 57.351562zm216 0c-23.980469 1.042969-47.601562-6.117188-66.96875-20.296875-3.375-2.714844-6.503906-5.722656-9.351562-8.992187-5.746094-6.550782-10.261719-14.085938-13.335938-22.238282.800781-1.160156 1.449219-2.402344 2.191406-3.542968.921875-1.464844 1.855469-2.921876 2.730469-4.417969 1.0625-1.824219 2.054687-3.679688 3.046875-5.535157.800781-1.519531 1.597656-3.03125 2.398438-4.585937.921874-1.894531 1.761718-3.824219 2.609374-5.75.679688-1.601563 1.382813-3.113281 2.015626-4.695313.800781-1.976562 1.472656-4 2.167968-5.992187.550782-1.601563 1.136719-3.144531 1.601563-4.746094.648437-2.078125 1.183593-4.199219 1.742187-6.3125.417969-1.597656.871094-3.109375 1.242188-4.6875.511718-2.230469.894531-4.488281 1.308594-6.742187.273437-1.496094.609374-2.976563.800781-4.480469.386719-2.527344.625-5.082031.878906-7.625.128906-1.269531.328125-2.519531.425781-3.792969.332032-3.828125.496094-7.683594.496094-11.566406 0-4.929688-.289062-10-.800781-15.199219-.160157-1.671875-.457031-3.402343-.664063-5.097656-.34375-2.800781-.605468-5.597656-1.09375-8.429687 12.121094-12.46875 27.625-21.113282 44.597656-24.882813 14.464844-3.238281 29.464844-3.238281 43.929688 0 44.289062 10.105469 74.03125 50.914063 74.03125 101.609375 0 55.105469-35.886719 88-96 88zm0 0"/></svg>