<svg height="480pt" viewBox="0 0 480 480.03361" width="480pt" xmlns="http://www.w3.org/2000/svg"><path d="m391.777344 266.640625 24.238281-66.640625c-10.007813 0-18.007813 12.800781-28 12.800781s-9.992187-12.800781-20-12.800781-10.023437 12.800781-20 12.800781-18.007813-12.800781-28-12.800781l24.242187 66.640625c15.644532-3.519531 31.875-3.519531 47.519532 0zm0 0" fill="#57565c"/><path d="m285.695312 440h-277.679687v32h288v-22.078125c-3.726563-2.996094-7.179687-6.316406-10.320313-9.921875zm0 0" fill="#787680"/><path d="m40.015625 184h224v256h-224zm0 0" fill="#acabb1"/><path d="m296.015625 184v-32h-288v32zm0 0" fill="#787680"/><path d="m256.015625 120h-208l-16 32h240zm0 0" fill="#898890"/><path d="m472.015625 376c0 61.839844-42.160156 96-104 96-25.8125 1.0625-51.21875-6.726562-72-22.078125-3.339844-2.664063-6.445313-5.609375-9.277344-8.800781-.386719-.335938-.738281-.710938-1.042969-1.121094-14.859374-17.9375-22.578124-40.726562-21.679687-64 0-53.519531 31.601563-98.320312 80.242187-109.359375 15.644532-3.519531 31.875-3.519531 47.519532 0 14.144531 3.152344 27.40625 9.441406 38.800781 18.398437 27.085937 22.320313 42.375 55.875 41.4375 90.960938zm0 0" fill="#787680"/><path d="m472.015625 376c0 61.839844-42.160156 96-104 96-25.8125 1.0625-51.21875-6.726562-72-22.078125-3.339844-2.664063-6.445313-5.609375-9.277344-8.800781 70.460938-25.5625 124.105469-83.769532 143.839844-156.082032 27.085937 22.320313 42.375 55.875 41.4375 90.960938zm0 0" fill="#6c6a73"/><path d="m264.015625 184v256h-224v-2.480469c93.042969-64.082031 167.59375-151.515625 216.160156-253.519531zm0 0" fill="#a1a0a6"/><path d="m40.015625 184h224v16h-224zm0 0" fill="#898890"/><g fill="#787680"><path d="m200.015625 216h32v192h-32zm0 0"/><path d="m136.015625 216h32v192h-32zm0 0"/><path d="m72.015625 216h32v192h-32zm0 0"/></g><path d="m232.015625 208h-32c-4.417969 0-8 3.582031-8 8v192c0 4.417969 3.582031 8 8 8h32c4.417969 0 8-3.582031 8-8v-192c0-4.417969-3.582031-8-8-8zm-8 192h-16v-176h16zm0 0"/><path d="m168.015625 208h-32c-4.417969 0-8 3.582031-8 8v192c0 4.417969 3.582031 8 8 8h32c4.417969 0 8-3.582031 8-8v-192c0-4.417969-3.582031-8-8-8zm-8 192h-16v-176h16zm0 0"/><path d="m104.015625 208h-32c-4.417969 0-8 3.582031-8 8v192c0 4.417969 3.582031 8 8 8h32c4.417969 0 8-3.582031 8-8v-192c0-4.417969-3.582031-8-8-8zm-8 192h-16v-176h16zm0 0"/><path d="m402.25 261.230469 21.277344-58.496094c.894531-2.449219.535156-5.183594-.960938-7.320313-1.496094-2.136718-3.941406-3.414062-6.550781-3.414062-6.894531.566406-13.425781 3.324219-18.640625 7.871094-2.667969 2.386718-5.882812 4.078125-9.359375 4.929687-.796875 0-1.214844-.167969-3.679687-3.320312-3.339844-5.855469-9.5625-9.472657-16.304688-9.472657-6.738281 0-12.964844 3.617188-16.300781 9.472657-2.488281 3.199219-2.898438 3.335937-3.722657 3.335937-3.46875-.851562-6.675781-2.542968-9.34375-4.921875-5.210937-4.558593-11.746093-7.328125-18.648437-7.894531-2.609375 0-5.050781 1.277344-6.546875 3.414062-1.496094 2.136719-1.855469 4.871094-.964844 7.320313l21.273438 58.496094c-26.394532 8.445312-48.519532 26.746093-61.761719 51.089843v-120.320312h24c4.417969 0 8-3.582031 8-8v-32c0-4.417969-3.582031-8-8-8h-19.054687l-13.742188-27.574219c-1.363281-2.726562-4.15625-4.441406-7.203125-4.425781h-56v-24c0-4.417969-3.582031-8-8-8h-80c-4.417969 0-8 3.582031-8 8v24h-56c-3.03125 0-5.804687 1.710938-7.160156 4.425781l-13.78125 27.574219h-19.058594c-4.417969 0-8 3.582031-8 8v32c0 4.417969 3.582031 8 8 8h24v240h-24c-4.417969 0-8 3.582031-8 8v32c0 4.417969 3.582031 8 8 8h288c4.417969 0 8-3.582031 8-8v-7.199219c19.675781 10.472657 41.71875 15.707031 64 15.199219 69.089844 0 112-39.847656 112-104 0-55.007812-30.910156-100-77.765625-114.769531zm-54.234375-40.429688c6.671875-.257812 12.78125-3.804687 16.3125-9.472656 2.464844-3.160156 2.890625-3.328125 3.6875-3.328125.800781 0 1.21875.167969 3.679687 3.320312 3.527344 5.675782 9.644532 9.226563 16.320313 9.480469 4.84375-.152343 9.546875-1.6875 13.546875-4.425781l-15.019531 41.28125c-12.265625-1.945312-24.761719-1.945312-37.03125 0l-15.015625-41.257812c3.996094 2.726562 8.6875 4.253906 13.519531 4.402343zm-228-124.800781h64v16h-64zm-67.054687 32h198.113281l8 16h-214.113281zm-36.945313 32h272v16h-272zm32 32h208v240h-208zm240 272h-272v-16h266.136719c.449218.480469.976562.921875 1.449218 1.398438.96875.96875 1.964844 1.921874 2.984376 2.867187.488281.445313.925781.925781 1.429687 1.375zm80 0c-23.980469 1.042969-47.597656-6.117188-66.96875-20.296875-3.367187-2.707031-6.488281-5.707031-9.324219-8.96875-13.601562-16.46875-20.621094-37.394531-19.707031-58.734375 0-50.695312 29.746094-91.503906 74.066406-101.601562 14.457031-3.25 29.460938-3.25 43.917969 0 44.273438 10.097656 74.015625 50.90625 74.015625 101.601562 0 55.105469-35.886719 88-96 88zm0 0"/><path d="m448.015625 144c4.417969 0 8-3.582031 8-8v-8c0-4.417969-3.582031-8-8-8s-8 3.582031-8 8v8c0 4.417969 3.582031 8 8 8zm0 0"/><path d="m424.015625 160h8c4.417969 0 8-3.582031 8-8s-3.582031-8-8-8h-8c-4.417969 0-8 3.582031-8 8s3.582031 8 8 8zm0 0"/><path d="m448.015625 160c-4.417969 0-8 3.582031-8 8v8c0 4.417969 3.582031 8 8 8s8-3.582031 8-8v-8c0-4.417969-3.582031-8-8-8zm0 0"/><path d="m464.015625 160h8c4.417969 0 8-3.582031 8-8s-3.582031-8-8-8h-8c-4.417969 0-8 3.582031-8 8s3.582031 8 8 8zm0 0"/><path d="m352.015625 72c4.417969 0 8-3.582031 8-8v-8c0-4.417969-3.582031-8-8-8s-8 3.582031-8 8v8c0 4.417969 3.582031 8 8 8zm0 0"/><path d="m328.015625 88h8c4.417969 0 8-3.582031 8-8s-3.582031-8-8-8h-8c-4.417969 0-8 3.582031-8 8s3.582031 8 8 8zm0 0"/><path d="m352.015625 88c-4.417969 0-8 3.582031-8 8v8c0 4.417969 3.582031 8 8 8s8-3.582031 8-8v-8c0-4.417969-3.582031-8-8-8zm0 0"/><path d="m368.015625 88h8c4.417969 0 8-3.582031 8-8s-3.582031-8-8-8h-8c-4.417969 0-8 3.582031-8 8s3.582031 8 8 8zm0 0"/><path d="m64.015625 24c4.417969 0 8-3.582031 8-8v-8c0-4.417969-3.582031-8-8-8s-8 3.582031-8 8v8c0 4.417969 3.582031 8 8 8zm0 0"/><path d="m40.015625 40h8c4.417969 0 8-3.582031 8-8s-3.582031-8-8-8h-8c-4.417969 0-8 3.582031-8 8s3.582031 8 8 8zm0 0"/><path d="m64.015625 40c-4.417969 0-8 3.582031-8 8v8c0 4.417969 3.582031 8 8 8s8-3.582031 8-8v-8c0-4.417969-3.582031-8-8-8zm0 0"/><path d="m80.015625 40h8c4.417969 0 8-3.582031 8-8s-3.582031-8-8-8h-8c-4.417969 0-8 3.582031-8 8s3.582031 8 8 8zm0 0"/></svg>