<svg height="480pt" viewBox="0 0 480 480" width="480pt" xmlns="http://www.w3.org/2000/svg"><path d="m408 24v448h-400v-464h384c8.824219.027344 15.972656 7.175781 16 16zm0 0" fill="#f1f2f2"/><path d="m408 78.878906v393.121094h-400v-31.359375c108.960938-39.441406 301.921875-138.160156 400-361.761719zm0 0" fill="#e6e7e8"/><path d="m248 168h192c17.671875 0 32 14.328125 32 32v128c0 17.671875-14.328125 32-32 32h-192c-17.671875 0-32-14.328125-32-32v-128c0-17.671875 14.328125-32 32-32zm0 0" fill="#5aaae7"/><path d="m456 256c-8.835938 0-16 7.164062-16 16v-24c0-8.835938-7.164062-16-16-16s-16 7.164062-16 16v-40c0-8.835938-7.164062-16-16-16s-16 7.164062-16 16v32c0-8.835938-7.164062-16-16-16s-16 7.164062-16 16v97.359375l-34.878906-34.878906c-4.582032-4.5625-11.457032-5.929688-17.433594-3.464844-5.980469 2.464844-9.894531 8.277344-9.925781 14.746094.023437 4.257812 1.71875 8.335937 4.71875 11.359375l57.519531 57.519531v89.359375h128v-200c0-8.835938-7.164062-16-16-16zm0 0" fill="#ffdaaa"/><path d="m440 160h-24v-136c0-13.253906-10.746094-24-24-24h-384c-4.417969 0-8 3.582031-8 8v464c0 4.417969 3.582031 8 8 8h464c4.417969 0 8-3.582031 8-8v-272c-.027344-22.082031-17.917969-39.972656-40-40zm24 40v49.472656c-2.5625-.949218-5.269531-1.445312-8-1.472656-2.726562 0-5.429688.460938-8 1.367188v-1.367188c0-7.792969-3.78125-15.101562-10.140625-19.597656-6.363281-4.5-14.511719-5.632813-21.859375-3.035156v-17.367188c0-13.253906-10.746094-24-24-24s-24 10.746094-24 24v9.367188c-7.347656-2.597657-15.496094-1.464844-21.859375 3.035156-6.359375 4.496094-10.140625 11.804687-10.140625 19.597656v78.046875l-21.257812-21.246094c-9.390626-9.300781-24.523438-9.300781-33.917969 0-4.519531 4.476563-7.0625 10.574219-7.0625 16.933594.023437 6.382813 2.5625 12.496094 7.0625 17.019531l21.222656 21.246094h-54.046875c-13.253906 0-24-10.746094-24-24v-128c0-13.253906 10.746094-24 24-24h192c13.253906 0 24 10.746094 24 24zm-448-184h376c4.417969 0 8 3.582031 8 8v136h-152c-22.082031.027344-39.972656 17.917969-40 40v128c.027344 22.082031 17.917969 39.972656 40 40h70.046875l17.953125 17.953125v78.046875h-320zm448 448h-112v-81.359375c0-2.121094-.84375-4.15625-2.34375-5.65625l-57.449219-57.449219c-1.535156-1.527344-2.414062-3.597656-2.445312-5.765625.046875-3.226562 2.015625-6.109375 5-7.328125s6.410156-.539062 8.703125 1.726563l34.878906 34.878906c2.292969 2.292969 5.742188 2.976563 8.730469 1.726563 2.992187-1.246094 4.9375-4.171876 4.925781-7.414063v-97.359375c0-4.417969 3.582031-8 8-8s8 3.582031 8 8v80c0 4.417969 3.582031 8 8 8s8-3.582031 8-8v-112c0-4.417969 3.582031-8 8-8s8 3.582031 8 8v112c0 4.417969 3.582031 8 8 8s8-3.582031 8-8v-72c0-4.417969 3.582031-8 8-8s8 3.582031 8 8v80c0 4.417969 3.582031 8 8 8s8-3.582031 8-8v-56c0-4.417969 3.582031-8 8-8s8 3.582031 8 8zm0 0"/><path d="m109.65625 42.34375c-3.125-3.121094-8.1875-3.121094-11.3125 0l-64 64c-2.078125 2.007812-2.914062 4.984375-2.179688 7.78125.730469 2.796875 2.914063 4.980469 5.710938 5.710938 2.796875.734374 5.773438-.101563 7.78125-2.179688l64-64c3.121094-3.125 3.121094-8.1875 0-11.3125zm0 0"/><path d="m93.65625 125.65625 80-80c2.078125-2.007812 2.914062-4.984375 2.179688-7.78125-.730469-2.796875-2.914063-4.980469-5.710938-5.710938-2.796875-.734374-5.773438.101563-7.78125 2.179688l-80 80c-2.078125 2.007812-2.914062 4.984375-2.179688 7.78125.730469 2.796875 2.914063 4.980469 5.710938 5.710938 2.796875.734374 5.773438-.101563 7.78125-2.179688zm0 0"/><path d="m173.65625 378.34375c-3.125-3.121094-8.1875-3.121094-11.3125 0l-56 56c-2.078125 2.007812-2.914062 4.984375-2.179688 7.78125.730469 2.796875 2.914063 4.980469 5.710938 5.710938 2.796875.734374 5.773438-.101563 7.78125-2.179688l56-56c3.121094-3.125 3.121094-8.1875 0-11.3125zm0 0"/><path d="m218.34375 378.34375-56 56c-2.078125 2.007812-2.914062 4.984375-2.179688 7.78125.730469 2.796875 2.914063 4.980469 5.710938 5.710938 2.796875.734374 5.773438-.101563 7.78125-2.179688l56-56c3.03125-3.140625 2.988281-8.128906-.097656-11.214844-3.085938-3.085937-8.074219-3.128906-11.214844-.097656zm0 0"/><path d="m104 280c0-13.253906 10.746094-24 24-24h24c4.417969 0 8-3.582031 8-8s-3.582031-8-8-8h-24c-22.089844 0-40 17.910156-40 40v56c0 4.417969 3.582031 8 8 8s8-3.582031 8-8zm0 0"/><path d="m120 296v40c0 4.417969 3.582031 8 8 8s8-3.582031 8-8v-40c0-4.417969 3.582031-8 8-8h24c4.417969 0 8-3.582031 8-8s-3.582031-8-8-8h-24c-13.253906 0-24 10.746094-24 24zm0 0"/></svg>