<svg height="480pt" viewBox="-26 0 480 480" width="480pt" xmlns="http://www.w3.org/2000/svg"><path d="m414.238281 8v96c-.023437 8.824219-7.171875 15.972656-16 16h-368c-8.824219-.027344-15.972656-7.175781-16-16v-96zm0 0" fill="#ff7956"/><path d="m420.480469 361.761719c-.027344 4.257812-1.71875 8.335937-4.71875 11.359375l-57.523438 57.519531v41.359375h-120v-24l-5.757812-11.519531-2.242188-4.480469v-112c0-8.835938 7.164063-16 16-16 8.839844 0 16 7.164062 16 16v-24c0-8.835938 7.164063-16 16-16 8.839844 0 16 7.164062 16 16v-40c0-8.835938 7.164063-16 16-16 8.839844 0 16 7.164062 16 16v32c0-8.835938 7.164063-16 16-16 8.839844 0 16 7.164062 16 16v97.359375l34.882813-34.878906c4.582031-4.5625 11.453125-5.929688 17.433594-3.464844 5.976562 2.464844 9.890624 8.277344 9.925781 14.746094zm0 0" fill="#ffc477"/><path d="m198.238281 320v112l-8 16v24h-120v-41.359375l-57.519531-57.519531c-3-3.023438-4.691406-7.101563-4.71875-11.359375.035156-6.46875 3.949219-12.28125 9.925781-14.746094 5.980469-2.464844 12.851563-1.097656 17.433594 3.464844l34.878906 34.878906v-97.359375c0-8.835938 7.164063-16 16-16 8.839844 0 16 7.164062 16 16v-32c0-8.835938 7.164063-16 16-16 8.839844 0 16 7.164062 16 16v40c0-8.835938 7.164063-16 16-16 8.839844 0 16 7.164062 16 16v24c.035157-7.105469 4.753907-13.339844 11.585938-15.300781 6.828125-1.964844 14.136719.816406 17.9375 6.820312 1.628906 2.527344 2.492187 5.472657 2.476562 8.480469zm0 0" fill="#ffc477"/><path d="m414.238281 8v96c-.023437 8.824219-7.171875 15.972656-16 16h-214.316406c53.980469-20.515625 98.347656-60.460938 124.398437-112zm0 0" fill="#ff6243"/><path d="m78.238281 56h272v32h-272zm0 0" fill="#ff5023"/><path d="m420.480469 361.761719c-.027344 4.257812-1.71875 8.335937-4.71875 11.359375l-57.523438 57.519531v41.359375h-120v-24l-5.757812-11.519531c58.191406-24.601563 103.679687-72.085938 125.757812-131.28125v80.160156l34.882813-34.878906c4.582031-4.5625 11.453125-5.929688 17.433594-3.464844 5.976562 2.464844 9.890624 8.277344 9.925781 14.746094zm0 0" fill="#ffb655"/><path d="m198.238281 320v112l-8 16v24h-120v-34.558594c57.046875-23.425781 102.28125-68.800781 125.523438-125.921875 1.628906 2.527344 2.492187 5.472657 2.476562 8.480469zm0 0" fill="#ffb655"/><path d="m182.238281 296c-2.722656 0-5.429687.460938-8 1.367188v-1.367188c.003907-7.792969-3.777343-15.101562-10.140625-19.597656-6.359375-4.5-14.511718-5.632813-21.859375-3.035156v-17.367188c0-13.253906-10.742187-24-24-24-13.253906 0-24 10.746094-24 24v9.367188c-7.34375-2.597657-15.496093-1.464844-21.855469 3.035156-6.363281 4.496094-10.144531 11.804687-10.144531 19.597656v78.046875l-21.261719-21.246094c-9.398437-9.308593-24.539062-9.308593-33.9375 0-4.515624 4.488281-7.0507808 10.59375-7.039062 16.960938.0117188 6.375 2.542969 12.492187 7.039062 17.015625l55.199219 55.199218v38.023438c0 4.417969 3.582031 8 8 8h120c4.421875 0 8-3.582031 8-8v-22.113281l7.160157-14.3125c.554687-1.109375.84375-2.332031.839843-3.574219v-112c0-13.253906-10.742187-24-24-24zm8 134.113281-7.160156 14.3125c-.550781 1.109375-.839844 2.332031-.839844 3.574219v16h-104v-33.359375c0-2.121094-.84375-4.15625-2.34375-5.65625l-57.453125-57.464844c-1.539062-1.523437-2.414062-3.589843-2.441406-5.75.023438-2.113281.886719-4.128906 2.398438-5.601562 3.144531-3.089844 8.1875-3.089844 11.328124 0l34.882813 34.878906c2.292969 2.273437 5.730469 2.945313 8.710937 1.703125 2.980469-1.246094 4.921876-4.160156 4.917969-7.390625v-97.359375c0-4.417969 3.582031-8 8-8 4.421875 0 8 3.582031 8 8v80c0 4.417969 3.582031 8 8 8 4.421875 0 8-3.582031 8-8v-112c0-4.417969 3.582031-8 8-8 4.421875 0 8 3.582031 8 8v112c0 4.417969 3.582031 8 8 8 4.421875 0 8-3.582031 8-8v-72c0-4.417969 3.582031-8 8-8 4.421875 0 8 3.582031 8 8v80c0 4.417969 3.582031 8 8 8 4.421875 0 8-3.582031 8-8v-56c0-4.417969 3.582031-8 8-8 4.421875 0 8 3.582031 8 8zm0 0"/><path d="m421.441406 344.800781c-9.402344-9.308593-24.550781-9.308593-33.953125 0l-21.25 21.246094v-78.046875c.003907-7.792969-3.777343-15.101562-10.140625-19.597656-6.359375-4.5-14.511718-5.632813-21.859375-3.035156v-9.367188c0-13.253906-10.742187-24-24-24-13.253906 0-24 10.746094-24 24v17.367188c-7.34375-2.597657-15.496093-1.464844-21.855469 3.035156-6.363281 4.496094-10.144531 11.804687-10.144531 19.597656v1.367188c-7.34375-2.597657-15.496093-1.464844-21.855469 3.035156-6.363281 4.496094-10.144531 11.804687-10.144531 19.597656v112c-.011719 1.238281.261719 2.460938.800781 3.574219l7.199219 14.3125v22.113281c0 4.417969 3.582031 8 8 8h120c4.421875 0 8-3.582031 8-8v-38.046875l55.242188-55.242187c4.472656-4.507813 6.984375-10.601563 7-16.949219.015625-6.367188-2.519531-12.476563-7.039063-16.960938zm-11.3125 22.640625-57.519531 57.519532c-1.515625 1.5-2.367187 3.546874-2.371094 5.679687v33.359375h-104v-16c.015625-1.238281-.257812-2.460938-.796875-3.574219l-7.203125-14.3125v-110.113281c0-4.417969 3.582031-8 8-8 4.421875 0 8 3.582031 8 8v56c0 4.417969 3.582031 8 8 8 4.421875 0 8-3.582031 8-8v-80c0-4.417969 3.582031-8 8-8 4.421875 0 8 3.582031 8 8v72c0 4.417969 3.582031 8 8 8 4.421875 0 8-3.582031 8-8v-112c0-4.417969 3.582031-8 8-8 4.421875 0 8 3.582031 8 8v112c0 4.417969 3.582031 8 8 8 4.421875 0 8-3.582031 8-8v-80c0-4.417969 3.582031-8 8-8 4.421875 0 8 3.582031 8 8v97.359375c.003907 3.234375 1.953125 6.152344 4.941407 7.390625 2.988281 1.238281 6.429687.554688 8.714843-1.734375l34.839844-34.847656c3.148437-3.109375 8.214844-3.109375 11.363281 0 1.511719 1.472656 2.378906 3.488281 2.398438 5.601562-.027344 2.136719-.882813 4.179688-2.390625 5.695313zm0 0"/><path d="m30.238281 128h368c13.257813 0 24-10.746094 24-24v-96c0-4.417969-3.578125-8-8-8h-400c-4.417969 0-8 3.582031-8 8v96c0 13.253906 10.746094 24 24 24zm-8-112h384v88c0 4.417969-3.578125 8-8 8h-368c-4.417969 0-8-3.582031-8-8zm0 0"/><path d="m78.238281 96h272c4.421875 0 8-3.582031 8-8v-32c0-4.417969-3.578125-8-8-8h-272c-4.417969 0-8 3.582031-8 8v32c0 4.417969 3.582031 8 8 8zm8-32h256v16h-256zm0 0"/><path d="m222.238281 152v63.054688c-.207031 11.679687 7.808594 21.902343 19.203125 24.480468 11.625 2.390625 23.25-4.078125 27.351563-15.214844 4.101562-11.136718-.554688-23.597656-10.953125-29.320312-2.488282-1.261719-5.457032-1.132812-7.832032.335938-2.371093 1.472656-3.804687 4.074218-3.785156 6.863281-.089844 2.757812 1.339844 5.34375 3.722656 6.738281 3.480469 1.816406 5.125 5.894531 3.882813 9.621094-1.242187 3.726562-5.007813 6-8.882813 5.363281-3.878906-.636719-6.71875-3.992187-6.707031-7.921875v-64c0-4.417969-3.578125-8-8-8-4.417969 0-8 3.582031-8 8zm0 0"/><path d="m286.238281 152v39.054688c-.207031 11.679687 7.808594 21.902343 19.203125 24.480468 11.625 2.390625 23.25-4.078125 27.351563-15.214844 4.101562-11.136718-.554688-23.597656-10.953125-29.320312-2.488282-1.261719-5.457032-1.132812-7.832032.335938-2.371093 1.472656-3.804687 4.074218-3.785156 6.863281-.089844 2.757812 1.339844 5.34375 3.722656 6.738281 3.480469 1.816406 5.125 5.894531 3.882813 9.621094-1.242187 3.726562-5.007813 6-8.882813 5.363281-3.878906-.636719-6.71875-3.992187-6.707031-7.921875v-40c0-4.417969-3.578125-8-8-8-4.417969 0-8 3.582031-8 8zm0 0"/><path d="m190.238281 216c.003907 3.921875-2.839843 7.269531-6.710937 7.898438-3.875.628906-7.632813-1.640626-8.875-5.359376-1.242188-3.722656.394531-7.792968 3.867187-9.617187 2.382813-1.394531 3.8125-3.980469 3.71875-6.738281.039063-2.761719-1.359375-5.34375-3.691406-6.820313-2.335937-1.476562-5.265625-1.632812-7.746094-.417969-10.234375 5.566407-15.023437 17.660157-11.375 28.726563 2.300781 7.234375 7.964844 12.898437 15.199219 15.199219 7.335938 2.417968 15.390625 1.167968 21.648438-3.359375 6.261718-4.527344 9.96875-11.785157 9.964843-19.511719v-64c0-4.417969-3.578125-8-8-8-4.417969 0-8 3.582031-8 8zm0 0"/><path d="m118.238281 178.183594c.039063-2.761719-1.359375-5.34375-3.691406-6.820313-2.335937-1.476562-5.265625-1.632812-7.746094-.417969-10.234375 5.566407-15.023437 17.660157-11.375 28.726563 2.300781 7.234375 7.964844 12.898437 15.199219 15.199219 7.335938 2.417968 15.390625 1.167968 21.648438-3.359375 6.261718-4.527344 9.96875-11.785157 9.964843-19.511719v-40c0-4.417969-3.578125-8-8-8-4.417969 0-8 3.582031-8 8v40c.003907 3.921875-2.839843 7.269531-6.710937 7.898438-3.875.628906-7.632813-1.640626-8.875-5.359376-1.242188-3.722656.394531-7.792968 3.867187-9.617187 2.382813-1.394531 3.8125-3.980469 3.71875-6.738281zm0 0"/></svg>