<svg height="480pt" viewBox="-9 0 480 480" width="480pt" xmlns="http://www.w3.org/2000/svg"><path d="m198.238281 272v200h-128v-89.359375l-57.519531-57.519531c-3-3.023438-4.695312-7.101563-4.71875-11.359375.035156-6.46875 3.949219-12.28125 9.925781-14.746094 5.980469-2.464844 12.851563-1.097656 17.433594 3.464844l34.878906 34.878906v-97.359375c0-8.835938 7.164063-16 16-16 8.839844 0 16 7.164062 16 16v-40c0-8.835938 7.164063-16 16-16 8.839844 0 16 7.164062 16 16v48c0-8.835938 7.164063-16 16-16 8.839844 0 16 7.164062 16 16v24c0-8.835938 7.164063-16 16-16 8.839844 0 16 7.164062 16 16zm0 0" fill="#ffdaaa"/><path d="m444.480469 313.761719c-.027344 4.257812-1.71875 8.335937-4.71875 11.359375l-57.523438 57.519531v89.359375h-128v-200c0-8.835938 7.164063-16 16-16 8.839844 0 16 7.164062 16 16v-24c0-8.835938 7.164063-16 16-16 8.839844 0 16 7.164062 16 16v-48c0-8.835938 7.164063-16 16-16 8.839844 0 16 7.164062 16 16v40c0-8.835938 7.164063-16 16-16 8.839844 0 16 7.164062 16 16v97.359375l34.882813-34.878906c4.582031-4.5625 11.453125-5.929688 17.433594-3.464844 5.976562 2.464844 9.890624 8.277344 9.925781 14.746094zm0 0" fill="#ffdaaa"/><path d="m444.480469 313.761719c-.027344 4.257812-1.71875 8.335937-4.71875 11.359375l-57.523438 57.519531v89.359375h-128v-47.28125c49.71875-41.390625 92.875-90.074219 128-144.398438v57.039063l34.882813-34.878906c4.582031-4.5625 11.453125-5.929688 17.433594-3.464844 5.976562 2.464844 9.890624 8.277344 9.925781 14.746094zm0 0" fill="#ffd399"/><path d="m198.238281 292.398438v179.601562h-128v-40.640625c49.273438-39.765625 92.40625-86.59375 128-138.960937zm0 0" fill="#ffd399"/><g fill="#78b9eb"><path d="m46.238281 176c0 8.835938-7.160156 16-16 16-8.835937 0-16-7.164062-16-16s7.164063-16 16-16c8.839844 0 16 7.164062 16 16zm0 0"/><path d="m198.238281 144c0 13.253906-10.742187 24-24 24-13.253906 0-24-10.746094-24-24s10.746094-24 24-24c13.257813 0 24 10.746094 24 24zm0 0"/><path d="m454.238281 40c0 17.671875-14.324219 32-32 32-17.671875 0-32-14.328125-32-32s14.328125-32 32-32c17.675781 0 32 14.328125 32 32zm0 0"/></g><path d="m182.238281 248c-2.722656 0-5.429687.460938-8 1.367188v-1.367188c.003907-7.792969-3.777343-15.101562-10.140625-19.597656-6.359375-4.5-14.511718-5.632813-21.859375-3.035156v-25.367188c0-13.253906-10.742187-24-24-24-13.253906 0-24 10.746094-24 24v17.367188c-7.34375-2.597657-15.496093-1.464844-21.855469 3.035156-6.363281 4.496094-10.144531 11.804687-10.144531 19.597656v78.046875l-21.253906-21.246094c-9.394531-9.300781-24.527344-9.300781-33.921875 0-4.523438 4.480469-7.06640625 10.589844-7.0625 16.960938.0195312 6.375 2.546875 12.488281 7.039062 17.015625l55.199219 55.199218v86.023438c0 4.417969 3.582031 8 8 8h128c4.421875 0 8-3.582031 8-8v-200c0-13.253906-10.742187-24-24-24zm8 216h-112v-81.359375c0-2.121094-.84375-4.15625-2.34375-5.65625l-57.445312-57.449219c-1.539063-1.527344-2.417969-3.597656-2.449219-5.765625.050781-3.226562 2.019531-6.109375 5.003906-7.328125s6.40625-.539062 8.699219 1.726563l34.882813 34.878906c2.289062 2.292969 5.738281 2.976563 8.730468 1.726563 2.992188-1.246094 4.9375-4.171876 4.921875-7.414063v-97.359375c0-4.417969 3.582031-8 8-8 4.421875 0 8 3.582031 8 8v80c0 4.417969 3.582031 8 8 8 4.421875 0 8-3.582031 8-8v-120c0-4.417969 3.582031-8 8-8 4.421875 0 8 3.582031 8 8v120c0 4.417969 3.582031 8 8 8 4.421875 0 8-3.582031 8-8v-72c0-4.417969 3.582031-8 8-8 4.421875 0 8 3.582031 8 8v80c0 4.417969 3.582031 8 8 8 4.421875 0 8-3.582031 8-8v-56c0-4.417969 3.582031-8 8-8 4.421875 0 8 3.582031 8 8zm0 0"/><path d="m411.464844 296.800781-21.226563 21.246094v-78.046875c.003907-7.792969-3.777343-15.101562-10.140625-19.597656-6.359375-4.5-14.511718-5.632813-21.859375-3.035156v-17.367188c0-13.253906-10.742187-24-24-24-13.253906 0-24 10.746094-24 24v25.367188c-7.34375-2.597657-15.496093-1.464844-21.855469 3.035156-6.363281 4.496094-10.144531 11.804687-10.144531 19.597656v1.367188c-7.34375-2.597657-15.496093-1.464844-21.855469 3.035156-6.363281 4.496094-10.144531 11.804687-10.144531 19.597656v200c0 4.417969 3.582031 8 8 8h128c4.421875 0 8-3.582031 8-8v-86.046875l55.25-55.25c4.464844-4.511719 6.976563-10.597656 6.992188-16.941406.015625-6.371094-2.519531-12.476563-7.039063-16.960938-9.40625-9.332031-24.574218-9.332031-33.976562 0zm22.640625 22.640625-57.519531 57.519532c-1.507813 1.503906-2.351563 3.550781-2.347657 5.679687v81.359375h-112v-192c0-4.417969 3.582031-8 8-8 4.421875 0 8 3.582031 8 8v56c0 4.417969 3.582031 8 8 8 4.421875 0 8-3.582031 8-8v-80c0-4.417969 3.582031-8 8-8 4.421875 0 8 3.582031 8 8v72c0 4.417969 3.582031 8 8 8 4.421875 0 8-3.582031 8-8v-120c0-4.417969 3.582031-8 8-8 4.421875 0 8 3.582031 8 8v120c0 4.417969 3.582031 8 8 8 4.421875 0 8-3.582031 8-8v-80c0-4.417969 3.582031-8 8-8 4.421875 0 8 3.582031 8 8v97.359375c.003907 3.234375 1.953125 6.152344 4.941407 7.390625 2.988281 1.238281 6.429687.554688 8.714843-1.734375l34.839844-34.847656c1.503906-1.515625 3.550781-2.371094 5.6875-2.371094 2.132813 0 4.179687.855469 5.683594 2.371094 1.515625 1.472656 2.378906 3.488281 2.398437 5.601562-.03125 2.136719-.890625 4.179688-2.398437 5.695313zm0 0"/><path d="m54.238281 24c4.421875 0 8-3.582031 8-8v-8c0-4.417969-3.578125-8-8-8-4.417969 0-8 3.582031-8 8v8c0 4.417969 3.582031 8 8 8zm0 0"/><path d="m31.617188 28.6875c2.007812 2.082031 4.980468 2.914062 7.777343 2.183594 2.796875-.734375 4.984375-2.917969 5.714844-5.714844s-.101563-5.773438-2.179687-7.78125l-5.664063-5.664062c-2.011719-2.078126-4.984375-2.914063-7.78125-2.179688-2.796875.730469-4.980469 2.914062-5.714844 5.710938-.730469 2.796874.101563 5.773437 2.183594 7.78125zm0 0"/><path d="m22.238281 48h8c4.421875 0 8-3.582031 8-8s-3.578125-8-8-8h-8c-4.417969 0-8 3.582031-8 8s3.582031 8 8 8zm0 0"/><path d="m31.617188 51.3125-5.664063 5.664062c-2.082031 2.007813-2.914063 4.984376-2.183594 7.78125.734375 2.796876 2.917969 4.980469 5.714844 5.710938 2.796875.734375 5.769531-.101562 7.78125-2.179688l5.664063-5.664062c2.078124-2.007812 2.910156-4.984375 2.179687-7.78125s-2.917969-4.980469-5.714844-5.714844c-2.796875-.730468-5.769531.101563-7.777343 2.183594zm0 0"/><path d="m54.238281 80c4.421875 0 8-3.582031 8-8v-8c0-4.417969-3.578125-8-8-8-4.417969 0-8 3.582031-8 8v8c0 4.417969 3.582031 8 8 8zm0 0"/><path d="m71.214844 68.289062c2.007812 2.078126 4.984375 2.914063 7.78125 2.179688 2.796875-.730469 4.980468-2.914062 5.714844-5.710938.730468-2.796874-.101563-5.773437-2.183594-7.78125l-5.664063-5.664062c-2.007812-2.082031-4.980469-2.914062-7.78125-2.183594-2.796875.734375-4.980469 2.917969-5.710937 5.714844-.734375 2.796875.101562 5.773438 2.179687 7.78125zm0 0"/><path d="m70.238281 40c0 4.417969 3.582031 8 8 8h8c4.421875 0 8-3.582031 8-8s-3.578125-8-8-8h-8c-4.417969 0-8 3.582031-8 8zm0 0"/><path d="m71.207031 31.03125c2.121094 0 4.15625-.84375 5.65625-2.34375l5.664063-5.664062c2.082031-2.007813 2.914062-4.984376 2.183594-7.78125-.734376-2.796876-2.917969-4.980469-5.714844-5.710938-2.796875-.734375-5.773438.101562-7.78125 2.179688l-5.664063 5.664062c-2.285156 2.289062-2.96875 5.730469-1.730469 8.71875 1.234376 2.988281 4.152344 4.9375 7.386719 4.9375zm0 0"/><path d="m374.238281 112c4.421875 0 8-3.582031 8-8v-8c0-4.417969-3.578125-8-8-8-4.417969 0-8 3.582031-8 8v8c0 4.417969 3.582031 8 8 8zm0 0"/><path d="m351.617188 116.6875c2.007812 2.082031 4.980468 2.914062 7.777343 2.183594 2.796875-.734375 4.984375-2.917969 5.714844-5.714844s-.101563-5.773438-2.179687-7.78125l-5.664063-5.664062c-2.011719-2.078126-4.984375-2.914063-7.78125-2.179688-2.796875.730469-4.980469 2.914062-5.714844 5.710938-.730469 2.796874.101563 5.773437 2.183594 7.78125zm0 0"/><path d="m342.238281 136h8c4.421875 0 8-3.582031 8-8s-3.578125-8-8-8h-8c-4.417969 0-8 3.582031-8 8s3.582031 8 8 8zm0 0"/><path d="m351.617188 139.3125-5.664063 5.664062c-2.082031 2.007813-2.914063 4.984376-2.183594 7.78125.734375 2.796876 2.917969 4.980469 5.714844 5.710938 2.796875.734375 5.769531-.101562 7.78125-2.179688l5.664063-5.664062c3.03125-3.140625 2.988281-8.128906-.097657-11.214844-3.085937-3.085937-8.078125-3.128906-11.214843-.097656zm0 0"/><path d="m374.238281 168c4.421875 0 8-3.582031 8-8v-8c0-4.417969-3.578125-8-8-8-4.417969 0-8 3.582031-8 8v8c0 4.417969 3.582031 8 8 8zm0 0"/><path d="m385.550781 150.625 5.664063 5.664062c3.140625 3.03125 8.128906 2.988282 11.214844-.097656 3.085937-3.085937 3.128906-8.078125.097656-11.214844l-5.664063-5.664062c-3.136719-3.03125-8.128906-2.988281-11.214843.097656-3.085938 3.085938-3.128907 8.074219-.097657 11.214844zm0 0"/><path d="m414.238281 128c0-4.417969-3.578125-8-8-8h-8c-4.417969 0-8 3.582031-8 8s3.582031 8 8 8h8c4.421875 0 8-3.582031 8-8zm0 0"/><path d="m391.207031 119.03125c2.121094 0 4.15625-.84375 5.65625-2.34375l5.664063-5.664062c2.082031-2.007813 2.914062-4.984376 2.183594-7.78125-.734376-2.796876-2.917969-4.980469-5.714844-5.710938-2.796875-.734375-5.773438.101562-7.78125 2.179688l-5.664063 5.664062c-2.285156 2.289062-2.96875 5.730469-1.730469 8.71875 1.234376 2.988281 4.152344 4.9375 7.386719 4.9375zm0 0"/><path d="m30.238281 200c13.257813 0 24-10.746094 24-24s-10.742187-24-24-24c-13.253906 0-24 10.746094-24 24s10.746094 24 24 24zm0-32c4.421875 0 8 3.582031 8 8s-3.578125 8-8 8c-4.417969 0-8-3.582031-8-8s3.582031-8 8-8zm0 0"/><path d="m174.238281 112c-17.671875 0-32 14.328125-32 32s14.328125 32 32 32c17.675781 0 32-14.328125 32-32s-14.324219-32-32-32zm0 48c-8.835937 0-16-7.164062-16-16s7.164063-16 16-16c8.839844 0 16 7.164062 16 16s-7.160156 16-16 16zm0 0"/><path d="m422.238281 80c22.09375 0 40-17.910156 40-40s-17.90625-40-40-40c-22.089843 0-40 17.910156-40 40 .027344 22.082031 17.921875 39.972656 40 40zm0-64c13.257813 0 24 10.746094 24 24s-10.742187 24-24 24c-13.253906 0-24-10.746094-24-24s10.746094-24 24-24zm0 0"/><path d="m262.238281 72c4.421875 0 8-3.582031 8-8v-8c0-4.417969-3.578125-8-8-8-4.417969 0-8 3.582031-8 8v8c0 4.417969 3.582031 8 8 8zm0 0"/><path d="m254.238281 80c0-4.417969-3.578125-8-8-8h-8c-4.417969 0-8 3.582031-8 8s3.582031 8 8 8h8c4.421875 0 8-3.582031 8-8zm0 0"/><path d="m262.238281 88c-4.417969 0-8 3.582031-8 8v8c0 4.417969 3.582031 8 8 8 4.421875 0 8-3.582031 8-8v-8c0-4.417969-3.578125-8-8-8zm0 0"/><path d="m278.238281 88h8c4.421875 0 8-3.582031 8-8s-3.578125-8-8-8h-8c-4.417969 0-8 3.582031-8 8s3.582031 8 8 8zm0 0"/></svg>