<svg height="478pt" viewBox="0 -19 478.39874 478" width="478pt" xmlns="http://www.w3.org/2000/svg"><path d="m470.398438 207.078125c-.003907 8.488281-3.371094 16.628906-9.359376 22.640625l-145.199218 145.121094c-6.007813 6-14.148438 9.367187-22.640625 9.359375h-205.199219l-69.441406 41.679687-10.558594 6.320313v-136l72-40h168c17.644531.066406 31.933594 14.355469 32 32v16c-.027344 8.824219-7.175781 15.972656-16 16h16l134.558594-134.558594c6.253906-6.425781 14.835937-10.050781 23.800781-10.050781s17.550781 3.625 23.800781 10.050781c5.335938 5.859375 8.277344 13.511719 8.238282 21.4375zm0 0" fill="#ffdaaa"/><g fill="#78b9eb"><path d="m176 192.199219c0 8.835937-7.164062 16-16 16s-16-7.164063-16-16c0-8.835938 7.164062-16 16-16s16 7.164062 16 16zm0 0"/><path d="m272 104.199219c0 22.089843-17.910156 40-40 40s-40-17.910157-40-40c0-22.089844 17.910156-40 40-40s40 17.910156 40 40zm0 0"/><path d="m368 152.199219c0 13.253906-10.746094 24-24 24s-24-10.746094-24-24c0-13.253907 10.746094-24 24-24s24 10.746093 24 24zm0 0"/></g><path d="m470.398438 207.078125c-.003907 8.488281-3.371094 16.628906-9.359376 22.640625l-145.199218 145.121094c-6.007813 6-14.148438 9.367187-22.640625 9.359375h-185.679688c59.242188-32.140625 113.535157-72.664063 161.199219-120.320313 7.1875 6.027344 11.320312 14.941406 11.28125 24.320313v16c-.027344 8.824219-7.175781 15.972656-16 16h16l134.558594-134.558594c6.253906-6.425781 14.835937-10.050781 23.800781-10.050781s17.550781 3.625 23.800781 10.050781c5.335938 5.859375 8.277344 13.511719 8.238282 21.4375zm0 0" fill="#ffd399"/><path d="m468.089844 180.246094c-7.214844-7.914063-17.382813-12.492188-28.089844-12.648438-11.636719-.355468-22.902344 4.136719-31.105469 12.402344l-120.894531 120.886719v-12.6875c-.027344-22.082031-17.917969-39.972657-40-40h-168c-1.359375 0-2.699219.347656-3.886719 1.007812l-72 40c-2.539062 1.410157-4.113281 4.089844-4.113281 6.992188v136c0 2.882812 1.550781 5.542969 4.0625 6.960937 2.507812 1.421875 5.585938 1.378906 8.058594-.105468l78.09375-46.855469h203.015625c10.609375.027343 20.789062-4.1875 28.273437-11.703125l145.222656-145.152344c15.019532-15.085938 15.617188-39.285156 1.363282-55.097656zm-12.707032 43.808594-145.191406 145.121093c-4.488281 4.511719-10.59375 7.039063-16.960937 7.023438h-205.230469c-1.453125 0-2.875.394531-4.121094 1.144531l-67.878906 40.726562v-117.167968l66.070312-36.703125h165.929688c13.253906 0 24 10.746093 24 24v16c0 4.417969-3.582031 8-8 8h-112c-4.417969 0-8 3.582031-8 8s3.582031 8 8 8h128c2.121094 0 4.15625-.84375 5.65625-2.34375l134.542969-134.542969c5.144531-5.105469 12.148437-7.894531 19.394531-7.722656 6.328125.058594 12.347656 2.734375 16.628906 7.394531 8.558594 9.484375 8.207032 24.007813-.796875 33.070313zm0 0"/><path d="m72 48.199219c4.417969 0 8-3.582031 8-8v-8c0-4.417969-3.582031-8-8-8s-8 3.582031-8 8v8c0 4.417969 3.582031 8 8 8zm0 0"/><path d="m49.375 52.886719c2.007812 2.082031 4.984375 2.914062 7.78125 2.183593 2.796875-.734374 4.980469-2.917968 5.714844-5.714843.730468-2.796875-.101563-5.773438-2.183594-7.78125l-5.664062-5.664063c-2.007813-2.078125-4.984376-2.914062-7.78125-2.179687-2.796876.730469-4.980469 2.914062-5.710938 5.710937-.734375 2.800782.101562 5.773438 2.179688 7.78125zm0 0"/><path d="m40 72.199219h8c4.417969 0 8-3.582031 8-8s-3.582031-8-8-8h-8c-4.417969 0-8 3.582031-8 8s3.582031 8 8 8zm0 0"/><path d="m49.375 75.511719-5.664062 5.664062c-2.078126 2.007813-2.914063 4.984375-2.179688 7.78125.730469 2.796875 2.914062 4.980469 5.710938 5.710938 2.796874.734375 5.773437-.101563 7.78125-2.179688l5.664062-5.664062c2.082031-2.007813 2.914062-4.984375 2.183594-7.78125-.734375-2.796875-2.917969-4.980469-5.714844-5.714844-2.796875-.730469-5.773438.105469-7.78125 2.183594zm0 0"/><path d="m72 104.199219c4.417969 0 8-3.582031 8-8v-8c0-4.417969-3.582031-8-8-8s-8 3.582031-8 8v8c0 4.417969 3.582031 8 8 8zm0 0"/><path d="m88.976562 92.488281c2.007813 2.078125 4.984376 2.914063 7.78125 2.179688 2.796876-.730469 4.980469-2.914063 5.710938-5.710938.734375-2.796875-.101562-5.773437-2.179688-7.78125l-5.664062-5.664062c-2.007812-2.078125-4.984375-2.914063-7.78125-2.183594-2.796875.734375-4.980469 2.917969-5.714844 5.714844-.730468 2.796875.101563 5.773437 2.183594 7.78125zm0 0"/><path d="m88 64.199219c0 4.417969 3.582031 8 8 8h8c4.417969 0 8-3.582031 8-8s-3.582031-8-8-8h-8c-4.417969 0-8 3.582031-8 8zm0 0"/><path d="m88.96875 55.230469c2.121094 0 4.15625-.84375 5.65625-2.34375l5.664062-5.664063c2.078126-2.007812 2.914063-4.980468 2.179688-7.78125-.730469-2.796875-2.914062-4.980468-5.710938-5.710937-2.796874-.734375-5.773437.101562-7.78125 2.179687l-5.664062 5.664063c-2.289062 2.289062-2.972656 5.730469-1.734375 8.71875s4.15625 4.9375 7.390625 4.9375zm0 0"/><path d="m400 24.199219c4.417969 0 8-3.582031 8-8v-8c0-4.417969-3.582031-8-8-8s-8 3.582031-8 8v8c0 4.417969 3.582031 8 8 8zm0 0"/><path d="m377.375 28.886719c3.140625 3.03125 8.128906 2.988281 11.214844-.097657 3.085937-3.085937 3.128906-8.074218.097656-11.214843l-5.664062-5.664063c-3.136719-3.03125-8.128907-2.988281-11.214844.097656-3.085938 3.085938-3.128906 8.078126-.097656 11.214844zm0 0"/><path d="m368 48.199219h8c4.417969 0 8-3.582031 8-8s-3.582031-8-8-8h-8c-4.417969 0-8 3.582031-8 8s3.582031 8 8 8zm0 0"/><path d="m377.375 51.511719-5.664062 5.664062c-2.078126 2.007813-2.914063 4.984375-2.179688 7.78125.730469 2.796875 2.914062 4.980469 5.710938 5.710938 2.796874.734375 5.773437-.101563 7.78125-2.179688l5.664062-5.664062c2.082031-2.007813 2.914062-4.984375 2.183594-7.78125-.734375-2.796875-2.917969-4.980469-5.714844-5.714844-2.796875-.730469-5.773438.105469-7.78125 2.183594zm0 0"/><path d="m400 80.199219c4.417969 0 8-3.582031 8-8v-8c0-4.417969-3.582031-8-8-8s-8 3.582031-8 8v8c0 4.417969 3.582031 8 8 8zm0 0"/><path d="m416.976562 68.488281c2.007813 2.078125 4.984376 2.914063 7.78125 2.179688 2.796876-.730469 4.980469-2.914063 5.710938-5.710938.734375-2.796875-.101562-5.773437-2.179688-7.78125l-5.664062-5.664062c-2.007812-2.078125-4.984375-2.914063-7.78125-2.183594-2.796875.734375-4.980469 2.917969-5.714844 5.714844-.730468 2.796875.101563 5.773437 2.183594 7.78125zm0 0"/><path d="m416 40.199219c0 4.417969 3.582031 8 8 8h8c4.417969 0 8-3.582031 8-8s-3.582031-8-8-8h-8c-4.417969 0-8 3.582031-8 8zm0 0"/><path d="m416.96875 31.230469c2.121094 0 4.15625-.84375 5.65625-2.34375l5.664062-5.664063c2.078126-2.007812 2.914063-4.980468 2.179688-7.78125-.730469-2.796875-2.914062-4.980468-5.710938-5.710937-2.796874-.734375-5.773437.101562-7.78125 2.179687l-5.664062 5.664063c-2.289062 2.289062-2.972656 5.730469-1.734375 8.71875s4.15625 4.9375 7.390625 4.9375zm0 0"/><path d="m160 216.199219c13.253906 0 24-10.746094 24-24 0-13.253907-10.746094-24-24-24s-24 10.746093-24 24c0 13.253906 10.746094 24 24 24zm0-32c4.417969 0 8 3.582031 8 8s-3.582031 8-8 8-8-3.582031-8-8 3.582031-8 8-8zm0 0"/><path d="m232 152.199219c26.507812 0 48-21.488281 48-48 0-26.507813-21.492188-48-48-48s-48 21.492187-48 48c.027344 26.5 21.5 47.972656 48 48zm0-80c17.671875 0 32 14.328125 32 32s-14.328125 32-32 32-32-14.328125-32-32 14.328125-32 32-32zm0 0"/><path d="m344 184.199219c17.671875 0 32-14.328125 32-32s-14.328125-32-32-32-32 14.328125-32 32 14.328125 32 32 32zm0-48c8.835938 0 16 7.164062 16 16 0 8.835937-7.164062 16-16 16s-16-7.164063-16-16c0-8.835938 7.164062-16 16-16zm0 0"/><path d="m280 176.199219c0-4.417969-3.582031-8-8-8s-8 3.582031-8 8v8c0 4.417969 3.582031 8 8 8s8-3.582031 8-8zm0 0"/><path d="m256 192.199219h-8c-4.417969 0-8 3.582031-8 8s3.582031 8 8 8h8c4.417969 0 8-3.582031 8-8s-3.582031-8-8-8zm0 0"/><path d="m272 232.199219c4.417969 0 8-3.582031 8-8v-8c0-4.417969-3.582031-8-8-8s-8 3.582031-8 8v8c0 4.417969 3.582031 8 8 8zm0 0"/><path d="m288 208.199219h8c4.417969 0 8-3.582031 8-8s-3.582031-8-8-8h-8c-4.417969 0-8 3.582031-8 8s3.582031 8 8 8zm0 0"/></svg>