<svg height="480pt" viewBox="0 0 480 480.00002" width="480pt" xmlns="http://www.w3.org/2000/svg"><path d="m232 256c.03125-20.085938-14.84375-37.078125-34.753906-39.714844-19.914063-2.632812-38.691406 9.910156-43.886719 29.316406-6.507813-3.699218-13.871094-5.628906-21.359375-5.601562-19.703125-.007812-37.003906 13.105469-42.320312 32.078125-.558594-.066406-1.117188-.089844-1.679688-.078125-22.089844 0-40 17.910156-40 40v8h229.199219c1.867187-5.128906 2.816406-10.542969 2.800781-16 0-26.507812-21.492188-48-48-48zm0 0" fill="#e6e7e8"/><path d="m432 64v176h-144v-120h8v-56h24c0 22.089844 17.910156 40 40 40s40-17.910156 40-40zm0 0" fill="#ffb655"/><path d="m432 144 40-40-40-40zm0 0" fill="#ff9811"/><path d="m360 104c22.089844 0 40-17.910156 40-40h-80c0 22.089844 17.910156 40 40 40zm0 0" fill="#ff9811"/><path d="m296 32v88h-64l-12.878906-45.039062-3.121094-10.960938-5.199219 18.160156-10.800781 37.839844h-64v-88zm0 0" fill="#acabb1"/><path d="m136 8h160v24h-160zm0 0" fill="#d8d7da"/><path d="m144 192c0 8.835938-7.164062 16-16 16s-16-7.164062-16-16 7.164062-16 16-16 16 7.164062 16 16zm0 0" fill="#d1d3d4"/><path d="m408 352-4.398438 16-25.042968 91.121094c-1.484375 7.480468-8.050782 12.871094-15.679688 12.878906h-293.757812c-7.628906-.007812-14.195313-5.398438-15.679688-12.878906l-25.042968-91.121094-4.398438-16zm0 0" fill="#78b9eb"/><path d="m416 320h-400c-4.417969 0-8 3.582031-8 8v16c0 4.417969 3.582031 8 8 8h400c4.417969 0 8-3.582031 8-8v-16c0-4.417969-3.582031-8-8-8zm0 0" fill="#3d9ae2"/><path d="m408 352-4.398438 16h-375.203124l-4.398438-16zm0 0" fill="#5aaae7"/><path d="m186.960938 413.601562c8.140624-3.964843 13.234374-12.304687 13.039062-21.363281v-.316406c-.117188-6.347656 3.613281-12.132813 9.441406-14.640625 6.085938-2.652344 13.171875-1.285156 17.839844 3.4375 3.039062 2.964844 4.742188 7.035156 4.71875 11.28125v32c.046875 5.75 3.140625 11.046875 8.128906 13.910156 4.988282 2.867188 11.121094 2.867188 16.109375.011719 4.910157-2.824219 7.882813-8.101563 7.761719-13.761719v-104.160156h-112v72c.027344 8.359375 4.367188 16.117188 11.480469 20.511719s15.992187 4.804687 23.480469 1.089843zm0 0" fill="#d1d3d4"/><path d="m432 71.519531v168.480469h-144v-7.359375c71.777344-26.460937 125.738281-86.832031 144-161.121094zm0 0" fill="#ffa733"/><path d="m145.679688 120c23.539062-9.160156 45.507812-21.925781 65.121093-37.839844l-10.800781 37.839844zm0 0" fill="#898890"/><path d="m296 32v88h-64l-12.878906-45.039062c14.21875-12.636719 26.726562-27.078126 37.199218-42.960938zm0 0" fill="#898890"/><path d="m416 312h-128.6875c.421875-2.648438.652344-5.320312.6875-8-.03125-28.046875-20.785156-51.757812-48.585938-55.503906-3.253906-20.6875-19.542968-36.878906-40.25-40.003906-20.707031-3.125-41.050781 7.535156-50.269531 26.339843-26-8.957031-54.480469 3.902344-64.949219 29.335938-24.835937 2.136719-43.917968 22.90625-43.945312 47.832031h-24c-8.835938 0-16 7.164062-16 16v16c0 8.835938 7.164062 16 16 16h1.902344l27.699218 100.703125c2.273438 11.195313 12.097657 19.253906 23.519532 19.296875h293.757812c11.238282.015625 20.972656-7.792969 23.394532-18.769531l27.824218-101.230469h1.902344c8.835938 0 16-7.164062 16-16v-16c0-8.835938-7.164062-16-16-16zm-160 112.160156c.105469 2.664063-1.195312 5.191406-3.425781 6.65625-2.679688 1.589844-6.015625 1.589844-8.695313 0-2.394531-1.4375-3.863281-4.023437-3.878906-6.816406v-32c.042969-6.308594-2.46875-12.371094-6.960938-16.800781-1.011718-1.03125-2.117187-1.96875-3.304687-2.800781-.351563-.253907-.710937-.46875-1.070313-.695313-.871093-.554687-1.78125-1.054687-2.71875-1.488281-.386718-.175782-.761718-.367188-1.160156-.519532-1.296875-.523437-2.632812-.933593-4-1.222656h-.160156c-1.339844-.246094-2.695312-.378906-4.058594-.402344-.167968 0-.328125-.046874-.496094-.046874-.167968 0-.550781.074218-.796874.082031-1.050782.03125-2.101563.132812-3.136719.300781-.449219.066406-.890625.128906-1.335938.226562-1.46875.296876-2.914062.71875-4.3125 1.253907-8.929687 3.808593-14.65625 12.648437-14.488281 22.351562.183594 5.890625-3.042969 11.359375-8.289062 14.050781-5.242188 2.625-11.480469 2.308594-16.429688-.839843-4.550781-2.960938-7.292969-8.023438-7.28125-13.449219v-64h96zm-167.433594-144.160156c3.96875.546875 7.730469-1.925781 8.800782-5.785156 4.378906-15.5 18.523437-26.210938 34.632812-26.214844 6.097656-.019531 12.09375 1.550781 17.398438 4.550781 2.15625 1.230469 4.757812 1.386719 7.042968.433594 2.289063-.957031 4.003906-2.917969 4.648438-5.3125 3.796875-14.128906 16.703125-23.875 31.332031-23.660156 14.628906.214843 27.246094 10.335937 30.625 24.574219-9.53125 1.179687-18.726563 4.261718-27.046875 9.0625-3.675781 2.273437-4.882812 7.058593-2.71875 10.804687s6.910156 5.09375 10.71875 3.042969c8.511719-4.917969 18.171875-7.503906 28-7.496094 22.082031.027344 39.972656 17.917969 40 40 .007812 2.6875-.257812 5.367188-.800781 8h-215.199219c.042969-8.574219 3.503906-16.773438 9.621094-22.78125 6.113281-6.007812 14.375-9.328125 22.945312-9.21875zm-72.566406 48h128v16h-128zm354.71875 129.527344c-.75 3.742187-4.023438 6.445312-7.839844 6.472656h-293.757812c-4.015625-.074219-7.394532-3.03125-8-7l-26.625-97h109.503906v32c-.027344 10.84375 5.453125 20.957031 14.550781 26.855469 9.503907 6.085937 21.464844 6.859375 31.671875 2.046875 11.132813-5.300782 18.097656-16.65625 17.777344-28.980469-.09375-3.058594 1.625-5.882813 4.382812-7.203125 3.160157-1.4375 6.882813-.742188 9.3125 1.738281 1.496094 1.453125 2.328126 3.457031 2.304688 5.542969v32c.035156 8.371094 4.40625 16.128906 11.550781 20.496094 1.839844 1.117187 3.824219 1.976562 5.898438 2.550781.695312.199219 1.429687.191406 2.152343.328125 1.359376.308594 2.746094.496094 4.140626.5625h.25c1.324218-.058594 2.644531-.21875 3.945312-.480469.664062-.113281 1.328125-.089843 1.992188-.25 2.105468-.503906 4.144531-1.261719 6.070312-2.253906 7.535156-4.183594 12.152344-12.183594 12-20.800781v-64.152344h125.503906zm45.28125-113.527344h-144v-16h144zm0 0"/><path d="m477.65625 98.34375-40-40c-.664062-.640625-1.4375-1.160156-2.28125-1.535156-.226562-.097656-.457031-.179688-.695312-.25-.710938-.253906-1.460938-.40625-2.214844-.445313-.183594-.035156-.3125-.113281-.464844-.113281h-128v-48c0-4.417969-3.582031-8-8-8h-160c-4.417969 0-8 3.582031-8 8v112c0 4.417969 3.582031 8 8 8h64c3.570312-.003906 6.710938-2.371094 7.6875-5.808594l8.3125-29.070312 8.3125 29.070312c.976562 3.4375 4.117188 5.804688 7.6875 5.808594h48v112c0 4.417969 3.582031 8 8 8h144c4.417969 0 8-3.582031 8-8v-92.6875l37.65625-37.65625c3.121094-3.125 3.121094-8.1875 0-11.3125zm-86.664062-26.34375c-3.636719 14.144531-16.386719 24.03125-30.992188 24.03125s-27.355469-9.886719-30.992188-24.03125zm-246.992188-56h144v8h-144zm79.6875 45.808594c-.984375-3.425782-4.121094-5.789063-7.6875-5.789063s-6.703125 2.363281-7.6875 5.789063l-14.34375 50.191406h-49.96875v-72h144v72h-49.96875zm200.3125 170.191406h-128v-104c4.417969 0 8-3.582031 8-8v-48h8.71875c3.882812 23.085938 23.871094 39.992188 47.28125 39.992188s43.398438-16.90625 47.28125-39.992188h16.71875zm16-107.3125v-41.375l20.6875 20.6875zm0 0"/><path d="m40 200c4.417969 0 8-3.582031 8-8v-8c0-4.417969-3.582031-8-8-8s-8 3.582031-8 8v8c0 4.417969 3.582031 8 8 8zm0 0"/><path d="m16 216h8c4.417969 0 8-3.582031 8-8s-3.582031-8-8-8h-8c-4.417969 0-8 3.582031-8 8s3.582031 8 8 8zm0 0"/><path d="m40 216c-4.417969 0-8 3.582031-8 8v8c0 4.417969 3.582031 8 8 8s8-3.582031 8-8v-8c0-4.417969-3.582031-8-8-8zm0 0"/><path d="m56 216h8c4.417969 0 8-3.582031 8-8s-3.582031-8-8-8h-8c-4.417969 0-8 3.582031-8 8s3.582031 8 8 8zm0 0"/><path d="m128 216c13.253906 0 24-10.746094 24-24s-10.746094-24-24-24-24 10.746094-24 24 10.746094 24 24 24zm0-32c4.417969 0 8 3.582031 8 8s-3.582031 8-8 8-8-3.582031-8-8 3.582031-8 8-8zm0 0"/></svg>