<svg height="480pt" viewBox="0 -72 480 480" width="480pt" xmlns="http://www.w3.org/2000/svg"><path d="m184 304c.015625-2.734375-.472656-5.445312-1.441406-8-4.234375-11.628906-16.664063-18.082031-28.613282-14.855469-11.949218 3.226563-19.441406 15.058594-17.246093 27.242188 2.191406 12.179687 13.339843 20.65625 25.660156 19.511719 12.324219-1.140626 21.722656-11.523438 21.640625-23.898438zm0 0" fill="#787680"/><path d="m368 296c.027344 17.632812 14.332031 31.914062 31.96875 31.902344 17.632812-.007813 31.925781-14.300782 31.933594-31.933594.011718-17.636719-14.269532-31.941406-31.902344-31.96875-17.671875 0-32 14.328125-32 32zm0 0" fill="#787680"/><path d="m344 232h-120l-64 32v16c10.171875-.050781 19.242188 6.386719 22.558594 16h185.441406c-.019531-11.4375 6.082031-22.015625 15.988281-27.730469 9.910157-5.714843 22.121094-5.695312 32.011719.050781v-36.320312zm0 0" fill="#ffa733"/><path d="m248 208h96v24h-96zm0 0" fill="#787680"/><path d="m360 208v-16c0-8.835938-7.164062-16-16-16h-96c-8.835938 0-16 7.164062-16 16v16zm0 0" fill="#e6e7e8"/><path d="m392 16v216h24v-200h56v-24h-72c-4.417969 0-8 3.582031-8 8zm0 0" fill="#787680"/><path d="m424 40h48c4.417969 0 8-3.582031 8-8v-24c0-4.417969-3.582031-8-8-8h-72c-8.835938 0-16 7.164062-16 16v208h-32v-8h8c4.417969 0 8-3.582031 8-8v-16c0-13.253906-10.746094-24-24-24h-96c-13.253906 0-24 10.746094-24 24v16c0 4.417969 3.582031 8 8 8h8v8h-16c-1.238281-.011719-2.460938.261719-3.574219.800781l-64 32c-2.726562 1.359375-4.441406 4.152344-4.425781 7.199219v9.136719c-9.710938 2.410156-17.707031 9.277343-21.5625 18.515625-3.851562 9.234375-3.105469 19.75 2.011719 28.347656h-12.449219v-8c0-4.417969-3.582031-8-8-8s-8 3.582031-8 8v8h-16v-8c0-4.417969-3.582031-8-8-8s-8 3.582031-8 8v8h-16v-40c0-4.417969-3.582031-8-8-8s-8 3.582031-8 8v40h-16v-16c0-4.417969-3.582031-8-8-8s-8 3.582031-8 8v16c-4.417969 0-8 3.582031-8 8s3.582031 8 8 8h464c4.417969 0 8-3.582031 8-8s-3.582031-8-8-8h-40.207031c5.292969-6.882812 8.175781-15.316406 8.207031-24-.019531-12.566406-5.945312-24.394531-16-31.9375zm-24-24h64v8h-48c-4.417969 0-8 3.582031-8 8v192h-8zm-160 176c0-4.417969 3.582031-8 8-8h96c4.417969 0 8 3.582031 8 8v8h-112zm16 24h80v8h-80zm-88 52.945312 57.886719-28.945312h182.113281v16.800781c-.296875-.066406-.609375-.039062-.902344-.097656-2.339844-.449219-4.714844-.683594-7.097656-.703125-2.554688.019531-5.097656.289062-7.601562.800781-.796876.160157-1.597657.429688-2.359376.640625-1.628906.390625-3.230468.882813-4.800781 1.480469-.878906.351563-1.703125.796875-2.550781 1.191406-1.371094.644531-2.707031 1.363281-4 2.152344-.800781.527344-1.597656 1.085937-2.398438 1.671875-1.179687.859375-2.308593 1.789062-3.378906 2.78125-.71875.664062-1.414062 1.328125-2.085937 2.042969-1.003907 1.089843-1.949219 2.238281-2.832031 3.429687-.558594.753906-1.144532 1.480469-1.65625 2.28125-.851563 1.367188-1.625 2.78125-2.3125 4.238282-.359376.746093-.800782 1.449218-1.09375 2.21875-.886719 2.15625-1.578126 4.382812-2.074219 6.664062 0 .140625-.09375.269531-.128907.414062h-173.039062c-.175781-.304687-.421875-.550781-.609375-.847656-.769531-1.265625-1.632813-2.472656-2.574219-3.617187-.390625-.472657-.800781-.910157-1.199218-1.359375-.984376-1.050782-2.042969-2.03125-3.160157-2.9375-.382812-.308594-.738281-.644532-1.136719-.941406-1.527343-1.144532-3.160156-2.144532-4.871093-2.992188-.296875-.152344-.609375-.242188-.914063-.375-1.449218-.660156-2.945312-1.210938-4.480468-1.648438-.253907-.074218-.484376-.210937-.742188-.273437zm24 35.054688h168.800781c1.234375 5.820312 3.761719 11.289062 7.398438 16h-180.648438c2.878907-4.84375 4.417969-10.367188 4.449219-16zm-48 0c.078125-7.773438 5.734375-14.363281 13.40625-15.625 7.667969-1.257812 15.132812 3.175781 17.699219 10.511719.605469 1.636719.90625 3.367187.894531 5.113281 0 8.835938-7.164062 16-16 16s-16-7.164062-16-16zm232-8c0-13.253906 10.746094-24 24-24s24 10.746094 24 24-10.746094 24-24 24-24-10.746094-24-24zm0 0"/><path d="m164.480469 297.359375c-.445313-.300781-.929688-.542969-1.441407-.71875-.476562-.242187-.996093-.40625-1.527343-.480469-2.609375-.488281-5.289063.316406-7.199219 2.160156-1.460938 1.53125-2.289062 3.5625-2.3125 5.679688 0 4.417969 3.582031 8 8 8s8-3.582031 8-8c-.03125-2.117188-.859375-4.148438-2.320312-5.679688-.382813-.34375-.78125-.664062-1.199219-.960937zm0 0"/><path d="m394.320312 290.320312c-1.464843 1.53125-2.292968 3.5625-2.320312 5.679688-.027344 2.675781 1.300781 5.1875 3.527344 6.671875 2.226562 1.484375 5.050781 1.742187 7.511718.6875 2.011719-.726563 3.59375-2.308594 4.320313-4.320313.410156-.960937.628906-1.992187.640625-3.039062.019531-3.25-1.929688-6.1875-4.933594-7.433594-3-1.246094-6.457031-.554687-8.746094 1.753906zm0 0"/></svg>