<svg height="480pt" viewBox="-24 0 480 480.00009" width="480pt" xmlns="http://www.w3.org/2000/svg"><path d="m248 321.441406v-297.441406c0-8.835938-7.164062-16-16-16s-16 7.164062-16 16v297.441406c10.582031-1.921875 21.417969-1.921875 32 0zm0 0" fill="#787680"/><path d="m400 320c0 8.835938-7.164062 16-16 16s-16-7.164062-16-16 7.164062-16 16-16 16 7.164062 16 16zm0 0" fill="#d1d3d4"/><path d="m56 344c0 13.253906-10.746094 24-24 24s-24-10.746094-24-24 10.746094-24 24-24 24 10.746094 24 24zm0 0" fill="#bcbec0"/><path d="m216 304h32v32h-32zm0 0" fill="#6c6a73"/><path d="m144 440h176c8.835938 0 16-7.164062 16-16s-7.164062-16-16-16h-176c-8.835938 0-16 7.164062-16 16s7.164062 16 16 16zm0 0" fill="#3e3d42"/><path d="m320 408h-176c0-48.601562 39.398438-88 88-88s88 39.398438 88 88zm0 0" fill="#57565c"/><path d="m320 408h-176c-.007812-5.367188.472656-10.722656 1.441406-16h173.117188c.96875 5.277344 1.449218 10.632812 1.441406 16zm0 0" fill="#4a494f"/><path d="m136.296875 401.382812c-11.117187 3.75-17.878906 15.007813-15.964844 26.585938 1.914063 11.574219 11.933594 20.058594 23.667969 20.03125h176c11.734375.027344 21.753906-8.457031 23.667969-20.03125 1.914062-11.578125-4.847657-22.835938-15.964844-26.585938-2.800781-41.214843-31.699219-75.996093-71.703125-86.304687v-291.078125c0-13.253906-10.746094-24-24-24s-24 10.746094-24 24v291.078125c-40.003906 10.3125-68.898438 45.09375-71.703125 86.304687zm183.703125 30.617188h-176c-4.417969 0-8-3.582031-8-8s3.582031-8 8-8h176c4.417969 0 8 3.582031 8 8s-3.582031 8-8 8zm-96-408c0-4.417969 3.582031-8 8-8s8 3.582031 8 8v288.328125c-2.648438-.214844-5.320312-.328125-8-.328125s-5.351562.113281-8 .328125zm-6.542969 305.3125c4.796875-.878906 9.664063-1.320312 14.542969-1.3125 2.457031 0 4.921875.113281 7.351562.328125 2.433594.214844 4.839844.535156 7.199219.976563 35.011719 6.441406 61.539063 35.269531 65.050781 70.695312h-159.203124c3.515624-35.425781 30.046874-64.25 65.058593-70.6875zm0 0"/><path d="m344 464h-224c-4.417969 0-8 3.582031-8 8s3.582031 8 8 8h224c4.417969 0 8-3.582031 8-8s-3.582031-8-8-8zm0 0"/><path d="m422.6875 456.113281-48 8c-4.097656.691407-6.980469 4.40625-6.636719 8.546875.339844 4.140625 3.792969 7.328125 7.949219 7.339844.441406.003906.882812-.035156 1.320312-.113281l48-8c2.890626-.390625 5.335938-2.324219 6.386719-5.042969s.539063-5.792969-1.335937-8.027344-4.816406-3.269531-7.675782-2.703125zm0 0"/><path d="m376 440c1.234375.011719 2.457031-.261719 3.566406-.800781l48-24c3.957032-1.972657 5.5625-6.78125 3.585938-10.734375-1.976563-3.957032-6.78125-5.558594-10.734375-3.585938l-48 24c-3.28125 1.679688-4.988281 5.382813-4.140625 8.964844.851562 3.585938 4.039062 6.128906 7.722656 6.15625zm0 0"/><path d="m89.3125 464.113281-48-8c-2.859375-.566406-5.800781.46875-7.675781 2.703125s-2.386719 5.308594-1.335938 8.027344 3.496094 4.652344 6.386719 5.042969l48 8c.433594.078125.871094.113281 1.3125.113281 4.152344-.015625 7.605469-3.207031 7.945312-7.34375.339844-4.140625-2.546874-7.851562-6.640624-8.542969zm0 0"/><path d="m91.574219 424.839844-48-24c-3.953125-1.976563-8.757813-.371094-10.734375 3.585937-1.976563 3.953125-.371094 8.757813 3.585937 10.734375l48 24c3.953125 1.976563 8.757813.371094 10.734375-3.585937 1.976563-3.953125.371094-8.757813-3.585937-10.734375zm0 0"/><path d="m112 264c4.417969 0 8-3.582031 8-8v-8c0-4.417969-3.582031-8-8-8s-8 3.582031-8 8v8c0 4.417969 3.582031 8 8 8zm0 0"/><path d="m96 264h-8c-4.417969 0-8 3.582031-8 8s3.582031 8 8 8h8c4.417969 0 8-3.582031 8-8s-3.582031-8-8-8zm0 0"/><path d="m120 296v-8c0-4.417969-3.582031-8-8-8s-8 3.582031-8 8v8c0 4.417969 3.582031 8 8 8s8-3.582031 8-8zm0 0"/><path d="m128 280h8c4.417969 0 8-3.582031 8-8s-3.582031-8-8-8h-8c-4.417969 0-8 3.582031-8 8s3.582031 8 8 8zm0 0"/><path d="m368 192c4.417969 0 8-3.582031 8-8v-8c0-4.417969-3.582031-8-8-8s-8 3.582031-8 8v8c0 4.417969 3.582031 8 8 8zm0 0"/><path d="m352 192h-8c-4.417969 0-8 3.582031-8 8s3.582031 8 8 8h8c4.417969 0 8-3.582031 8-8s-3.582031-8-8-8zm0 0"/><path d="m368 208c-4.417969 0-8 3.582031-8 8v8c0 4.417969 3.582031 8 8 8s8-3.582031 8-8v-8c0-4.417969-3.582031-8-8-8zm0 0"/><path d="m384 208h8c4.417969 0 8-3.582031 8-8s-3.582031-8-8-8h-8c-4.417969 0-8 3.582031-8 8s3.582031 8 8 8zm0 0"/><path d="m408 320c0-13.253906-10.746094-24-24-24s-24 10.746094-24 24 10.746094 24 24 24 24-10.746094 24-24zm-32 0c0-4.417969 3.582031-8 8-8s8 3.582031 8 8-3.582031 8-8 8-8-3.582031-8-8zm0 0"/><path d="m64 344c0-17.671875-14.328125-32-32-32s-32 14.328125-32 32 14.328125 32 32 32 32-14.328125 32-32zm-32 16c-8.835938 0-16-7.164062-16-16s7.164062-16 16-16 16 7.164062 16 16-7.164062 16-16 16zm0 0"/></svg>