<svg height="480pt" viewBox="0 -12 480 480" width="480pt" xmlns="http://www.w3.org/2000/svg"><path d="m16 448h352c4.417969 0 8-3.582031 8-8v-24h-368v24c0 4.417969 3.582031 8 8 8zm0 0" fill="#ffa733"/><path d="m376 296v120h-368v-32c0-53.019531 42.980469-96 96-96h96v16c0 17.671875 14.328125 32 32 32h80c17.671875 0 32-14.328125 32-32v-8c0-4.417969 3.582031-8 8-8h16c4.417969 0 8 3.582031 8 8zm0 0" fill="#e6e7e8"/><path d="m376 296v120h-219.441406c43.480468-22.496094 84.589844-49.296875 122.722656-80h32.71875c17.671875 0 32-14.328125 32-32v-8c0-4.417969 3.582031-8 8-8h16c4.417969 0 8 3.582031 8 8zm0 0" fill="#d1d3d4"/><path d="m216 168v40c0 4.417969 3.582031 8 8 8h240c4.417969 0 8-3.582031 8-8v-40zm0 0" fill="#e6e7e8"/><path d="m472 24v144h-256v-32c0-26.507812 21.492188-48 48-48h176v-48h-112c-8.835938 0-16-7.164062-16-16s7.164062-16 16-16h128c8.824219.027344 15.972656 7.175781 16 16zm0 0" fill="#ff7956"/><path d="m160 216c0 8.835938-7.164062 16-16 16s-16-7.164062-16-16 7.164062-16 16-16 16 7.164062 16 16zm0 0" fill="#78b9eb"/><path d="m472 36.320312v131.679688h-179.441406c43.480468-22.496094 84.589844-49.296875 122.722656-80h24.71875v-21.121094c10.878906-9.597656 21.519531-19.839844 32-30.558594zm0 0" fill="#ff6243"/><path d="m368 280h-16c-8.835938 0-16 7.164062-16 16v8c0 13.253906-10.746094 24-24 24h-80c-13.253906 0-24-10.746094-24-24v-16c0-4.417969-3.582031-8-8-8h-24v-8c0-4.417969-3.582031-8-8-8s-8 3.582031-8 8v8h-16v-8c0-4.417969-3.582031-8-8-8s-8 3.582031-8 8v8h-16v-8c0-4.417969-3.582031-8-8-8s-8 3.582031-8 8v8.40625c-54.121094 4.207031-95.9179688 49.308594-96 103.59375v56c0 8.835938 7.164062 16 16 16h352c8.835938 0 16-7.164062 16-16v-144c0-8.835938-7.164062-16-16-16zm-352 104c.058594-45.46875 34.722656-83.421875 80-87.59375v7.59375c0 4.417969 3.582031 8 8 8s8-3.582031 8-8v-8h16v8c0 4.417969 3.582031 8 8 8s8-3.582031 8-8v-8h16v8c0 4.417969 3.582031 8 8 8s8-3.582031 8-8v-8h16v8c.027344 22.082031 17.917969 39.972656 40 40h80c22.082031-.027344 39.972656-17.917969 40-40v-8h16v112h-352zm352 56h-352v-16h352zm0 0"/><path d="m456 0h-128c-13.253906 0-24 10.746094-24 24s10.746094 24 24 24h104v32h-168c-30.914062.035156-55.964844 25.085938-56 56v72c0 8.835938 7.164062 16 16 16h240c8.835938 0 16-7.164062 16-16v-184c0-13.253906-10.746094-24-24-24zm-232 136c.027344-22.082031 17.917969-39.972656 40-40h176c4.417969 0 8-3.582031 8-8v-48c0-4.417969-3.582031-8-8-8h-112c-4.417969 0-8-3.582031-8-8s3.582031-8 8-8h128c4.417969 0 8 3.582031 8 8v136h-240zm240 72h-16v-16c0-4.417969-3.582031-8-8-8s-8 3.582031-8 8v16h-16v-16c0-4.417969-3.582031-8-8-8s-8 3.582031-8 8v16h-16v-16c0-4.417969-3.582031-8-8-8s-8 3.582031-8 8v16h-16v-16c0-4.417969-3.582031-8-8-8s-8 3.582031-8 8v16h-16v-16c0-4.417969-3.582031-8-8-8s-8 3.582031-8 8v16h-16v-16c0-4.417969-3.582031-8-8-8s-8 3.582031-8 8v16h-16v-16c0-4.417969-3.582031-8-8-8s-8 3.582031-8 8v16h-16v-32h240zm0 0"/><path d="m48 160c4.417969 0 8-3.582031 8-8v-8c0-4.417969-3.582031-8-8-8s-8 3.582031-8 8v8c0 4.417969 3.582031 8 8 8zm0 0"/><path d="m24 176h8c4.417969 0 8-3.582031 8-8s-3.582031-8-8-8h-8c-4.417969 0-8 3.582031-8 8s3.582031 8 8 8zm0 0"/><path d="m48 176c-4.417969 0-8 3.582031-8 8v8c0 4.417969 3.582031 8 8 8s8-3.582031 8-8v-8c0-4.417969-3.582031-8-8-8zm0 0"/><path d="m64 176h8c4.417969 0 8-3.582031 8-8s-3.582031-8-8-8h-8c-4.417969 0-8 3.582031-8 8s3.582031 8 8 8zm0 0"/><path d="m440 312c4.417969 0 8-3.582031 8-8v-8c0-4.417969-3.582031-8-8-8s-8 3.582031-8 8v8c0 4.417969 3.582031 8 8 8zm0 0"/><path d="m424 312h-8c-4.417969 0-8 3.582031-8 8s3.582031 8 8 8h8c4.417969 0 8-3.582031 8-8s-3.582031-8-8-8zm0 0"/><path d="m440 328c-4.417969 0-8 3.582031-8 8v8c0 4.417969 3.582031 8 8 8s8-3.582031 8-8v-8c0-4.417969-3.582031-8-8-8zm0 0"/><path d="m464 312h-8c-4.417969 0-8 3.582031-8 8s3.582031 8 8 8h8c4.417969 0 8-3.582031 8-8s-3.582031-8-8-8zm0 0"/><path d="m144 240c13.253906 0 24-10.746094 24-24s-10.746094-24-24-24-24 10.746094-24 24 10.746094 24 24 24zm0-32c4.417969 0 8 3.582031 8 8s-3.582031 8-8 8-8-3.582031-8-8 3.582031-8 8-8zm0 0"/><path d="m136 56c4.417969 0 8-3.582031 8-8v-8c0-4.417969-3.582031-8-8-8s-8 3.582031-8 8v8c0 4.417969 3.582031 8 8 8zm0 0"/><path d="m113.375 60.6875c3.140625 3.03125 8.128906 2.988281 11.214844-.097656 3.085937-3.085938 3.128906-8.074219.097656-11.214844l-5.65625-5.664062c-2.007812-2.078126-4.980469-2.914063-7.78125-2.179688-2.796875.730469-4.980469 2.914062-5.710938 5.710938-.734374 2.796874.101563 5.773437 2.179688 7.78125zm0 0"/><path d="m104 80h8c4.417969 0 8-3.582031 8-8s-3.582031-8-8-8h-8c-4.417969 0-8 3.582031-8 8s3.582031 8 8 8zm0 0"/><path d="m124.6875 83.3125c-3.125-3.125-8.1875-3.125-11.3125 0l-5.65625 5.664062c-2.078125 2.007813-2.914062 4.984376-2.179688 7.78125.730469 2.796876 2.914063 4.980469 5.710938 5.710938 2.800781.734375 5.773438-.101562 7.78125-2.179688l5.65625-5.664062c3.125-3.125 3.125-8.1875 0-11.3125zm0 0"/><path d="m136 112c4.417969 0 8-3.582031 8-8v-8c0-4.417969-3.582031-8-8-8s-8 3.582031-8 8v8c0 4.417969 3.582031 8 8 8zm0 0"/><path d="m152.96875 100.289062c3.136719 3.03125 8.128906 2.988282 11.214844-.097656 3.085937-3.085937 3.128906-8.078125.097656-11.214844l-5.65625-5.664062c-3.140625-3.03125-8.128906-2.988281-11.214844.097656-3.085937 3.085938-3.128906 8.074219-.097656 11.214844zm0 0"/><path d="m152 72c0 4.417969 3.582031 8 8 8h8c4.417969 0 8-3.582031 8-8s-3.582031-8-8-8h-8c-4.417969 0-8 3.582031-8 8zm0 0"/><path d="m152.96875 63.03125c2.121094 0 4.15625-.84375 5.65625-2.34375l5.65625-5.664062c2.078125-2.007813 2.914062-4.984376 2.179688-7.78125-.730469-2.796876-2.914063-4.980469-5.710938-5.710938-2.800781-.734375-5.773438.101562-7.78125 2.179688l-5.65625 5.664062c-2.289062 2.289062-2.972656 5.730469-1.734375 8.71875s4.15625 4.9375 7.390625 4.9375zm0 0"/></svg>