<svg height="480pt" viewBox="0 0 480 480" width="480pt" xmlns="http://www.w3.org/2000/svg"><path d="m472 296v136c0 22.089844-17.910156 40-40 40h-384c-22.089844 0-40-17.910156-40-40v-136c0 17.671875 14.328125 32 32 32h400c17.671875 0 32-14.328125 32-32zm0 0" fill="#bcbec0"/><path d="m440 216h-400c-17.671875 0-32 14.328125-32 32v48c0 17.671875 14.328125 32 32 32h400c17.671875 0 32-14.328125 32-32v-48c0-17.671875-14.328125-32-32-32zm0 0" fill="#d1d3d4"/><path d="m72 376c0 8.835938-7.164062 16-16 16s-16-7.164062-16-16 7.164062-16 16-16 16 7.164062 16 16zm0 0" fill="#d1d3d4"/><path d="m240 352c13.253906 0 24-10.746094 24-24h-48c0 13.253906 10.746094 24 24 24zm0 0" fill="#a7a9ac"/><g fill="#bcbec0"><path d="m96 280c0 8.835938-7.164062 16-16 16s-16-7.164062-16-16 7.164062-16 16-16 16 7.164062 16 16zm0 0"/><path d="m192 256c22.089844 0 40-17.910156 40-40h-80c0 22.089844 17.910156 40 40 40zm0 0"/><path d="m336 280c0 8.835938-7.164062 16-16 16s-16-7.164062-16-16 7.164062-16 16-16 16 7.164062 16 16zm0 0"/><path d="m440 264c0 8.835938-7.164062 16-16 16s-16-7.164062-16-16 7.164062-16 16-16 16 7.164062 16 16zm0 0"/></g><path d="m232 80c0 13.253906-10.746094 24-24 24s-24-10.746094-24-24 10.746094-24 24-24 24 10.746094 24 24zm0 0" fill="#d1d3d4"/><path d="m336 152c0 8.835938-7.164062 16-16 16s-16-7.164062-16-16 7.164062-16 16-16 16 7.164062 16 16zm0 0" fill="#e6e7e8"/><path d="m472 296v136c0 22.089844-17.910156 40-40 40h-345.199219c84.605469-33.445312 162.289063-82.269531 229.121094-144h124.078125c17.671875 0 32-14.328125 32-32zm0 0" fill="#a7a9ac"/><path d="m176 424c0 8.835938-7.164062 16-16 16s-16-7.164062-16-16 7.164062-16 16-16 16 7.164062 16 16zm0 0" fill="#d1d3d4"/><path d="m344 408c0 13.253906-10.746094 24-24 24s-24-10.746094-24-24 10.746094-24 24-24 24 10.746094 24 24zm0 0" fill="#d1d3d4"/><path d="m440 208h-400c-22.082031.027344-39.9726562 17.917969-40 40v184c.0273438 26.5 21.5 47.972656 48 48h384c26.5-.027344 47.972656-21.5 48-48v-184c-.027344-22.082031-17.917969-39.972656-40-40zm-217.007812 16c-3.636719 14.144531-16.386719 24.03125-30.992188 24.03125s-27.355469-9.886719-30.992188-24.03125zm-206.992188 24c0-13.253906 10.746094-24 24-24h104.71875c3.882812 23.085938 23.871094 39.992188 47.28125 39.992188s43.398438-16.90625 47.28125-39.992188h200.71875c13.253906 0 24 10.746094 24 24v48c0 13.253906-10.746094 24-24 24h-400c-13.253906 0-24-10.746094-24-24zm237.847656 88c-2.859375 4.941406-8.136718 7.984375-13.847656 7.984375s-10.988281-3.042969-13.847656-7.984375zm178.152344 128h-384c-17.671875 0-32-14.328125-32-32v-104.207031c6.882812 5.292969 15.316406 8.175781 24 8.207031h169.136719c3.589843 14.113281 16.300781 23.992188 30.863281 23.992188s27.273438-9.878907 30.863281-23.992188h169.136719c8.683594-.03125 17.117188-2.914062 24-8.207031v104.207031c0 17.671875-14.328125 32-32 32zm0 0"/><path d="m56 352c-13.253906 0-24 10.746094-24 24s10.746094 24 24 24 24-10.746094 24-24-10.746094-24-24-24zm0 32c-4.417969 0-8-3.582031-8-8s3.582031-8 8-8 8 3.582031 8 8-3.582031 8-8 8zm0 0"/><path d="m160 400c-13.253906 0-24 10.746094-24 24s10.746094 24 24 24 24-10.746094 24-24-10.746094-24-24-24zm0 32c-4.417969 0-8-3.582031-8-8s3.582031-8 8-8 8 3.582031 8 8-3.582031 8-8 8zm0 0"/><path d="m320 376c-17.671875 0-32 14.328125-32 32s14.328125 32 32 32 32-14.328125 32-32-14.328125-32-32-32zm0 48c-8.835938 0-16-7.164062-16-16s7.164062-16 16-16 16 7.164062 16 16-7.164062 16-16 16zm0 0"/><path d="m80 304c13.253906 0 24-10.746094 24-24s-10.746094-24-24-24-24 10.746094-24 24 10.746094 24 24 24zm0-32c4.417969 0 8 3.582031 8 8s-3.582031 8-8 8-8-3.582031-8-8 3.582031-8 8-8zm0 0"/><path d="m320 304c13.253906 0 24-10.746094 24-24s-10.746094-24-24-24-24 10.746094-24 24 10.746094 24 24 24zm0-32c4.417969 0 8 3.582031 8 8s-3.582031 8-8 8-8-3.582031-8-8 3.582031-8 8-8zm0 0"/><path d="m424 288c13.253906 0 24-10.746094 24-24s-10.746094-24-24-24-24 10.746094-24 24 10.746094 24 24 24zm0-32c4.417969 0 8 3.582031 8 8s-3.582031 8-8 8-8-3.582031-8-8 3.582031-8 8-8zm0 0"/><path d="m208 112c17.671875 0 32-14.328125 32-32s-14.328125-32-32-32-32 14.328125-32 32 14.328125 32 32 32zm0-48c8.835938 0 16 7.164062 16 16s-7.164062 16-16 16-16-7.164062-16-16 7.164062-16 16-16zm0 0"/><path d="m320 176c13.253906 0 24-10.746094 24-24s-10.746094-24-24-24-24 10.746094-24 24 10.746094 24 24 24zm0-32c4.417969 0 8 3.582031 8 8s-3.582031 8-8 8-8-3.582031-8-8 3.582031-8 8-8zm0 0"/><path d="m424 64c4.417969 0 8-3.582031 8-8v-8c0-4.417969-3.582031-8-8-8s-8 3.582031-8 8v8c0 4.417969 3.582031 8 8 8zm0 0"/><path d="m401.375 68.6875c2.007812 2.082031 4.984375 2.914062 7.78125 2.183594 2.796875-.734375 4.980469-2.917969 5.714844-5.714844.730468-2.796875-.101563-5.773438-2.183594-7.78125l-5.664062-5.65625c-3.136719-3.03125-8.128907-2.988281-11.214844.097656-3.085938 3.085938-3.128906 8.078125-.097656 11.214844zm0 0"/><path d="m392 88h8c4.417969 0 8-3.582031 8-8s-3.582031-8-8-8h-8c-4.417969 0-8 3.582031-8 8s3.582031 8 8 8zm0 0"/><path d="m401.375 91.3125-5.664062 5.65625c-2.078126 2.007812-2.914063 4.980469-2.179688 7.78125.730469 2.796875 2.914062 4.980469 5.710938 5.710938 2.796874.734374 5.773437-.101563 7.78125-2.179688l5.664062-5.65625c2.082031-2.007812 2.914062-4.984375 2.183594-7.78125-.734375-2.796875-2.917969-4.980469-5.714844-5.714844-2.796875-.730468-5.773438.101563-7.78125 2.183594zm0 0"/><path d="m424 120c4.417969 0 8-3.582031 8-8v-8c0-4.417969-3.582031-8-8-8s-8 3.582031-8 8v8c0 4.417969 3.582031 8 8 8zm0 0"/><path d="m440.976562 108.28125c3.136719 3.03125 8.128907 2.988281 11.214844-.097656 3.085938-3.085938 3.128906-8.078125.097656-11.214844l-5.664062-5.65625c-2.007812-2.082031-4.984375-2.914062-7.78125-2.183594-2.796875.734375-4.980469 2.917969-5.714844 5.714844-.730468 2.796875.101563 5.773438 2.183594 7.78125zm0 0"/><path d="m440 80c0 4.417969 3.582031 8 8 8h8c4.417969 0 8-3.582031 8-8s-3.582031-8-8-8h-8c-4.417969 0-8 3.582031-8 8zm0 0"/><path d="m440.96875 71.03125c2.121094 0 4.15625-.84375 5.65625-2.34375l5.664062-5.65625c3.03125-3.136719 2.988282-8.128906-.097656-11.214844-3.085937-3.085937-8.078125-3.128906-11.214844-.097656l-5.664062 5.65625c-2.289062 2.289062-2.972656 5.730469-1.734375 8.71875s4.15625 4.9375 7.390625 4.9375zm0 0"/><path d="m40 24c4.417969 0 8-3.582031 8-8v-8c0-4.417969-3.582031-8-8-8s-8 3.582031-8 8v8c0 4.417969 3.582031 8 8 8zm0 0"/><path d="m17.375 28.6875c3.140625 3.03125 8.128906 2.988281 11.214844-.097656 3.085937-3.085938 3.128906-8.074219.097656-11.214844l-5.664062-5.65625c-3.136719-3.03125-8.128907-2.988281-11.214844.097656-3.085938 3.085938-3.128906 8.078125-.097656 11.214844zm0 0"/><path d="m8 48h8c4.417969 0 8-3.582031 8-8s-3.582031-8-8-8h-8c-4.417969 0-8 3.582031-8 8s3.582031 8 8 8zm0 0"/><path d="m17.375 51.3125-5.664062 5.65625c-2.078126 2.007812-2.914063 4.980469-2.179688 7.78125.730469 2.796875 2.914062 4.980469 5.710938 5.710938 2.796874.734374 5.773437-.101563 7.78125-2.179688l5.664062-5.65625c2.082031-2.007812 2.914062-4.984375 2.183594-7.78125-.734375-2.796875-2.917969-4.980469-5.714844-5.714844-2.796875-.730468-5.773438.101563-7.78125 2.183594zm0 0"/><path d="m40 80c4.417969 0 8-3.582031 8-8v-8c0-4.417969-3.582031-8-8-8s-8 3.582031-8 8v8c0 4.417969 3.582031 8 8 8zm0 0"/><path d="m56.976562 68.28125c3.136719 3.03125 8.128907 2.988281 11.214844-.097656 3.085938-3.085938 3.128906-8.078125.097656-11.214844l-5.664062-5.65625c-2.007812-2.082031-4.984375-2.914062-7.78125-2.183594-2.796875.734375-4.980469 2.917969-5.714844 5.714844-.730468 2.796875.101563 5.773438 2.183594 7.78125zm0 0"/><path d="m56 40c0 4.417969 3.582031 8 8 8h8c4.417969 0 8-3.582031 8-8s-3.582031-8-8-8h-8c-4.417969 0-8 3.582031-8 8zm0 0"/><path d="m56.96875 31.03125c2.121094 0 4.15625-.84375 5.65625-2.34375l5.664062-5.65625c2.078126-2.007812 2.914063-4.980469 2.179688-7.78125-.730469-2.796875-2.914062-4.980469-5.710938-5.710938-2.796874-.734374-5.773437.101563-7.78125 2.179688l-5.664062 5.65625c-2.289062 2.289062-2.972656 5.730469-1.734375 8.71875s4.15625 4.9375 7.390625 4.9375zm0 0"/><path d="m112 144c4.417969 0 8-3.582031 8-8v-8c0-4.417969-3.582031-8-8-8s-8 3.582031-8 8v8c0 4.417969 3.582031 8 8 8zm0 0"/><path d="m88 160h8c4.417969 0 8-3.582031 8-8s-3.582031-8-8-8h-8c-4.417969 0-8 3.582031-8 8s3.582031 8 8 8zm0 0"/><path d="m112 160c-4.417969 0-8 3.582031-8 8v8c0 4.417969 3.582031 8 8 8s8-3.582031 8-8v-8c0-4.417969-3.582031-8-8-8zm0 0"/><path d="m128 160h8c4.417969 0 8-3.582031 8-8s-3.582031-8-8-8h-8c-4.417969 0-8 3.582031-8 8s3.582031 8 8 8zm0 0"/></svg>