<svg height="480pt" viewBox="-24 0 480 480" width="480pt" xmlns="http://www.w3.org/2000/svg"><path d="m424 472h-32l-16-40-16 40h-32l-16-40-16 40h-32l-16-40-16 40h-32l-16-40-16 40h-32l-7.28125-18.238281-8.71875-21.761719-16 40h-32l-16-40-16 40h-32l59.757812-224 4.242188-16h288l4.320312 16zm0 0" fill="#e6e7e8"/><path d="m424 472h-32l-16-40-16 40h-32l-16-40-16 40h-32l-16-40-16 40h-32l-16-40-16 40h-32l-7.28125-18.238281c33.601562-9.839844 153.519531-55.761719 167.28125-213.761719h66.160156zm0 0" fill="#d1d3d4"/><path d="m368 232c4.417969 0 8-3.582031 8-8v-32c0-4.417969-3.582031-8-8-8h-304c-4.417969 0-8 3.582031-8 8v32c0 4.417969 3.582031 8 8 8zm0 0" fill="#ffa733"/><path d="m256 152h-80v32h80zm0 0" fill="#ff9811"/><path d="m192 8h48v144h-48zm0 0" fill="#787680"/><path d="m364.320312 248h-296.5625l4.242188-16h288zm0 0" fill="#d1d3d4"/><path d="m431.726562 469.9375-61.382812-230.175781c7.820312-1.160157 13.621094-7.855469 13.65625-15.761719v-32c0-8.835938-7.164062-16-16-16h-104v-24c0-4.417969-3.582031-8-8-8h-8v-136c0-4.417969-3.582031-8-8-8h-48c-4.417969 0-8 3.582031-8 8v136h-8c-4.417969 0-8 3.582031-8 8v24h-104c-8.835938 0-16 7.164062-16 16v32c.03125 7.90625 5.835938 14.601562 13.65625 15.761719l-61.386719 230.175781c-.640625 2.398438-.128906 4.964844 1.386719 6.933594 1.511719 1.972656 3.855469 3.128906 6.34375 3.128906h32c3.273438 0 6.214844-1.992188 7.429688-5.03125l8.570312-21.433594 8.566406 21.433594c1.214844 3.039062 4.160156 5.03125 7.433594 5.03125h32c3.273438 0 6.214844-1.992188 7.429688-5.03125l8.570312-21.433594 8.566406 21.433594c1.214844 3.039062 4.160156 5.03125 7.433594 5.03125h32c3.273438 0 6.214844-1.992188 7.429688-5.03125l8.570312-21.433594 8.566406 21.433594c1.214844 3.039062 4.160156 5.03125 7.433594 5.03125h32c3.273438 0 6.214844-1.992188 7.429688-5.03125l8.570312-21.433594 8.566406 21.433594c1.214844 3.039062 4.160156 5.03125 7.433594 5.03125h32c3.273438 0 6.214844-1.992188 7.429688-5.03125l8.570312-21.433594 8.566406 21.433594c1.214844 3.039062 4.160156 5.03125 7.433594 5.03125h32c3.273438 0 6.214844-1.992188 7.429688-5.03125l8.570312-21.433594 8.566406 21.433594c1.214844 3.039062 4.160156 5.03125 7.433594 5.03125h32c2.484375 0 4.828125-1.15625 6.34375-3.128906 1.511719-1.96875 2.023438-4.535156 1.382812-6.933594zm-231.726562-453.9375h32v128h-32zm-16 144h64v16h-64zm-120 32h304v32h-304zm333.414062 272-13.800781-34.496094-15.855469-63.441406c-1.148437-4.191406-5.433593-6.695312-9.652343-5.644531-4.214844 1.050781-6.820313 5.277343-5.867188 9.519531l15.375 61.488281-13.03125 32.574219h-21.167969l-13.597656-34.023438-7.875-62.96875c-.640625-4.296874-4.59375-7.296874-8.902344-6.757812-4.3125.539062-7.40625 4.417969-6.96875 8.742188l7.746094 61.953124-13.234375 33.054688h-21.167969l-13.414062-33.542969v-62.457031c0-4.417969-3.582031-8-8-8s-8 3.582031-8 8v62.457031l-13.417969 33.542969h-21.167969l-13.414062-33.542969v-62.457031c0-4.417969-3.582031-8-8-8s-8 3.582031-8 8v62.457031l-13.417969 33.542969h-21.167969l-13.222656-33.054688 7.742188-61.953124c.4375-4.324219-2.65625-8.203126-6.964844-8.742188-4.3125-.539062-8.265625 2.460938-8.90625 6.757812l-7.871094 62.96875-13.609375 34.023438h-21.167969l-13.03125-32.574219 15.375-61.488281c.769532-2.800781-.039062-5.796875-2.113281-7.828125-2.070312-2.03125-5.082031-2.785156-7.863281-1.960937-2.785156.820312-4.90625 3.085937-5.542969 5.914062l-15.855469 63.441406-13.800781 34.496094h-16.183593l59.738281-224h275.710937l59.75 224zm0 0"/></svg>