<svg height="480pt" viewBox="0 0 480 480.00375" width="480pt" xmlns="http://www.w3.org/2000/svg"><path d="m24 88h432c8.839844 0 16 7.164062 16 16v160c0 8.835938-7.160156 16-16 16h-432c-8.835938 0-16-7.164062-16-16v-160c0-8.835938 7.164062-16 16-16zm0 0" fill="#78b9eb"/><path d="m472 104v160c-.023438 8.824219-7.171875 15.972656-16 16h-222.316406c44-17.121094 131.039062-66.238281 148.476562-192h73.839844c8.828125.027344 15.976562 7.175781 16 16zm0 0" fill="#5aaae7"/><path d="m80 280v192l32-40 32 40 32-40 32 40 32-40 32 40 32-40 32 40 32-40 32 40v-192zm0 0" fill="#f1f2f2"/><path d="m80 184h320v48h-320zm0 0" fill="#d1d3d4"/><path d="m80 280h320v16h-320zm0 0" fill="#d1d3d4"/><path d="m456 80h-104v-72c0-4.417969-3.578125-8-8-8h-208c-4.417969 0-8 3.582031-8 8v72h-104c-13.253906 0-24 10.746094-24 24v160c0 13.253906 10.746094 24 24 24h48v184c0 3.398438 2.144531 6.425781 5.351562 7.550781 3.207032 1.128907 6.777344.101563 8.898438-2.550781l25.75-32.199219 25.753906 32.191407c1.570313 1.8125 3.851563 2.851562 6.246094 2.851562 2.398438 0 4.679688-1.039062 6.25-2.851562l25.75-32.191407 25.753906 32.191407c1.570313 1.8125 3.851563 2.851562 6.246094 2.851562 2.398438 0 4.679688-1.039062 6.25-2.851562l25.75-32.191407 25.753906 32.191407c1.570313 1.8125 3.851563 2.851562 6.246094 2.851562 2.398438 0 4.679688-1.039062 6.25-2.851562l25.75-32.191407 25.753906 32.191407c1.570313 1.8125 3.851563 2.851562 6.246094 2.851562 2.398438 0 4.679688-1.039062 6.25-2.851562l25.75-32.191407 25.753906 32.191407c2.121094 2.652343 5.6875 3.675781 8.894532 2.554687 3.203124-1.125 5.351562-4.148437 5.351562-7.546875v-184h48c13.257812 0 24-10.746094 24-24v-160c0-13.253906-10.742188-24-24-24zm-312-64h192v64h-192zm248 433.191406-17.75-22.191406c-1.570312-1.8125-3.851562-2.851562-6.25-2.851562-2.394531 0-4.675781 1.039062-6.246094 2.851562l-25.753906 32.199219-25.75-32.191407c-1.519531-1.898437-3.816406-3.003906-6.25-3.003906-2.429688 0-4.726562 1.105469-6.246094 3.003906l-25.753906 32.191407-25.75-32.191407c-1.570312-1.8125-3.851562-2.851562-6.25-2.851562-2.394531 0-4.675781 1.039062-6.246094 2.851562l-25.753906 32.191407-25.75-32.191407c-1.570312-1.8125-3.851562-2.851562-6.25-2.851562-2.394531 0-4.675781 1.039062-6.246094 2.851562l-25.753906 32.191407-25.75-32.191407c-1.570312-1.8125-3.851562-2.851562-6.25-2.851562-2.394531 0-4.675781 1.039062-6.246094 2.851562l-17.753906 22.183594v-161.191406h304zm72-185.191406c0 4.417969-3.578125 8-8 8h-432c-4.417969 0-8-3.582031-8-8v-160c0-4.417969 3.582031-8 8-8h432c4.421875 0 8 3.582031 8 8zm0 0"/><path d="m104 320h8c4.421875 0 8-3.582031 8-8s-3.578125-8-8-8h-8c-4.417969 0-8 3.582031-8 8s3.582031 8 8 8zm0 0"/><path d="m136 320h8c4.421875 0 8-3.582031 8-8s-3.578125-8-8-8h-8c-4.417969 0-8 3.582031-8 8s3.582031 8 8 8zm0 0"/><path d="m168 320h8c4.421875 0 8-3.582031 8-8s-3.578125-8-8-8h-8c-4.417969 0-8 3.582031-8 8s3.582031 8 8 8zm0 0"/><path d="m200 320h8c4.421875 0 8-3.582031 8-8s-3.578125-8-8-8h-8c-4.417969 0-8 3.582031-8 8s3.582031 8 8 8zm0 0"/><path d="m232 320h8c4.421875 0 8-3.582031 8-8s-3.578125-8-8-8h-8c-4.417969 0-8 3.582031-8 8s3.582031 8 8 8zm0 0"/><path d="m264 320h8c4.421875 0 8-3.582031 8-8s-3.578125-8-8-8h-8c-4.417969 0-8 3.582031-8 8s3.582031 8 8 8zm0 0"/><path d="m296 320h8c4.421875 0 8-3.582031 8-8s-3.578125-8-8-8h-8c-4.417969 0-8 3.582031-8 8s3.582031 8 8 8zm0 0"/><path d="m328 320h8c4.421875 0 8-3.582031 8-8s-3.578125-8-8-8h-8c-4.417969 0-8 3.582031-8 8s3.582031 8 8 8zm0 0"/><path d="m360 320h8c4.421875 0 8-3.582031 8-8s-3.578125-8-8-8h-8c-4.417969 0-8 3.582031-8 8s3.582031 8 8 8zm0 0"/><path d="m400 176h-320c-4.417969 0-8 3.582031-8 8v48c0 4.417969 3.582031 8 8 8h320c4.421875 0 8-3.582031 8-8v-48c0-4.417969-3.578125-8-8-8zm-8 48h-304v-32h304zm0 0"/></svg>