<svg height="480pt" viewBox="0 0 480 480.00067" width="480pt" xmlns="http://www.w3.org/2000/svg"><path d="m183.992188 40h112c8.132812-.070312 14.949218-6.164062 15.921874-14.238281.066407-.585938.09375-1.171875.078126-1.761719-.023438-8.824219-7.171876-15.972656-16-16h-112c-8.808594.066406-15.933594 7.191406-16 16-.011719.589844.011718 1.175781.082031 1.761719.933593 8.09375 7.773437 14.207031 15.917969 14.238281zm0 0" fill="#898890"/><path d="m455.992188 312-3.199219 16-26.398438 130.878906c-1.394531 7.609375-8.027343 13.132813-15.761719 13.121094h-341.277343c-7.734375.011719-14.371094-5.511719-15.761719-13.121094l-26.398438-130.878906-3.203124-16zm0 0" fill="#5aaae7"/><path d="m455.992188 312-3.199219 16-26.398438 130.878906c-1.394531 7.609375-8.027343 13.132813-15.761719 13.121094h-312.078124c101.558593-33.066406 194.796874-87.636719 273.359374-160zm0 0" fill="#3d9ae2"/><path d="m455.992188 280h-432c-8.835938 0-16 7.164062-16 16s7.164062 16 16 16h432c8.839843 0 16-7.164062 16-16s-7.160157-16-16-16zm0 0" fill="#1e81ce"/><g fill="#1a6fb0"><path d="m239.992188 424c8.839843 0 16-7.164062 16-16v-32c0-8.835938-7.160157-16-16-16-8.835938 0-16 7.164062-16 16v32c0 8.835938 7.164062 16 16 16zm0 0"/><path d="m335.992188 424c8.839843 0 16-7.164062 16-16v-32c0-8.835938-7.160157-16-16-16-8.835938 0-16 7.164062-16 16v32c0 8.835938 7.164062 16 16 16zm0 0"/><path d="m143.992188 424c8.839843 0 16-7.164062 16-16v-32c0-8.835938-7.160157-16-16-16-8.835938 0-16 7.164062-16 16v32c0 8.835938 7.164062 16 16 16zm0 0"/></g><path d="m367.992188 248h-16c17.675781 0 32-14.328125 32-32s-14.324219-32-32-32h-208c-26.507813 0-48 21.492188-48 48 0 26.511719 21.492187 48 48 48h224c8.839843 0 16-7.164062 16-16s-7.160157-16-16-16zm0 0" fill="#e6e7e8"/><path d="m303.992188 88h-144c-17.671876 0-32 14.328125-32 32s14.328124 32 32 32h-16c-8.835938 0-16 7.164062-16 16s7.164062 16 16 16h160c26.511718 0 48-21.488281 48-48 0-26.507812-21.488282-48-48-48zm0 0" fill="#ffc477"/><path d="m455.992188 312-3.199219 16h-425.597657l-3.203124-16zm0 0" fill="#3d9ae2"/><path d="m479.992188 296c0-13.253906-10.742188-24-24-24v-88c-.453126-80.445312-57.554688-149.421875-136.503907-164.886719-2.3125-11.132812-12.125-19.113281-23.496093-19.113281h-112c-6.335938-.046875-12.417969 2.476562-16.863282 6.992188-3.375 3.285156-5.683594 7.507812-6.632812 12.121093-78.945313 15.464844-136.050782 84.441407-136.503906 164.886719v88c-11.917969-.027344-22.042969 8.71875-23.746094 20.519531-1.703125 11.796875 5.535156 23.050781 16.980468 26.394531l28.503907 141.382813c2.074219 11.410156 12.015625 19.707031 23.617187 19.703125h341.292969c11.542969 0 21.449219-8.214844 23.585937-19.558594l28.535157-141.527344c10.183593-2.976562 17.199219-12.300781 17.230469-22.914062zm-301.550782-277.703125c1.464844-1.484375 3.46875-2.3125 5.550782-2.296875h112c2.234374.046875 4.355468 1.003906 5.867187 2.648438 1.507813 1.648437 2.28125 3.84375 2.132813 6.070312v.167969c-.207032 1.835937-1.058594 3.535156-2.398438 4.800781-1.472656 1.503906-3.496094 2.335938-5.601562 2.3125h-112c-4.078126-.023438-7.503907-3.070312-8-7.121094-.074219-.28125-.164063-.5625-.269532-.839844l.269532-.039062c-.003907-2.15625.882812-4.222656 2.449218-5.703125zm-138.449218 165.703125c.378906-72.472656 51.539062-134.742188 122.5625-149.167969 4.085937 8.085938 12.378906 13.175781 21.4375 13.167969h112c6.332031.050781 12.414062-2.464844 16.859374-6.976562 1.847657-1.800782 3.386719-3.890626 4.558594-6.191407 71.03125 14.417969 122.207032 76.691407 122.582032 149.167969v88h-49.46875c.945312-2.5625 1.445312-5.269531 1.46875-8-.007813-8.234375-4.234376-15.886719-11.199219-20.28125 11.109375-11.554688 14.246093-28.621094 7.972656-43.371094s-20.742187-24.332031-36.773437-24.347656h-8.886719c16.300781-15.894531 21.34375-40.078125 12.753906-61.164062-8.589844-21.082032-29.097656-34.859376-51.867187-34.835938h-144c-16.027344.015625-30.496094 9.597656-36.769532 24.347656-6.273437 14.75-3.136718 31.816406 7.972656 43.371094-6.964843 4.394531-11.195312 12.046875-11.203124 20.28125.027343 4.226562 1.175781 8.367188 3.335937 12-17.625 6.972656-30.515625 22.398438-34.242187 40.984375-3.726563 18.582031 2.21875 37.789063 15.796874 51.015625h-64.890624zm64 48c.027343-22.078125 17.921874-39.972656 40-40h208c13.257812 0 24 10.746094 24 24s-10.742188 24-24 24h-192c-4.417969 0-8-3.582031-8-8s3.582031-8 8-8h160c4.417968 0 8-3.582031 8-8s-3.582032-8-8-8h-160c-13.253907 0-24 10.746094-24 24s10.746093 24 24 24h208c4.417968 0 8 3.582031 8 8s-3.582032 8-8 8h-224c-22.078126-.027344-39.972657-17.917969-40-40zm32-64c0-4.417969 3.582031-8 8-8h160c13.257812 0 24-10.746094 24-24s-10.742188-24-24-24h-136c-4.417969 0-8 3.582031-8 8s3.582031 8 8 8h136c4.417968 0 8 3.582031 8 8s-3.582032 8-8 8h-144c-13.253907 0-24-10.746094-24-24s10.746093-24 24-24h144c22.09375 0 40 17.910156 40 40 0 22.09375-17.90625 40-40 40h-160c-4.417969 0-8-3.582031-8-8zm282.523437 289.425781c-.691406 3.804688-4.003906 6.574219-7.875 6.574219h-341.292969c-3.917968-.019531-7.25-2.855469-7.898437-6.71875l-27.679688-137.28125h412.449219zm37.476563-153.425781h-432c-4.417969 0-8-3.582031-8-8s3.582031-8 8-8h432c4.417968 0 8 3.582031 8 8s-3.582032 8-8 8zm0 0"/><path d="m239.992188 432c13.257812 0 24-10.746094 24-24v-32c0-13.253906-10.742188-24-24-24-13.253907 0-24 10.746094-24 24v32c0 13.253906 10.746093 24 24 24zm-8-56c0-4.417969 3.582031-8 8-8 4.417968 0 8 3.582031 8 8v32c0 4.417969-3.582032 8-8 8-4.417969 0-8-3.582031-8-8zm0 0"/><path d="m335.992188 432c13.257812 0 24-10.746094 24-24v-32c0-13.253906-10.742188-24-24-24-13.253907 0-24 10.746094-24 24v32c0 13.253906 10.746093 24 24 24zm-8-56c0-4.417969 3.582031-8 8-8 4.417968 0 8 3.582031 8 8v32c0 4.417969-3.582032 8-8 8-4.417969 0-8-3.582031-8-8zm0 0"/><path d="m143.992188 432c13.257812 0 24-10.746094 24-24v-32c0-13.253906-10.742188-24-24-24-13.253907 0-24 10.746094-24 24v32c0 13.253906 10.746093 24 24 24zm-8-56c0-4.417969 3.582031-8 8-8 4.417968 0 8 3.582031 8 8v32c0 4.417969-3.582032 8-8 8-4.417969 0-8-3.582031-8-8zm0 0"/></svg>