<svg height="480pt" viewBox="-56 0 480 480" width="480pt" xmlns="http://www.w3.org/2000/svg"><path d="m360 440h-352v32h352zm0 0" fill="#787680"/><path d="m40 104h288v336h-288zm0 0" fill="#acabb1"/><path d="m360 104v-32h-352v32zm0 0" fill="#787680"/><path d="m320 40h-272l-16 32h304zm0 0" fill="#57565c"/><path d="m40 104h288v16h-288zm0 0" fill="#898890"/><path d="m328 118.878906v321.121094h-288v-10.398438c101.199219-56.320312 218.480469-152.082031 288-310.722656zm0 0" fill="#a1a0a6"/><g fill="#787680"><path d="m248 136h32v272h-32zm0 0"/><path d="m168 136h32v272h-32zm0 0"/><path d="m88 136h32v272h-32zm0 0"/></g><path d="m360 112c4.417969 0 8-3.582031 8-8v-32c0-4.417969-3.582031-8-8-8h-19.054688l-13.746093-27.574219c-1.359375-2.726562-4.152344-4.441406-7.199219-4.425781h-88v-24c0-4.417969-3.582031-8-8-8h-80c-4.417969 0-8 3.582031-8 8v24h-88c-3.03125 0-5.804688 1.710938-7.160156 4.425781l-13.785156 27.574219h-19.054688c-4.417969 0-8 3.582031-8 8v32c0 4.417969 3.582031 8 8 8h24v320h-24c-4.417969 0-8 3.582031-8 8v32c0 4.417969 3.582031 8 8 8h352c4.417969 0 8-3.582031 8-8v-32c0-4.417969-3.582031-8-8-8h-24v-320zm-208-96h64v16h-64zm-99.054688 32h262.109376l8 16h-278.109376zm-36.945312 32h336v16h-336zm336 384h-336v-16h336zm-32-32h-272v-320h272zm0 0"/><path d="m248 416h32c4.417969 0 8-3.582031 8-8v-272c0-4.417969-3.582031-8-8-8h-32c-4.417969 0-8 3.582031-8 8v272c0 4.417969 3.582031 8 8 8zm8-272h16v256h-16zm0 0"/><path d="m168 416h32c4.417969 0 8-3.582031 8-8v-272c0-4.417969-3.582031-8-8-8h-32c-4.417969 0-8 3.582031-8 8v272c0 4.417969 3.582031 8 8 8zm8-272h16v256h-16zm0 0"/><path d="m88 416h32c4.417969 0 8-3.582031 8-8v-272c0-4.417969-3.582031-8-8-8h-32c-4.417969 0-8 3.582031-8 8v272c0 4.417969 3.582031 8 8 8zm8-272h16v256h-16zm0 0"/></svg>