<svg height="480pt" viewBox="0 0 480 480.02005" width="480pt" xmlns="http://www.w3.org/2000/svg"><g fill="#57565c"><path d="m80.011719 448.019531c0 13.253907-10.746094 24-24 24-13.257813 0-24-10.746093-24-24 0-13.253906 10.742187-24 24-24 13.253906 0 24 10.746094 24 24zm0 0"/><path d="m224.011719 448.019531c0 13.253907-10.746094 24-24 24-13.257813 0-24-10.746093-24-24 0-13.253906 10.742187-24 24-24 13.253906 0 24 10.746094 24 24zm0 0"/><path d="m8.011719 392.019531v32h240v-32zm0 0"/><path d="m248.011719 216.019531v-32h-240v32zm0 0"/></g><path d="m32.011719 216.019531h192v176h-192zm0 0" fill="#898890"/><path d="m224.011719 216.019531v176h-149.042969c45.042969-25.839843 101.519531-77.359375 115.203125-176zm0 0" fill="#7f7d86"/><path d="m296.011719 88.019531c0 4.417969 3.578125 8 8 8h160c4.417969 0 8-3.582031 8-8v-24h-176zm0 0" fill="#c6c5ca"/><path d="m360.011719 128.019531h48v-32h-48zm0 0" fill="#787680"/><path d="m248.011719 312.019531h-24v48h24c4.417969 0 8-3.582031 8-8v-32c0-4.417969-3.582031-8-8-8zm0 0" fill="#787680"/><path d="m368.011719 304.019531c0 8.835938-7.164063 16-16 16h-96v32h104c22.089843 0 40-17.90625 40-40v-184h-32zm0 0" fill="#e6e7e8"/><path d="m32.011719 216.019531h192v16h-192zm0 0" fill="#7f7d86"/><path d="m368.011719 128.019531h32v16h-32zm0 0" fill="#d1d3d4"/><path d="m360.011719 96.019531h48v16h-48zm0 0" fill="#57565c"/><path d="m472.011719 56.019531h-176c-4.421875 0-8 3.582031-8 8v24c0 8.835938 7.160156 16 16 16h48v24c0 4.417969 3.578125 8 8 8v168c0 4.417969-3.582031 8-8 8h-90.226563c-2.835937-4.933593-8.085937-7.980469-13.773437-8h-16v-80h16c4.417969 0 8-3.582031 8-8v-32c0-4.417969-3.582031-8-8-8h-80v-24c0-4.417969-3.582031-8-8-8h-64c-4.421875 0-8 3.582031-8 8v24h-80c-4.421875 0-8.0000002 3.582031-8.0000002 8v32c0 4.417969 3.5781252 8 8.0000002 8h16v160h-16c-4.421875 0-8.0000002 3.582031-8.0000002 8v32c0 4.417969 3.5781252 8 8.0000002 8h20.445312c-2.878906 4.84375-4.414062 10.367188-4.445312 16 0 17.671875 14.324219 32 32 32 17.671875 0 32-14.328125 32-32-.035157-5.632812-1.570313-11.15625-4.449219-16h88.894531c-2.878906 4.84375-4.414062 10.367188-4.445312 16 0 17.671875 14.324219 32 32 32 17.671875 0 32-14.328125 32-32-.035157-5.632812-1.570313-11.15625-4.449219-16h20.449219c4.417969 0 8-3.582031 8-8v-32c0-4.417969-3.582031-8-8-8h-16v-16h16c5.6875-.015625 10.9375-3.066406 13.773437-8h98.226563c26.496093-.027343 47.972656-21.5 48-48v-176c4.417969 0 8-3.582031 8-8v-24h48c8.835937 0 16-7.164062 16-16v-24c0-4.417969-3.582031-8-8-8zm-368 104h48v16h-48zm-88 32h224v16h-224zm56 256c0 8.835938-7.164063 16-16 16-8.839844 0-16-7.164062-16-16 0-8.835937 7.160156-16 16-16 8.835937 0 16 7.164063 16 16zm144 0c0 8.835938-7.164063 16-16 16-8.839844 0-16-7.164062-16-16 0-8.835937 7.160156-16 16-16 8.835937 0 16 7.164063 16 16zm24-32h-224v-16h224zm-200-32v-160h176v160zm192-32v-32h16v32zm160-40c0 17.671875-14.328125 32-32 32h-96v-16h88c13.253906 0 24-10.746093 24-24v-168h16zm8-192h-32v-16h32zm-96-32v-16h160v16zm0 0"/><path d="m404.96875 15.378906c2.976562 1.277344 6.433594.613282 8.722656-1.679687 2.289063-2.289063 2.953125-5.742188 1.679688-8.71875-.386719-.980469-.957032-1.875-1.679688-2.640625-.78125-.707032-1.671875-1.273438-2.640625-1.679688-1.457031-.644531-3.082031-.8125-4.640625-.480468-.5.085937-.988281.25-1.441406.480468-.492188.160156-.949219.402344-1.359375.71875-.457031.277344-.886719.597656-1.28125.960938-.722656.765625-1.292969 1.660156-1.679687 2.640625-1.273438 2.976562-.609376 6.429687 1.679687 8.71875.78125.707031 1.671875 1.273437 2.640625 1.679687zm0 0"/><path d="m434.328125 37.699219c3.15625 3.09375 8.207031 3.09375 11.363281 0 .703125-.777344 1.269532-1.671875 1.679688-2.640625.851562-1.933594.851562-4.140625 0-6.078125-.386719-.980469-.957032-1.875-1.679688-2.640625-2.300781-2.269532-5.742187-2.933594-8.722656-1.679688-2.007812.726563-3.589844 2.308594-4.320312 4.320313-.851563 1.9375-.851563 4.144531 0 6.078125.410156.96875.976562 1.863281 1.679687 2.640625zm0 0"/><path d="m452.96875 15.378906c2.460938 1.054688 5.289062.796875 7.515625-.6875s3.554687-3.996094 3.527344-6.671875c.027343-1.050781-.191407-2.089843-.640625-3.039062-.40625-.96875-.976563-1.863281-1.679688-2.640625-.382812-.34375-.78125-.664063-1.203125-.960938-.445312-.300781-.929687-.542968-1.4375-.71875-.453125-.230468-.941406-.394531-1.441406-.480468-1.027344-.2382818-2.09375-.2382818-3.121094 0-.527343.074218-1.042969.238281-1.519531.480468-.507812.175782-.992188.417969-1.4375.71875-.421875.296875-.820312.617188-1.203125.960938-.703125.777344-1.273437 1.671875-1.679687 2.640625-1.273438 2.976562-.609376 6.429687 1.679687 8.71875.78125.707031 1.671875 1.273437 2.640625 1.679687zm0 0"/><path d="m394.328125 37.699219c3.15625 3.09375 8.207031 3.09375 11.363281 0 .703125-.777344 1.269532-1.671875 1.679688-2.640625.449218-.949219.667968-1.988282.640625-3.039063-.015625-1.042969-.230469-2.078125-.640625-3.039062-.386719-.980469-.957032-1.875-1.679688-2.640625-2.300781-2.269532-5.742187-2.933594-8.722656-1.679688-2.007812.726563-3.589844 2.308594-4.320312 4.320313-.851563 1.9375-.851563 4.144531 0 6.078125.410156.96875.976562 1.863281 1.679687 2.640625zm0 0"/><path d="m370.328125 29.699219c.78125.707031 1.671875 1.273437 2.640625 1.679687 1.9375.855469 4.144531.855469 6.082031 0 .96875-.40625 1.859375-.972656 2.640625-1.679687 1.480469-1.519531 2.308594-3.558594 2.320313-5.679688.027343-1.050781-.191407-2.089843-.640625-3.039062-.40625-.96875-.976563-1.863281-1.679688-2.640625-.382812-.34375-.78125-.664063-1.203125-.960938-.445312-.300781-.929687-.542968-1.4375-.71875-.453125-.230468-.941406-.394531-1.441406-.480468-2.632813-.539063-5.363281.273437-7.28125 2.160156-.703125.777344-1.273437 1.671875-1.679687 2.640625-.851563 1.9375-.851563 4.144531 0 6.078125.410156.96875.976562 1.863281 1.679687 2.640625zm0 0"/><path d="m352.011719 16.019531c1.042969-.011719 2.078125-.230469 3.039062-.640625.96875-.40625 1.859375-.972656 2.640625-1.679687 2.289063-2.289063 2.953125-5.742188 1.679688-8.71875-.386719-.980469-.957032-1.875-1.679688-2.640625-.382812-.34375-.78125-.664063-1.203125-.960938-.445312-.300781-.929687-.542968-1.4375-.71875-.453125-.230468-.941406-.394531-1.441406-.480468-1.558594-.332032-3.179687-.164063-4.640625.480468-.96875.40625-1.859375.972656-2.640625 1.679688-.722656.765625-1.292969 1.660156-1.679687 2.640625-1.054688 2.460937-.792969 5.285156.691406 7.511719 1.484375 2.230468 3.992187 3.554687 6.671875 3.527343zm0 0"/><path d="m298.328125 37.699219c.78125.707031 1.671875 1.273437 2.640625 1.679687 2.976562 1.277344 6.429688.609375 8.722656-1.679687.703125-.777344 1.269532-1.671875 1.679688-2.640625.851562-1.933594.851562-4.140625 0-6.078125-.386719-.980469-.957032-1.875-1.679688-2.640625-3.210937-2.960938-8.152344-2.960938-11.363281 0-.722656.765625-1.292969 1.660156-1.679687 2.640625-.851563 1.9375-.851563 4.144531 0 6.078125.410156.96875.976562 1.863281 1.679687 2.640625zm0 0"/><path d="m312.011719 16.019531c1.042969-.011719 2.078125-.230469 3.039062-.640625.96875-.40625 1.859375-.972656 2.640625-1.679687 2.289063-2.289063 2.953125-5.742188 1.679688-8.71875-.386719-.980469-.957032-1.875-1.679688-2.640625-.394531-.363282-.824218-.683594-1.28125-.960938-.40625-.316406-.867187-.558594-1.359375-.71875-.453125-.230468-.941406-.394531-1.441406-.480468-1.558594-.332032-3.179687-.164063-4.640625.480468-.96875.40625-1.859375.972656-2.640625 1.679688-.722656.765625-1.292969 1.660156-1.679687 2.640625-1.054688 2.460937-.792969 5.285156.691406 7.511719 1.484375 2.230468 3.992187 3.554687 6.671875 3.527343zm0 0"/><path d="m330.328125 37.699219c3.15625 3.09375 8.207031 3.09375 11.363281 0 .703125-.777344 1.269532-1.671875 1.679688-2.640625.851562-1.933594.851562-4.140625 0-6.078125-.726563-2.011719-2.3125-3.59375-4.320313-4.320313-2.980469-1.253906-6.421875-.589844-8.722656 1.679688-.722656.765625-1.292969 1.660156-1.679687 2.640625-.410157.960937-.625 1.996093-.636719 3.039062-.03125 1.050781.191406 2.089844.636719 3.039063.410156.96875.976562 1.863281 1.679687 2.640625zm0 0"/></svg>