<svg height="480pt" viewBox="-19 0 480 480.00065" width="480pt" xmlns="http://www.w3.org/2000/svg"><path d="m370.40625 424-29.597656-343.839844-4.160156-48.160156-.800782-9.359375c-.707031-8.300781-7.667968-14.671875-16-14.640625h-258.558594c-8.332031-.03125-15.292968 6.339844-16 14.640625l-34.5625 401.679687-2.640624 30.320313c-.378907 4.460937 1.125 8.875 4.152343 12.175781 3.023438 3.296875 7.292969 5.179688 11.769531 5.183594h333.121094c4.476563-.003906 8.742188-1.886719 11.769532-5.183594 3.023437-3.300781 4.53125-7.714844 4.148437-12.175781zm-259.839844-376h160c8.839844 0 16 7.164062 16 16s-7.160156 16-16 16h-160c-8.835937 0-16-7.164062-16-16s7.164063-16 16-16zm0 0" fill="#ffde55"/><path d="m373.046875 454.640625c.382813 4.460937-1.125 8.875-4.148437 12.175781-3.027344 3.296875-7.292969 5.179688-11.769532 5.183594h-333.121094c-4.476562-.003906-8.746093-1.886719-11.769531-5.183594-3.027343-3.300781-4.53125-7.714844-4.152343-12.175781l2.640624-30.320313c110.960938-54.320312 253.441407-157.121093 330.082032-344.160156l29.597656 343.839844zm0 0" fill="#f2d349"/><path d="m336.648438 32 33.757812 392h47.441406c4.953125.007812 9.632813-2.277344 12.667969-6.191406 3.039063-3.914063 4.089844-9.011719 2.851563-13.808594zm0 0" fill="#ebbf00"/><path d="m110.566406 80h160c8.839844 0 16-7.164062 16-16s-7.160156-16-16-16h-160c-8.835937 0-16 7.164062-16 16s7.164063 16 16 16zm0 0" fill="#ebbf00"/><path d="m284.648438 392h-188.160157c-5.546875.023438-10.710937-2.835938-13.632812-7.550781-2.917969-4.71875-3.179688-10.613281-.6875-15.570313l94.078125-188.238281c2.707031-5.429687 8.253906-8.863281 14.320312-8.863281 6.070313 0 11.613282 3.433594 14.320313 8.863281l94.082031 188.238281c2.492188 4.957032 2.230469 10.851563-.691406 15.570313-2.921875 4.714843-8.082032 7.574219-13.628906 7.550781zm0 0" fill="#ff6243"/><path d="m181.679688 296.871094c.507812 4.082031 3.976562 7.140625 8.089843 7.128906h1.597657c4.105468.003906 7.566406-3.054688 8.074218-7.128906l5.125-40.992188c.742188-5.453125-1.753906-10.839844-6.390625-13.800781-4.640625-2.964844-10.574219-2.964844-15.214843 0-4.636719 2.960937-7.132813 8.347656-6.394532 13.800781zm0 0" fill="#e6e7e8"/><path d="m206.566406 344c0 8.835938-7.160156 16-16 16-8.835937 0-16-7.164062-16-16s7.164063-16 16-16c8.839844 0 16 7.164062 16 16zm0 0" fill="#e6e7e8"/><path d="m441.105469 401.992188-96.546875-371.359376-.742188-8.679687c-1.019531-12.460937-11.46875-22.0273438-23.96875-21.953125h-258.558594c-12.511718-.0898438-22.980468 9.480469-24 21.953125l-37.2031245 432c-.5703125 6.699219 1.6914065 13.328125 6.2382815 18.28125 4.546875 4.949219 10.960937 7.769531 17.683593 7.765625h333.121094c6.714844-.007812 13.121094-2.828125 17.660156-7.773438 4.539063-4.949218 6.796876-11.574218 6.226563-18.265624l-1.894531-21.960938h38.726562c7.429688.007812 14.441406-3.425781 18.992188-9.296875 4.546875-5.871094 6.125-13.519531 4.265625-20.710937zm-78.097657 59.433593c-1.503906 1.652344-3.644531 2.589844-5.878906 2.574219h-333.121094c-2.238281.003906-4.375-.933594-5.886718-2.582031-1.511719-1.652344-2.257813-3.859375-2.058594-6.089844l37.195312-432c.347657-4.152344 3.828126-7.34375 8-7.328125h258.589844c4.164063-.015625 7.644532 3.167969 8 7.320312l37.191406 432c.21875 2.230469-.519531 4.449219-2.03125 6.105469zm61.207032-48.5625c-1.523438 1.992188-3.890625 3.152344-6.398438 3.136719h-40.046875l-25.027343-290.269531 72.882812 280.292969c.625 2.375.101562 4.90625-1.410156 6.839843zm0 0"/><path d="m110.566406 88h160c13.257813 0 24-10.746094 24-24s-10.742187-24-24-24h-160c-13.253906 0-24 10.746094-24 24s10.746094 24 24 24zm0-32h160c4.417969 0 8 3.582031 8 8s-3.582031 8-8 8h-160c-4.417968 0-8-3.582031-8-8s3.582032-8 8-8zm0 0"/><path d="m212.039062 177.039062c-4.0625-8.136718-12.375-13.277343-21.472656-13.277343-9.09375 0-17.40625 5.140625-21.46875 13.277343l-94.105468 188.226563c-3.722657 7.4375-3.324219 16.273437 1.046874 23.351563 4.375 7.074218 12.097657 11.382812 20.417969 11.382812h188.222657c8.320312 0 16.042968-4.308594 20.417968-11.382812 4.371094-7.078126 4.765625-15.914063 1.046875-23.351563zm79.441407 203.203126c-1.441407 2.375-4.023438 3.8125-6.800781 3.789062h-188.222657c-2.773437 0-5.347656-1.4375-6.800781-3.792969-1.457031-2.359375-1.589844-5.300781-.351562-7.78125l94.101562-188.257812c1.46875-2.566407 4.203125-4.152344 7.160156-4.152344 2.960938 0 5.691406 1.585937 7.160156 4.152344l94.105469 188.226562c1.269531 2.472657 1.136719 5.433594-.351562 7.78125zm0 0"/><path d="m173.769531 297.863281c1.015625 8.066407 7.867188 14.121094 16 14.136719h1.597657c8.128906-.015625 14.984374-6.070312 16-14.136719l5.121093-41c.789063-6.292969-1.167969-12.621093-5.367187-17.375-4.3125-4.558593-10.3125-7.136719-16.585938-7.136719-6.273437 0-12.269531 2.578126-16.582031 7.136719-4.203125 4.753907-6.15625 11.082031-5.371094 17.375zm12.238281-47.789062c1.777344-2.011719 4.65625-2.628907 7.101563-1.527344 2.449219 1.097656 3.894531 3.664063 3.570313 6.324219l-5.128907 41c.007813.046875-.015625.09375-.054687.121094-.035156.027343-.085938.027343-.128906.007812l-1.773438-.121094-5.105469-41c-.222656-1.742187.320313-3.496094 1.488281-4.804687zm0 0"/><path d="m190.566406 320c-13.253906 0-24 10.746094-24 24s10.746094 24 24 24c13.257813 0 24-10.746094 24-24s-10.742187-24-24-24zm0 32c-4.417968 0-8-3.582031-8-8s3.582032-8 8-8c4.417969 0 8 3.582031 8 8s-3.582031 8-8 8zm0 0"/></svg>