<svg height="480pt" viewBox="0 -4 480 480" width="480pt" xmlns="http://www.w3.org/2000/svg"><path d="m232 208c.03125-20.085938-14.84375-37.078125-34.753906-39.714844-19.914063-2.632812-38.691406 9.910156-43.886719 29.316406-6.507813-3.699218-13.871094-5.628906-21.359375-5.601562-19.703125-.007812-37.003906 13.105469-42.320312 32.078125-.558594-.066406-1.117188-.089844-1.679688-.078125-22.089844 0-40 17.910156-40 40v8h229.199219c1.867187-5.128906 2.816406-10.542969 2.800781-16 0-26.507812-21.492188-48-48-48zm0 0" fill="#e6e7e8"/><path d="m136 40c0 8.835938-7.164062 16-16 16s-16-7.164062-16-16 7.164062-16 16-16 16 7.164062 16 16zm0 0" fill="#e6e7e8"/><path d="m216 112c0 13.253906-10.746094 24-24 24s-24-10.746094-24-24 10.746094-24 24-24 24 10.746094 24 24zm0 0" fill="#d1d3d4"/><path d="m320 136h-8l16 48h64l8-24h72v-24zm0 0" fill="#ffb655"/><path d="m360 96c-22.089844 0-40 17.910156-40 40h80c0-22.089844-17.910156-40-40-40zm0 0" fill="#bddbff"/><path d="m456 304-3.199219 16-26.242187 131.121094c-1.484375 7.480468-8.050782 12.871094-15.679688 12.878906h-341.757812c-7.628906-.007812-14.195313-5.398438-15.679688-12.878906l-26.242187-131.121094-3.199219-16zm0 0" fill="#78b9eb"/><path d="m464 272h-448c-4.417969 0-8 3.582031-8 8v16c0 4.417969 3.582031 8 8 8h448c4.417969 0 8-3.582031 8-8v-16c0-4.417969-3.582031-8-8-8zm0 0" fill="#3d9ae2"/><path d="m456 304-3.199219 16h-425.601562l-3.199219-16zm0 0" fill="#5aaae7"/><path d="m152 304v40c.027344 8.359375 4.367188 16.117188 11.480469 20.511719s15.992187 4.804687 23.480469 1.089843c8.140624-3.964843 13.234374-12.304687 13.039062-21.363281v-.316406c-.117188-6.347656 3.613281-12.132813 9.441406-14.640625 6.085938-2.652344 13.171875-1.285156 17.839844 3.4375 3.039062 2.964844 4.742188 7.035156 4.71875 11.28125v32c.046875 5.75 3.140625 11.046875 8.128906 13.910156 4.988282 2.867188 11.121094 2.867188 16.109375.011719 4.910157-2.824219 7.882813-8.101563 7.761719-13.761719v-104.160156h-112zm0 0" fill="#d1d3d4"/><path d="m464 264h-176.6875c.421875-2.648438.652344-5.320312.6875-8-.035156-28.050781-20.785156-51.757812-48.585938-55.511719-3.253906-20.6875-19.546874-36.875-40.253906-40-20.707031-3.125-41.050781 7.539063-50.265625 26.34375-26-8.957031-54.480469 3.902344-64.949219 29.335938-24.835937 2.136719-43.917968 22.90625-43.945312 47.832031h-24c-8.835938 0-16 7.164062-16 16v16c0 8.835938 7.164062 16 16 16h1.441406l28.160156 140.703125c2.269532 11.195313 12.09375 19.253906 23.519532 19.296875h341.757812c11.429688-.042969 21.253906-8.109375 23.519532-19.3125l28.160156-140.6875h1.441406c8.835938 0 16-7.164062 16-16v-16c0-8.835938-7.164062-16-16-16zm-208 112.160156c.105469 2.667969-1.199219 5.195313-3.433594 6.65625-2.675781 1.589844-6.007812 1.589844-8.6875 0-2.394531-1.4375-3.863281-4.023437-3.878906-6.816406v-32c-.050781-7.820312-3.875-15.136719-10.273438-19.640625-.34375-.246094-.695312-.457031-1.046874-.6875-.886719-.5625-1.808594-1.0625-2.757813-1.503906-.378906-.167969-.738281-.351563-1.113281-.503907-1.292969-.527343-2.632813-.941406-4-1.230468-1.398438-.269532-2.816406-.414063-4.242188-.433594-.167968 0-.320312-.039062-.476562-.039062-.160156 0-.539063.0625-.800782.070312-1.074218.03125-2.144531.136719-3.199218.3125-.441406.0625-.875.128906-1.3125.214844-1.472656.304687-2.917969.730468-4.320313 1.273437-8.941406 3.820313-14.664062 12.6875-14.457031 22.40625.183594 5.890625-3.042969 11.359375-8.289062 14.050781-5.246094 2.625-11.488282 2.304688-16.4375-.839843-4.546876-2.960938-7.285157-8.023438-7.273438-13.449219v-64h96zm-167.433594-144.160156c3.96875.546875 7.730469-1.925781 8.800782-5.785156 4.378906-15.5 18.523437-26.210938 34.632812-26.214844 6.097656-.015625 12.09375 1.554688 17.398438 4.550781 2.15625 1.230469 4.757812 1.386719 7.042968.433594 2.289063-.957031 4.003906-2.917969 4.648438-5.3125 3.796875-14.128906 16.703125-23.875 31.332031-23.660156 14.628906.214843 27.246094 10.335937 30.625 24.574219-9.53125 1.179687-18.726563 4.261718-27.046875 9.0625-3.675781 2.273437-4.882812 7.058593-2.71875 10.804687s6.910156 5.09375 10.71875 3.042969c8.511719-4.917969 18.171875-7.5 28-7.496094 22.082031.027344 39.972656 17.917969 40 40 .007812 2.6875-.257812 5.367188-.800781 8h-215.199219c.042969-8.574219 3.503906-16.773438 9.621094-22.78125 6.113281-6.007812 14.375-9.328125 22.945312-9.21875zm-72.566406 48h128v16h-128zm402.71875 169.535156c-.753906 3.738282-4.023438 6.4375-7.839844 6.464844h-341.757812c-3.816406-.007812-7.09375-2.707031-7.832032-6.449219l-27.527343-137.550781h110.238281v32c-.027344 10.84375 5.453125 20.957031 14.550781 26.855469 9.5 6.097656 21.46875 6.871093 31.671875 2.046875 11.132813-5.300782 18.097656-16.65625 17.777344-28.980469-.097656-3.058594 1.621094-5.886719 4.382812-7.203125 3.15625-1.453125 6.890626-.761719 9.3125 1.730469 1.492188 1.457031 2.324219 3.464843 2.304688 5.550781v32c.039062 8.371094 4.410156 16.125 11.550781 20.496094 1.84375 1.121094 3.828125 1.980468 5.90625 2.558594.648438.183593 1.328125.175781 1.984375.304687 1.417969.324219 2.863282.519531 4.320313.585937h.230469c1.277343-.058593 2.546874-.21875 3.800781-.472656.710937-.113281 1.429687-.089844 2.144531-.265625 2.101562-.503906 4.140625-1.261719 6.0625-2.253906 7.535156-4.183594 12.152344-12.183594 12-20.800781v-64.152344h174.238281zm45.28125-153.535156h-192v-16h192zm0 0"/><path d="m48 88c4.417969 0 8-3.582031 8-8v-8c0-4.417969-3.582031-8-8-8s-8 3.582031-8 8v8c0 4.417969 3.582031 8 8 8zm0 0"/><path d="m24 104h8c4.417969 0 8-3.582031 8-8s-3.582031-8-8-8h-8c-4.417969 0-8 3.582031-8 8s3.582031 8 8 8zm0 0"/><path d="m48 104c-4.417969 0-8 3.582031-8 8v8c0 4.417969 3.582031 8 8 8s8-3.582031 8-8v-8c0-4.417969-3.582031-8-8-8zm0 0"/><path d="m64 104h8c4.417969 0 8-3.582031 8-8s-3.582031-8-8-8h-8c-4.417969 0-8 3.582031-8 8s3.582031 8 8 8zm0 0"/><path d="m264 24c4.417969 0 8-3.582031 8-8v-8c0-4.417969-3.582031-8-8-8s-8 3.582031-8 8v8c0 4.417969 3.582031 8 8 8zm0 0"/><path d="m240 40h8c4.417969 0 8-3.582031 8-8s-3.582031-8-8-8h-8c-4.417969 0-8 3.582031-8 8s3.582031 8 8 8zm0 0"/><path d="m264 40c-4.417969 0-8 3.582031-8 8v8c0 4.417969 3.582031 8 8 8s8-3.582031 8-8v-8c0-4.417969-3.582031-8-8-8zm0 0"/><path d="m280 40h8c4.417969 0 8-3.582031 8-8s-3.582031-8-8-8h-8c-4.417969 0-8 3.582031-8 8s3.582031 8 8 8zm0 0"/><path d="m120 64c13.253906 0 24-10.746094 24-24s-10.746094-24-24-24-24 10.746094-24 24 10.746094 24 24 24zm0-32c4.417969 0 8 3.582031 8 8s-3.582031 8-8 8-8-3.582031-8-8 3.582031-8 8-8zm0 0"/><path d="m192 144c17.671875 0 32-14.328125 32-32s-14.328125-32-32-32-32 14.328125-32 32 14.328125 32 32 32zm0-48c8.835938 0 16 7.164062 16 16s-7.164062 16-16 16-16-7.164062-16-16 7.164062-16 16-16zm0 0"/><path d="m472 128h-64.71875c-3.882812-23.085938-23.871094-39.992188-47.28125-39.992188s-43.398438 16.90625-47.28125 39.992188h-.71875c-2.570312 0-4.988281 1.234375-6.492188 3.320312-1.503906 2.085938-1.914062 4.769532-1.101562 7.207032l16 48c1.089844 3.269531 4.148438 5.472656 7.59375 5.472656h64c3.445312 0 6.503906-2.203125 7.59375-5.472656l6.175781-18.527344h66.230469c4.417969 0 8-3.582031 8-8v-24c0-4.417969-3.582031-8-8-8zm-112-24c14.585938.023438 27.320312 9.882812 30.992188 24h-61.984376c3.671876-14.117188 16.40625-23.976562 30.992188-24zm104 48h-64c-3.445312 0-6.503906 2.203125-7.59375 5.472656l-6.175781 18.527344h-52.460938l-10.671875-32h140.902344zm0 0"/></svg>