<svg height="480pt" viewBox="-24 0 480 480" width="480pt" xmlns="http://www.w3.org/2000/svg"><path d="m32 136h368v288h-368zm0 0" fill="#d1d3d4"/><path d="m400 136v288h-368v-3.761719c99.039062-41.039062 241.761719-124.316406 334.960938-284.238281zm0 0" fill="#c4c6c7"/><path d="m424 56v-48h-416v48zm0 0" fill="#ffb655"/><path d="m424 424h-416v48h416zm0 0" fill="#ffb655"/><path d="m32 56h368v80h-368zm0 0" fill="#ff7956"/><g fill="#ffa733"><path d="m152 96c0 8.835938-7.164062 16-16 16s-16-7.164062-16-16 7.164062-16 16-16 16 7.164062 16 16zm0 0"/><path d="m232 96c0 8.835938-7.164062 16-16 16s-16-7.164062-16-16 7.164062-16 16-16 16 7.164062 16 16zm0 0"/><path d="m312 96c0 8.835938-7.164062 16-16 16s-16-7.164062-16-16 7.164062-16 16-16 16 7.164062 16 16zm0 0"/></g><path d="m242.640625 271.679688c34.71875 0 34.71875 16.640624 69.359375 16.640624v-48.320312h8.558594c-18.691406-48.984375-68.890625-78.421875-120.769532-70.816406-51.875 7.601562-91.515624 50.207031-95.363281 102.496094 34.207031.121093 34.328125 16.640624 68.855469 16.640624 34.71875 0 34.71875-16.640624 69.359375-16.640624zm0 0" fill="#e6e7e8"/><path d="m312 288.320312c-34.640625 0-34.640625-16.640624-69.359375-16.640624s-34.640625 16.640624-69.359375 16.640624c-34.527344 0-34.648438-16.519531-68.855469-16.640624-.210937 2.761718-.425781 5.511718-.425781 8.320312.066406 53.957031 38.597656 100.195312 91.65625 109.996094 53.0625 9.800781 105.566406-19.621094 124.902344-69.996094h-8.558594zm0 0" fill="#78b9eb"/><path d="m312 240v80h32v-80zm0 0" fill="#acabb1"/><path d="m32 56h376v16h-376zm0 0" fill="#ff6243"/><path d="m136 120c13.253906 0 24-10.746094 24-24s-10.746094-24-24-24-24 10.746094-24 24 10.746094 24 24 24zm0-32c4.417969 0 8 3.582031 8 8s-3.582031 8-8 8-8-3.582031-8-8 3.582031-8 8-8zm0 0"/><path d="m216 120c13.253906 0 24-10.746094 24-24s-10.746094-24-24-24-24 10.746094-24 24 10.746094 24 24 24zm0-32c4.417969 0 8 3.582031 8 8s-3.582031 8-8 8-8-3.582031-8-8 3.582031-8 8-8zm0 0"/><path d="m296 120c13.253906 0 24-10.746094 24-24s-10.746094-24-24-24-24 10.746094-24 24 10.746094 24 24 24zm0-32c4.417969 0 8 3.582031 8 8s-3.582031 8-8 8-8-3.582031-8-8 3.582031-8 8-8zm0 0"/><path d="m408 64h16c4.417969 0 8-3.582031 8-8v-48c0-4.417969-3.582031-8-8-8h-416c-4.417969 0-8 3.582031-8 8v48c0 4.417969 3.582031 8 8 8h16v352h-16c-4.417969 0-8 3.582031-8 8v48c0 4.417969 3.582031 8 8 8h416c4.417969 0 8-3.582031 8-8v-48c0-4.417969-3.582031-8-8-8h-16zm-392-48h400v32h-400zm376 48v64h-352v-64zm24 400h-400v-32h400zm-376-48v-272h352v272zm0 0"/><path d="m344 232h-18.167969c-22-50.527344-75.625-79.539062-129.953125-70.304688-54.328125 9.238282-95.355468 54.335938-99.421875 109.296876-.058593.222656-.105469.445312-.136719.671874 0 .144532.070313.265626.078126.398438-.167969 2.640625-.398438 5.257812-.398438 7.9375-.039062 56.804688 39.789062 105.84375 95.398438 117.457031 55.605468 11.613281 111.730468-17.382812 134.433593-69.457031h18.167969c4.417969 0 8-3.582031 8-8v-80c0-4.417969-3.582031-8-8-8zm-128-56c39.046875.183594 74.738281 22.105469 92.558594 56.847656-2.769532 1.304688-4.546875 4.089844-4.558594 7.152344v39.921875c-8.128906-.816406-16.015625-3.238281-23.199219-7.128906-11.730469-6.257813-24.871093-9.398438-38.160156-9.113281-13.273437-.285157-26.390625 2.859374-38.097656 9.121093-9.566407 5.238281-20.359375 7.839844-31.261719 7.535157-10.886719.3125-21.660156-2.289063-31.203125-7.535157-8.941406-4.734375-18.726563-7.667969-28.796875-8.632812 7.839844-50.683594 51.433594-88.101563 102.71875-88.167969zm0 208c-57.382812-.066406-103.894531-46.546875-104-103.929688 8.128906.816407 16.015625 3.238282 23.199219 7.128907 11.707031 6.269531 24.835937 9.414062 38.113281 9.121093 13.292969.28125 26.433594-2.859374 38.160156-9.121093 9.542969-5.238281 20.316406-7.835938 31.199219-7.527344 10.90625-.304687 21.695313 2.296875 31.265625 7.535156 9.3125 4.960938 19.542969 7.953125 30.0625 8.792969v24c.011719 3.0625 1.789062 5.847656 4.558594 7.152344-17.820313 34.742187-53.511719 56.664062-92.558594 56.847656zm120-72h-16v-64h16zm0 0"/></svg>